<svg xmlns="http://www.w3.org/2000/svg" xmlns:xlink="http://www.w3.org/1999/xlink" width="26.008" height="25.997" viewBox="0 0 26.008 25.997">
  <defs>
    <clipPath id="clip-path">
      <rect width="26.008" height="25.997" fill="none"/>
    </clipPath>
  </defs>
  <g id="Component_9_5" data-name="Component 9 – 5" clip-path="url(#clip-path)">
    <path id="Path_111" data-name="Path 111" d="M13.175,15.271c.687-.717,1.385-1.415,2.1-2.1,3.65,3.6,7.245,7.252,10.888,10.858,3.643-3.606,7.237-7.26,10.888-10.854.717.683,1.415,1.385,2.1,2.1-3.617,3.635-7.256,7.241-10.865,10.88,3.617,3.639,7.256,7.26,10.88,10.891-.713.7-1.418,1.407-2.116,2.124q-5.425-5.459-10.888-10.891Q20.7,33.706,15.276,39.167q-1.047-1.075-2.116-2.12c3.62-3.635,7.263-7.252,10.88-10.891C20.435,22.512,16.792,18.907,13.175,15.271Z" transform="translate(-13.16 -13.17)" fill="#103a76"/>
  </g>
</svg>
