<svg xmlns="http://www.w3.org/2000/svg" viewBox="0 0 476.09 164.13"><defs><style>.cls-1{fill:#f38654;}.cls-2{fill:#fff;}.cls-17,.cls-3,.cls-7{font-size:7.03px;font-family:LemonMilklight, Lemon/Milk light;}.cls-4{letter-spacing:0.1em;}.cls-5,.cls-7{letter-spacing:0.1em;}.cls-6{letter-spacing:0.1em;}.cls-8{letter-spacing:0em;}.cls-9{letter-spacing:-0.02em;}.cls-10{fill:none;stroke:#000;stroke-width:0.3px;}.cls-11{fill:#fdc217;}.cls-12{letter-spacing:0.01em;}.cls-13{letter-spacing:0.1em;}.cls-14{letter-spacing:0.05em;}.cls-15{letter-spacing:0.05em;}.cls-16,.cls-17{letter-spacing:0.1em;}.cls-18{letter-spacing:0em;}.cls-19{fill:#6ab4e4;}.cls-20{letter-spacing:0em;}.cls-21{letter-spacing:0.1em;}.cls-22{letter-spacing:0.05em;}</style></defs><title>dijagram_0_2</title><g id="Layer_2" data-name="Layer 2"><g id="Layer_1-2" data-name="Layer 1"><path class="cls-1" d="M189.79,149.69l5.92-4.59a1.49,1.49,0,0,0,.4-1.82L191.93,135a34.09,34.09,0,0,0,6.43-11.35l9.23-.64a1.46,1.46,0,0,0,1.35-1.28l.93-7.42a1.45,1.45,0,0,0-1-1.57l-8.82-2.91a34,34,0,0,0-3.47-12.56l6.08-7a1.46,1.46,0,0,0,.05-1.86l-4.59-5.91a1.47,1.47,0,0,0-1.81-.41L188,86.29a34.09,34.09,0,0,0-11.34-6.42L176,70.63a1.47,1.47,0,0,0-1.28-1.35l-7.42-.93a1.46,1.46,0,0,0-1.57,1l-2.91,8.82a34.31,34.31,0,0,0-12.56,3.47l-7-6.07a1.45,1.45,0,0,0-1.86,0l-5.9,4.59a1.46,1.46,0,0,0-.41,1.81l4.18,8.29a34,34,0,0,0-6.42,11.34l-9.24.64a1.47,1.47,0,0,0-1.35,1.28l-.93,7.42a1.45,1.45,0,0,0,1,1.57l8.81,2.91a34.22,34.22,0,0,0,3.47,12.57l-6.07,7a1.46,1.46,0,0,0-.05,1.86l4.59,5.9a1.46,1.46,0,0,0,1.81.41l8.29-4.18a34.22,34.22,0,0,0,11.34,6.43l.64,9.23a1.45,1.45,0,0,0,1.28,1.35l7.42.94a1.47,1.47,0,0,0,1.57-1l2.91-8.82A34,34,0,0,0,181,143.56l7,6.08a1.45,1.45,0,0,0,1.85.05"/><path class="cls-2" d="M146.54,121.91a21.24,21.24,0,1,0,9.78-28.4,21.24,21.24,0,0,0-9.78,28.4"/><text class="cls-3" transform="translate(34.25 115.65) scale(1.03 1)"><tspan class="cls-4">PLA</tspan><tspan class="cls-5" x="14.08" y="0">NIR</tspan><tspan class="cls-6" x="26.2" y="0">A</tspan><tspan class="cls-5" x="31.56" y="0">N</tspan><tspan class="cls-4" x="36.97" y="0">J</tspan><tspan x="41.13" y="0">E</tspan></text><text class="cls-3" transform="translate(80.06 115.65) scale(1.03 1)"> </text><text class="cls-3" transform="translate(80.06 115.65) scale(1.03 1)"> </text><text class="cls-7" transform="translate(0 124.09) scale(1.03 1)">G<tspan class="cls-4" x="6.15" y="0">O</tspan><tspan x="12.32" y="0">DI</tspan><tspan class="cls-4" x="19.38" y="0">Š</tspan><tspan x="23.41" y="0">N</tspan><tspan class="cls-4" x="28.82" y="0">JE</tspan><tspan class="cls-8" x="37.06" y="0">G</tspan></text><text class="cls-3" transform="translate(44.47 124.09) scale(1.03 1)"> </text><text class="cls-3" transform="translate(47.31 124.09) scale(1.03 1)">B</text><text class="cls-3" transform="translate(51.97 124.09) scale(1.03 1)">U</text><text class="cls-7" transform="translate(57.56 124.09) scale(1.03 1)">DŽ<tspan class="cls-6" x="9.6" y="0">E</tspan><tspan class="cls-9" x="13.68" y="0">T</tspan><tspan class="cls-8" x="17.21" y="0">A</tspan></text><line class="cls-10" x1="86.22" y1="112.75" x2="165.63" y2="112.75"/><path class="cls-1" d="M86.81,114.2a1.46,1.46,0,1,0-1.46-1.45,1.45,1.45,0,0,0,1.46,1.45"/><path class="cls-1" d="M165.63,114.2a1.46,1.46,0,1,0-1.46-1.45,1.45,1.45,0,0,0,1.46,1.45"/><path class="cls-11" d="M293.75,109.23l-2.67-7a1.48,1.48,0,0,0-1.62-.92l-9.15,1.58a33.72,33.72,0,0,0-9-9.47l2.09-9a1.46,1.46,0,0,0-.83-1.66l-6.82-3.06a1.46,1.46,0,0,0-1.8.49l-5.35,7.58a34.06,34.06,0,0,0-13-.35l-4.89-7.86a1.46,1.46,0,0,0-1.76-.59l-7,2.67a1.47,1.47,0,0,0-.93,1.61l1.58,9.15a34.1,34.1,0,0,0-9.46,9l-9-2.09a1.48,1.48,0,0,0-1.67.83l-3.06,6.83a1.47,1.47,0,0,0,.49,1.79l7.58,5.35a34.27,34.27,0,0,0-.35,13l-7.85,4.9a1.45,1.45,0,0,0-.59,1.76l2.66,7a1.45,1.45,0,0,0,1.61.92l9.15-1.57a34.1,34.1,0,0,0,9,9.46l-2.09,9a1.47,1.47,0,0,0,.83,1.66l6.83,3.06a1.45,1.45,0,0,0,1.79-.49l5.36-7.58a33.82,33.82,0,0,0,13,.35l4.9,7.85a1.45,1.45,0,0,0,1.76.59l7-2.66a1.44,1.44,0,0,0,.92-1.61l-1.57-9.15a34,34,0,0,0,9.46-9l9,2.09a1.46,1.46,0,0,0,1.67-.83l3.06-6.82a1.47,1.47,0,0,0-.49-1.79l-7.59-5.36a34.07,34.07,0,0,0,.36-13l7.85-4.9a1.46,1.46,0,0,0,.6-1.76"/><path class="cls-2" d="M254.53,142.47a21.24,21.24,0,1,0-24.3-17.65,21.24,21.24,0,0,0,24.3,17.65"/><text class="cls-3" transform="translate(337.87 124.29) scale(1.03 1)"><tspan class="cls-12">K</tspan><tspan class="cls-4" x="3.79" y="0">O</tspan><tspan class="cls-13" x="9.95" y="0">N</tspan><tspan class="cls-4" x="15.36" y="0">CE</tspan><tspan class="cls-14" x="24.68" y="0">P</tspan><tspan x="28.98" y="0">T</tspan></text><text class="cls-3" transform="translate(372.2 124.29) scale(1.03 1)">U</text><text class="cls-3" transform="translate(377.41 124.29) scale(1.03 1)"><tspan class="cls-4">AL</tspan><tspan class="cls-13" x="9.44" y="0">IZ</tspan><tspan class="cls-15" x="16.12" y="0">A</tspan><tspan class="cls-13" x="21.11" y="0">CI</tspan><tspan class="cls-15" x="28.43" y="0">J</tspan><tspan x="32.23" y="0">A</tspan></text><text class="cls-3" transform="translate(416.09 124.29) scale(1.03 1)"> </text><text class="cls-3" transform="translate(418.93 124.29) scale(1.03 1)"><tspan class="cls-13">IN</tspan><tspan class="cls-4" x="7.48" y="0">S</tspan><tspan class="cls-13" x="11.51" y="0">T</tspan><tspan x="15.9" y="0">R</tspan></text><text class="cls-3" transform="translate(440.07 124.29) scale(1.03 1)">U</text><text class="cls-3" transform="translate(445.66 124.29) scale(1.03 1)"><tspan class="cls-16">M</tspan><tspan class="cls-4" x="6.38" y="0">E</tspan><tspan class="cls-13" x="10.46" y="0">N</tspan><tspan class="cls-9" x="15.87" y="0">T</tspan><tspan x="19.4" y="0">A</tspan></text><text class="cls-3" transform="translate(470.41 124.29) scale(1.03 1)"> </text><text class="cls-3" transform="translate(473.97 124.29) scale(1.03 1)"> </text><text class="cls-3" transform="translate(337.87 132.73) scale(1.03 1)"><tspan class="cls-13">(n</tspan><tspan class="cls-4" x="8.25" y="0">pr.</tspan><tspan x="19.66" y="0"> </tspan></text><text class="cls-3" transform="translate(360.95 132.73) scale(1.03 1)"><tspan class="cls-16">G</tspan><tspan class="cls-4" x="6.15" y="0">RA</tspan><tspan class="cls-13" x="16.15" y="0">N</tspan><tspan x="21.56" y="0">T</tspan></text><text class="cls-17" transform="translate(387.64 132.73) scale(1.03 1)"> <tspan class="cls-4" x="2.76" y="0">še</tspan><tspan x="10.88" y="0">m</tspan><tspan class="cls-4" x="17.26" y="0">e</tspan><tspan class="cls-18" x="21.34" y="0">)</tspan></text><line class="cls-10" x1="251.2" y1="121.5" x2="330.61" y2="121.5"/><path class="cls-11" d="M251.2,123.11a1.46,1.46,0,1,0-1.45-1.46,1.46,1.46,0,0,0,1.45,1.46"/><path class="cls-11" d="M330.61,123.11a1.46,1.46,0,1,0-1.46-1.46,1.46,1.46,0,0,0,1.46,1.46"/><path class="cls-19" d="M253,15.62l-5.28-5.31a1.47,1.47,0,0,0-1.85-.18l-7.72,5.16a34.1,34.1,0,0,0-12-5l-1.76-9.08A1.47,1.47,0,0,0,222.88,0L215.4,0A1.47,1.47,0,0,0,214,1.18l-1.81,9.1a34.37,34.37,0,0,0-12.05,5l-7.66-5.18a1.46,1.46,0,0,0-1.85.18l-5.31,5.27a1.47,1.47,0,0,0-.18,1.85l5.16,7.72a34,34,0,0,0-5,12l-9.1,1.76A1.47,1.47,0,0,0,175,40.34l0,7.48a1.47,1.47,0,0,0,1.18,1.44l9.1,1.8a34.14,34.14,0,0,0,5,12l-5.18,7.68a1.46,1.46,0,0,0,.18,1.85l5.27,5.3a1.46,1.46,0,0,0,1.85.18L200.07,73a33.84,33.84,0,0,0,12,5l1.76,9.09a1.46,1.46,0,0,0,1.43,1.18l7.49,0a1.46,1.46,0,0,0,1.43-1.18L226,78a34,34,0,0,0,12.05-5l7.68,5.18A1.45,1.45,0,0,0,247.6,78l5.3-5.27a1.46,1.46,0,0,0,.19-1.85l-5.16-7.72a34,34,0,0,0,5-12L262,49.35a1.46,1.46,0,0,0,1.18-1.43l0-7.48A1.47,1.47,0,0,0,262.05,39l-9.11-1.81a34,34,0,0,0-5-12l5.18-7.67a1.45,1.45,0,0,0-.17-1.85"/><path class="cls-2" d="M229.71,62.51a21.23,21.23,0,1,0-29-7.77,21.23,21.23,0,0,0,29,7.77"/><text class="cls-17" transform="translate(304.81 47.65) scale(1.03 1)">G<tspan class="cls-4" x="6.15" y="0">O</tspan><tspan x="12.32" y="0">D</tspan><tspan class="cls-20" x="17.31" y="0">I</tspan></text><text class="cls-3" transform="translate(324.75 47.65) scale(1.03 1)"><tspan class="cls-4">š</tspan><tspan class="cls-13" x="4.03" y="0">n</tspan><tspan class="cls-4" x="9.44" y="0">j</tspan><tspan class="cls-13" x="13.6" y="0">i </tspan><tspan class="cls-21" x="18.44" y="0">pla</tspan><tspan class="cls-13" x="32.51" y="0">n </tspan><tspan class="cls-4" x="40.69" y="0">ra</tspan><tspan class="cls-22" x="50.68" y="0">d</tspan><tspan x="55.32" y="0">a</tspan></text><line class="cls-10" x1="219.1" y1="44.58" x2="298.5" y2="44.58"/><path class="cls-19" d="M298.5,46.19A1.46,1.46,0,1,0,297,44.73a1.46,1.46,0,0,0,1.46,1.46"/><path class="cls-19" d="M219.82,46.19a1.46,1.46,0,1,0-1.46-1.46,1.45,1.45,0,0,0,1.46,1.46"/></g></g></svg>