<svg xmlns="http://www.w3.org/2000/svg" viewBox="0 0 273.86 140.76"><defs><style>.cls-1{font-size:7.66px;}.cls-1,.cls-10,.cls-11,.cls-12,.cls-13,.cls-14,.cls-15,.cls-16,.cls-17,.cls-18,.cls-19,.cls-2,.cls-20,.cls-21,.cls-22,.cls-24,.cls-3,.cls-4,.cls-5,.cls-6,.cls-7,.cls-8,.cls-9{fill:#6ab4e4;}.cls-1,.cls-10,.cls-11,.cls-12,.cls-13,.cls-14,.cls-15,.cls-16,.cls-17,.cls-18,.cls-19,.cls-2,.cls-20,.cls-21,.cls-22,.cls-28,.cls-29,.cls-3,.cls-30,.cls-31,.cls-32,.cls-33,.cls-34,.cls-35,.cls-36,.cls-37,.cls-38,.cls-39,.cls-4,.cls-40,.cls-41,.cls-42,.cls-43,.cls-44,.cls-45,.cls-46,.cls-49,.cls-5,.cls-50,.cls-51,.cls-52,.cls-53,.cls-54,.cls-55,.cls-56,.cls-57,.cls-58,.cls-59,.cls-6,.cls-60,.cls-7,.cls-8,.cls-9{font-family:LemonMilk, Lemon/Milk;}.cls-2{font-size:7.66px;}.cls-3{font-size:7.66px;}.cls-4{font-size:7.66px;}.cls-5,.cls-59{font-size:7.66px;}.cls-6{font-size:7.66px;}.cls-7{font-size:7.66px;}.cls-8{font-size:7.66px;}.cls-32,.cls-9{font-size:7.66px;}.cls-10{font-size:7.66px;}.cls-11,.cls-34{font-size:7.66px;}.cls-12{font-size:7.66px;}.cls-13{font-size:7.66px;}.cls-14{font-size:7.66px;}.cls-15{font-size:7.66px;}.cls-16{font-size:7.66px;}.cls-17{font-size:7.66px;}.cls-18{font-size:7.66px;}.cls-19{font-size:7.66px;}.cls-20{font-size:7.66px;}.cls-21{font-size:7.66px;}.cls-22{font-size:7.66px;}.cls-23,.cls-25,.cls-26,.cls-48{fill:none;stroke-miterlimit:10;}.cls-23,.cls-25{stroke:#6ab4e4;}.cls-23,.cls-26,.cls-48{stroke-width:5.24px;}.cls-25{stroke-width:1.33px;}.cls-26{stroke:#f38654;}.cls-27,.cls-28,.cls-29,.cls-30,.cls-31,.cls-32,.cls-33,.cls-34,.cls-35,.cls-36,.cls-37,.cls-38,.cls-39,.cls-40,.cls-41,.cls-42,.cls-43,.cls-44,.cls-45,.cls-46{fill:#f38654;}.cls-28{font-size:7.66px;}.cls-29{font-size:7.66px;}.cls-30{font-size:7.66px;}.cls-31{font-size:7.66px;}.cls-33{font-size:7.66px;}.cls-35{font-size:7.66px;}.cls-36{font-size:7.66px;}.cls-37{font-size:7.66px;}.cls-38{font-size:7.66px;}.cls-39{font-size:7.66px;}.cls-40{font-size:7.66px;}.cls-41{font-size:7.66px;}.cls-42,.cls-52{font-size:7.66px;}.cls-43{font-size:7.66px;}.cls-44{font-size:7.66px;}.cls-45{font-size:7.66px;}.cls-46{font-size:7.66px;}.cls-47,.cls-49,.cls-50,.cls-51,.cls-52,.cls-53,.cls-54,.cls-55,.cls-56,.cls-57,.cls-58,.cls-59,.cls-60{fill:#fdc217;}.cls-48{stroke:#fdc217;}.cls-49{font-size:7.66px;}.cls-50{font-size:7.66px;}.cls-51{font-size:7.66px;}.cls-53{font-size:7.66px;}.cls-54{font-size:7.66px;}.cls-55{font-size:7.66px;}.cls-56{font-size:7.66px;}.cls-57{font-size:7.66px;}.cls-58{font-size:7.66px;}.cls-60{font-size:7.66px;}</style></defs><title>dijagram_0_1</title><g id="Layer_2" data-name="Layer 2"><g id="Layer_1-2" data-name="Layer 1"><text class="cls-1" transform="matrix(0.02, -1.03, 1, 0.02, 97.87, 64.72)">S</text><text class="cls-2" transform="matrix(0.14, -1.02, 0.99, 0.14, 97.93, 60.54)">R</text><text class="cls-3" transform="matrix(0.28, -0.99, 0.96, 0.28, 98.62, 55.57)">E</text><text class="cls-4" transform="matrix(0.4, -0.95, 0.92, 0.39, 99.72, 51.51)">D</text><text class="cls-5" transform="matrix(0.53, -0.88, 0.85, 0.52, 101.74, 46.7)">N</text><text class="cls-6" transform="matrix(0.66, -0.79, 0.77, 0.64, 104.71, 41.86)">J</text><text class="cls-7" transform="matrix(0.77, -0.68, 0.66, 0.75, 107.42, 38.41)">O</text><text class="cls-8" transform="matrix(0.86, -0.56, 0.55, 0.84, 112.31, 34.08)">R</text><text class="cls-9" transform="matrix(0.94, -0.43, 0.41, 0.91, 116.49, 31.3)">O</text><text class="cls-10" transform="matrix(0.99, -0.26, 0.25, 0.97, 122.45, 28.64)">Č</text><text class="cls-11" transform="matrix(1.02, -0.11, 0.11, 0.99, 127.88, 27.25)">N</text><text class="cls-12" transform="matrix(1.03, 0.06, -0.06, 1, 133.53, 26.65)">O</text><text class="cls-13" transform="matrix(1.01, 0.2, -0.2, 0.98, 140.03, 27.17)"> </text><text class="cls-14" transform="matrix(0.98, 0.3, -0.29, 0.96, 142.24, 27.52)">P</text><text class="cls-15" transform="matrix(0.94, 0.42, -0.4, 0.91, 146.86, 28.91)">L</text><text class="cls-16" transform="matrix(0.87, 0.55, -0.54, 0.84, 150.75, 30.52)">A</text><text class="cls-17" transform="matrix(0.78, 0.67, -0.66, 0.75, 155.74, 33.66)">N</text><text class="cls-1" transform="matrix(0.7, 0.75, -0.73, 0.68, 159.95, 37.46)">I</text><text class="cls-18" transform="matrix(0.62, 0.82, -0.8, 0.61, 161.33, 38.83)">R</text><text class="cls-19" transform="matrix(0.49, 0.9, -0.88, 0.48, 164.4, 42.8)">A</text><text class="cls-20" transform="matrix(0.33, 0.98, -0.95, 0.32, 167.25, 47.98)">N</text><text class="cls-21" transform="matrix(0.2, 1.01, -0.98, 0.2, 169.02, 53.37)">J</text><text class="cls-22" transform="matrix(0.08, 1.03, -1, 0.08, 169.87, 57.66)">E</text><path class="cls-23" d="M73.65,61.94a1.76,1.76,0,1,0,3.52.06,56.84,56.84,0,0,1,113.67,2l3.53.07h0a60.37,60.37,0,1,0-120.72-2.1Z"/><path class="cls-24" d="M203.68,57.52l-9,14.9a2.31,2.31,0,0,1-4-.07L182.3,57.14a2.31,2.31,0,0,1,2.06-3.43l17.38.3a2.32,2.32,0,0,1,1.94,3.51"/><path class="cls-25" d="M203.68,57.52l-9,14.9a2.31,2.31,0,0,1-4-.07L182.3,57.14a2.31,2.31,0,0,1,2.06-3.43l17.38.3A2.32,2.32,0,0,1,203.68,57.52Z"/><path class="cls-26" d="M74.52,134.77a60.37,60.37,0,1,1-23-118.52,1.76,1.76,0,1,1,.67,3.46A56.84,56.84,0,1,0,118.8,64.66a1.76,1.76,0,0,1,3.46-.67A60.43,60.43,0,0,1,74.52,134.77Z"/><path class="cls-27" d="M110.67,70l5.66-16.44a2.3,2.3,0,0,1,3.92-.76l11.41,13.12a2.31,2.31,0,0,1-1.3,3.78L113.29,73a2.31,2.31,0,0,1-2.62-3"/><text class="cls-28" transform="matrix(0.43, 0.93, -0.91, 0.42, 22.89, 92.16)">P</text><text class="cls-29" transform="matrix(0.57, 0.86, -0.83, 0.55, 25.19, 97.37)">O</text><text class="cls-30" transform="matrix(0.67, 0.78, -0.76, 0.65, 29.34, 103.49)">L</text><text class="cls-31" transform="matrix(0.75, 0.71, -0.69, 0.73, 32.69, 107.28)">I</text><text class="cls-32" transform="matrix(0.81, 0.63, -0.61, 0.79, 34.68, 109.27)">T</text><text class="cls-33" transform="matrix(0.87, 0.55, -0.53, 0.85, 38.96, 112.56)">I</text><text class="cls-34" transform="matrix(0.92, 0.46, -0.44, 0.9, 41.28, 114.15)">K</text><text class="cls-35" transform="matrix(0.97, 0.34, -0.33, 0.94, 46.56, 116.78)">A</text><text class="cls-36" transform="matrix(1, 0.22, -0.22, 0.98, 52.68, 118.79)"> </text><text class="cls-37" transform="matrix(1.02, 0.13, -0.12, 0.99, 55.69, 119.5)">/</text><text class="cls-38" transform="matrix(1.03, 0.05, -0.05, 1, 60.21, 120.03)"> </text><text class="cls-39" transform="matrix(1.03, -0.05, 0.04, 1, 63.3, 120.2)">S</text><text class="cls-40" transform="matrix(1.01, -0.17, 0.16, 0.99, 68.34, 119.95)">T</text><text class="cls-41" transform="matrix(0.98, -0.31, 0.31, 0.95, 73.68, 119.08)">R</text><text class="cls-28" transform="matrix(0.93, -0.43, 0.42, 0.91, 79.28, 117.29)">A</text><text class="cls-42" transform="matrix(0.87, -0.55, 0.53, 0.85, 84.52, 114.81)">T</text><text class="cls-43" transform="matrix(0.8, -0.65, 0.63, 0.77, 89.08, 111.91)">E</text><text class="cls-44" transform="matrix(0.69, -0.76, 0.74, 0.67, 93.08, 108.78)">G</text><text class="cls-45" transform="matrix(0.61, -0.83, 0.81, 0.59, 97.93, 103.22)">I</text><text class="cls-45" transform="matrix(0.52, -0.89, 0.86, 0.51, 99.61, 100.98)">J</text><text class="cls-46" transform="matrix(0.41, -0.94, 0.92, 0.4, 102.04, 96.98)">A</text><path class="cls-47" d="M229.1,20.42a60.25,60.25,0,1,1-75.58,39.35,1.76,1.76,0,0,1,3.36,1.06,56.73,56.73,0,1,0,71.16-37,1.76,1.76,0,0,1,1.06-3.36"/><path class="cls-48" d="M229.1,20.42a60.25,60.25,0,1,1-75.58,39.35,1.76,1.76,0,0,1,3.36,1.06,56.73,56.73,0,1,0,71.16-37,1.76,1.76,0,0,1,1.06-3.36Z"/><path class="cls-47" d="M231.73,35.7,220,22.88a2.31,2.31,0,0,1,1.21-3.81l17-3.77a2.31,2.31,0,0,1,2.7,2.95l-5.23,16.58a2.3,2.3,0,0,1-3.9.87"/><text class="cls-49" transform="matrix(1.01, 0.21, -0.2, 0.98, 199.34, 120.66)">B</text><text class="cls-50" transform="matrix(1.03, 0.08, -0.08, 1, 204.79, 121.82)">U</text><text class="cls-51" transform="matrix(1.03, -0.08, 0.07, 1, 211.35, 122.29)">D</text><text class="cls-52" transform="matrix(1.01, -0.2, 0.2, 0.98, 217.41, 121.81)">Ž</text><text class="cls-53" transform="matrix(0.97, -0.33, 0.32, 0.95, 222.75, 120.69)">E</text><text class="cls-54" transform="matrix(0.93, -0.45, 0.43, 0.9, 227.56, 119.08)">T</text><text class="cls-55" transform="matrix(0.88, -0.53, 0.52, 0.85, 232.39, 116.68)">I</text><text class="cls-56" transform="matrix(0.82, -0.62, 0.6, 0.8, 234.83, 115.29)">R</text><text class="cls-57" transform="matrix(0.73, -0.73, 0.71, 0.71, 239.55, 111.77)">A</text><text class="cls-58" transform="matrix(0.61, -0.82, 0.8, 0.6, 244.29, 106.95)">N</text><text class="cls-59" transform="matrix(0.49, -0.9, 0.88, 0.48, 248.12, 101.65)">J</text><text class="cls-60" transform="matrix(0.38, -0.96, 0.93, 0.37, 250.61, 97.04)">E</text></g></g></svg>