<svg xmlns="http://www.w3.org/2000/svg" viewBox="0 0 38.41 47.18"><defs><style>.cls-1{fill:#fdc217;}</style></defs><title>document</title><g id="Layer_2" data-name="Layer 2"><g id="Layer_1-2" data-name="Layer 1"><path class="cls-1" d="M10.84,32.53l-2.48,2.8a.64.64,0,0,1-.47.21.62.62,0,0,1-.38-.14L6,34.16a.61.61,0,0,1-.1-.87.62.62,0,0,1,.87-.1l1.09.87,2.09-2.35a.62.62,0,0,1,.93.82m0-5.77L8.36,29.55a.61.61,0,0,1-.47.21.56.56,0,0,1-.38-.14L6,28.38a.61.61,0,0,1-.1-.87.62.62,0,0,1,.87-.1l1.09.88,2.09-2.36a.64.64,0,0,1,.88-.05.63.63,0,0,1,.05.88m0-5.73L8.36,23.82a.61.61,0,0,1-.47.21.62.62,0,0,1-.38-.14L6,22.65a.61.61,0,0,1-.1-.87.62.62,0,0,1,.87-.1l1.09.87L9.91,20.2a.62.62,0,1,1,.93.83m0-6L8.36,17.82a.61.61,0,0,1-.47.21.56.56,0,0,1-.38-.14L6,16.65a.61.61,0,0,1-.1-.87.62.62,0,0,1,.87-.1l1.09.88,2.09-2.35a.62.62,0,1,1,.93.82m8,20H12.81a.67.67,0,0,1-.68-.67V33.7a.67.67,0,0,1,.68-.68h6.06a.67.67,0,0,1,.67.68v.67a.67.67,0,0,1-.67.67M20.22,29H12.81a.67.67,0,0,1-.68-.67v-.68a.67.67,0,0,1,.68-.67h7.41a.67.67,0,0,1,.67.67v.68a.67.67,0,0,1-.67.67m3.37-11.46H12.81a.67.67,0,0,1-.68-.67v-.67a.67.67,0,0,1,.68-.68H23.59a.67.67,0,0,1,.67.68v.67a.67.67,0,0,1-.67.67m0,6.07H12.81a.67.67,0,0,1-.68-.68v-.67a.67.67,0,0,1,.68-.67H23.59a.67.67,0,0,1,.67.67v.67a.67.67,0,0,1-.67.68m11.79,13L30,42.68a1.35,1.35,0,0,1-1,.45,1.38,1.38,0,0,1-.84-.29l-3.37-2.7A1.34,1.34,0,1,1,26.45,38l2.37,1.89,4.54-5.11a1.35,1.35,0,0,1,2,1.79m-5.73-7a8.77,8.77,0,1,0,8.76,8.76,8.76,8.76,0,0,0-8.76-8.76m-10,12.81H2.7A2.7,2.7,0,0,1,0,39.76V7.41C0,5.93,1.21,4.72,2,4.72H7.48a3.84,3.84,0,0,0-.07.69,3.36,3.36,0,0,0,3.35,3.35h8.8a3.36,3.36,0,0,0,3.35-3.39,3.49,3.49,0,0,0-.06-.65H27c2.16,0,3.37,1.21,3.37,2.69V27.67c-.23,0-.45,0-.68,0A10.39,10.39,0,0,0,27,28V12.13H3.37v27H18.9a11.11,11.11,0,0,0,.76,3.37M15.16,3.37a1,1,0,1,1,1-1,1,1,0,0,1-1,1m4.4,0h-1a1,1,0,0,1-1-1v0A2.33,2.33,0,0,0,15.19,0h0a2.33,2.33,0,0,0-2.33,2.33v0a1,1,0,0,1-1,1h-1a2,2,0,0,0-2,2v0a2,2,0,0,0,2,2h8.8a2,2,0,0,0,2-2v0a2,2,0,0,0-2-2"/></g></g></svg>