<svg xmlns="http://www.w3.org/2000/svg" xmlns:xlink="http://www.w3.org/1999/xlink" width="31.458" height="34.957" viewBox="0 0 31.458 34.957">
  <defs>
    <clipPath id="clip-path">
      <rect width="31.458" height="34.956" fill="none"/>
    </clipPath>
  </defs>
  <g id="Icon_1" data-name="Icon 1" clip-path="url(#clip-path)">
    <path id="Path_19" data-name="Path 19" d="M515.863,259c1.027-.426.135-1.8-.68-1.977-.46.635-.668,2.535.68,1.977" transform="translate(-501.727 -240.285)" fill="#fff"/>
    <path id="Path_20" data-name="Path 20" d="M506.909,251.7c1.358,2.526,2.654,5.079,3.947,7.635.182.361-.39.614-.574.252-1.3-2.555-2.587-5.108-3.817-7.689-.134-.285.3-.473.444-.2m.571-.359c.619-.864,1.538-1.959,2.614-1.956a3.844,3.844,0,0,1,2.953-.807,2.981,2.981,0,0,1,1.076.311c.038-.013.075-.026.115-.035a4.4,4.4,0,0,1,2.361.1,3.415,3.415,0,0,1,1.991,1.622c.105.164-.113.407-.279.279-.441-.335-.683-.894-1.2-1.117a4.64,4.64,0,0,0-1.657-.429,3.865,3.865,0,0,0-.679.034,2.075,2.075,0,0,1,.659,1.788c-.127,1.051-1.515,1.794-2.2.7a2.092,2.092,0,0,1,.316-2.635,2.851,2.851,0,0,0-.355-.077,3.878,3.878,0,0,0-2.482.4,2.19,2.19,0,0,1,.418.226c.746.522,1.152,2.135.1,2.57-1.328.549-2.18-.734-1.769-1.936a2.494,2.494,0,0,1,.191-.42,4.46,4.46,0,0,0-1.984,1.53c-.089.1-.261-.032-.185-.143m11.664.557c-1.23,2.582-2.52,5.135-3.816,7.689-.184.362-.757.109-.574-.252,1.292-2.556,2.588-5.109,3.945-7.635.15-.275.579-.087.445.2m-9.707,9.189H515.7a1.4,1.4,0,0,0,1.371-1.214c.386-2.4,2-3.512,4.4-7.689,2.778-4.82.817-12.991-8.906-12.991s-11.681,8.171-8.9,12.991c2.407,4.177,4.017,5.286,4.4,7.689a1.4,1.4,0,0,0,1.37,1.214" transform="translate(-496.811 -233.171)" fill="#fff"/>
    <path id="Path_21" data-name="Path 21" d="M521.532,258.685c.621-.079.756-.653.634-1.172a1.964,1.964,0,0,0-.724-1.169,1.166,1.166,0,0,0-.733,1.229c.022.458.205,1.19.823,1.111" transform="translate(-504.069 -240.013)" fill="#fff"/>
    <path id="Path_22" data-name="Path 22" d="M519.654,276.659h-7a1.1,1.1,0,0,0-1.158,1.027v.073a1.1,1.1,0,0,0,1.158,1.025h7a1.1,1.1,0,0,0,1.157-1.025v-.073a1.1,1.1,0,0,0-1.157-1.027" transform="translate(-500.396 -248.116)" fill="#fff"/>
    <path id="Path_23" data-name="Path 23" d="M519.6,281.12h-6.1a1.016,1.016,0,0,0-1.008,1.026v.072a1.017,1.017,0,0,0,1.008,1.027h6.1a1.017,1.017,0,0,0,1.009-1.027v-.072a1.016,1.016,0,0,0-1.009-1.026" transform="translate(-500.794 -249.896)" fill="#fff"/>
    <path id="Path_24" data-name="Path 24" d="M519.4,285.4h-2.578a.507.507,0,0,0-.427.561V286a.507.507,0,0,0,.427.56H519.4a.508.508,0,0,0,.427-.56v-.04a.508.508,0,0,0-.427-.561" transform="translate(-502.347 -251.602)" fill="#fff"/>
    <path id="Path_25" data-name="Path 25" d="M518.444,232.559a.369.369,0,0,0,.634,0,1.416,1.416,0,0,0,.1-.782c.019-.246.016-.5.031-.735.028-.481.008-.97-.01-1.449a.433.433,0,0,0-.866,0c-.017.484-.016.965-.01,1.449a7.8,7.8,0,0,0,.037.828,1.2,1.2,0,0,0,.09.689" transform="translate(-503.115 -229.175)" fill="#fff"/>
    <path id="Path_26" data-name="Path 26" d="M506.254,234.329a8.2,8.2,0,0,0,.433.706,1.187,1.187,0,0,0,.411.561.37.37,0,0,0,.554-.305,1.426,1.426,0,0,0-.293-.733c-.1-.224-.225-.444-.329-.658-.208-.435-.462-.854-.709-1.265a.434.434,0,0,0-.759.42c.219.431.453.852.692,1.274" transform="translate(-498.003 -230.466)" fill="#fff"/>
    <path id="Path_27" data-name="Path 27" d="M499.009,242.652a1.431,1.431,0,0,0-.584-.53c-.19-.156-.4-.3-.582-.45-.376-.3-.787-.564-1.19-.829a.434.434,0,0,0-.5.709c.385.293.78.571,1.178.844a7.964,7.964,0,0,0,.7.449,1.222,1.222,0,0,0,.616.325.37.37,0,0,0,.365-.518" transform="translate(-494.2 -233.794)" fill="#fff"/>
    <path id="Path_28" data-name="Path 28" d="M495.69,253.771a1.2,1.2,0,0,0,.694-.04.368.368,0,0,0,.045-.632,1.4,1.4,0,0,0-.775-.151c-.243-.037-.493-.052-.731-.083-.477-.062-.965-.076-1.447-.093a.433.433,0,0,0-.059.864c.48.052.961.085,1.444.112a7.524,7.524,0,0,0,.828.022" transform="translate(-493.029 -238.587)" fill="#fff"/>
    <path id="Path_29" data-name="Path 29" d="M497.564,261.7a1.413,1.413,0,0,0-.73.3c-.224.1-.442.227-.657.332-.432.21-.849.466-1.26.717a.433.433,0,0,0,.423.756c.43-.221.851-.457,1.27-.7a8.163,8.163,0,0,0,.705-.435,1.2,1.2,0,0,0,.557-.416.368.368,0,0,0-.308-.552" transform="translate(-493.693 -242.15)" fill="#fff"/>
    <path id="Path_30" data-name="Path 30" d="M502.337,268.882a1.414,1.414,0,0,0-.48.627c-.141.2-.266.42-.4.617-.267.4-.5.833-.727,1.254a.434.434,0,0,0,.747.44c.26-.408.5-.824.744-1.243a8.177,8.177,0,0,0,.388-.733,1.194,1.194,0,0,0,.272-.64.369.369,0,0,0-.545-.322" transform="translate(-496.073 -244.995)" fill="#fff"/>
    <path id="Path_31" data-name="Path 31" d="M529.863,235.594a1.193,1.193,0,0,0,.413-.561c.161-.225.3-.477.432-.706.238-.421.472-.841.691-1.273a.434.434,0,0,0-.76-.42c-.246.412-.5.831-.707,1.265-.1.214-.227.433-.329.658a1.412,1.412,0,0,0-.294.732.367.367,0,0,0,.554.305" transform="translate(-507.501 -230.466)" fill="#fff"/>
    <path id="Path_32" data-name="Path 32" d="M539.016,242.4c.4-.273.793-.551,1.178-.844a.434.434,0,0,0-.5-.709c-.4.265-.814.53-1.189.829-.188.15-.394.293-.585.45a1.424,1.424,0,0,0-.584.53.369.369,0,0,0,.367.516,1.2,1.2,0,0,0,.615-.323,7.293,7.293,0,0,0,.7-.449" transform="translate(-510.689 -233.794)" fill="#fff"/>
    <path id="Path_33" data-name="Path 33" d="M542.551,252.773c-.481.017-.97.031-1.447.093-.237.031-.487.046-.73.083a1.429,1.429,0,0,0-.775.15.37.37,0,0,0,.045.633,1.2,1.2,0,0,0,.695.04,7.519,7.519,0,0,0,.828-.022c.483-.027.965-.06,1.446-.112a.433.433,0,0,0-.061-.864" transform="translate(-511.543 -238.587)" fill="#fff"/>
    <path id="Path_34" data-name="Path 34" d="M541.331,263.05c-.411-.251-.828-.506-1.261-.717-.215-.1-.432-.227-.656-.331a1.408,1.408,0,0,0-.729-.3.369.369,0,0,0-.31.552,1.2,1.2,0,0,0,.558.416,8.148,8.148,0,0,0,.705.435c.42.242.84.48,1.27.7a.433.433,0,0,0,.422-.756" transform="translate(-511.096 -242.15)" fill="#fff"/>
    <path id="Path_35" data-name="Path 35" d="M535.459,270.125c-.133-.2-.259-.415-.4-.617a1.41,1.41,0,0,0-.48-.627.369.369,0,0,0-.545.322,1.193,1.193,0,0,0,.272.64,8.079,8.079,0,0,0,.389.732c.241.42.483.836.744,1.244a.434.434,0,0,0,.747-.44c-.229-.421-.459-.854-.727-1.254" transform="translate(-509.386 -244.995)" fill="#fff"/>
  </g>
</svg>
