<?xml version="1.0" encoding="utf-8"?>
<!-- Generator: Adobe Illustrator 22.0.0, SVG Export Plug-In . SVG Version: 6.00 Build 0)  -->
<svg version="1.1" id="Layer_1" xmlns="http://www.w3.org/2000/svg" xmlns:xlink="http://www.w3.org/1999/xlink" x="0px" y="0px"
	 viewBox="0 0 31.5 35" style="enable-background:new 0 0 31.5 35;" xml:space="preserve">
<style type="text/css">
	.st0{clip-path:url(#SVGID_2_);}
	.st1{fill:#FCC21A;}
</style>
<g>
	<defs>
		<rect id="SVGID_1_" y="0" width="31.5" height="35"/>
	</defs>
	<clipPath id="SVGID_2_">
		<use xlink:href="#SVGID_1_"  style="overflow:visible;"/>
	</clipPath>
	<g id="Icon_1" class="st0">
		<path id="Path_19" class="st1" d="M14.1,18.7c1-0.4,0.1-1.8-0.7-2C13,17.4,12.8,19.3,14.1,18.7"/>
		<path id="Path_20" class="st1" d="M10.1,18.5c1.4,2.5,2.7,5.1,3.9,7.6c0.2,0.4-0.4,0.6-0.6,0.3c-1.3-2.6-2.6-5.1-3.8-7.7
			C9.5,18.4,10,18.3,10.1,18.5 M10.7,18.2c0.6-0.9,1.5-2,2.6-2c0.8-0.7,1.9-1,3-0.8c0.4,0,0.7,0.1,1.1,0.3c0,0,0.1,0,0.1,0
			c0.8-0.2,1.6-0.1,2.4,0.1c0.8,0.3,1.6,0.8,2,1.6c0.1,0.2-0.1,0.4-0.3,0.3c-0.4-0.3-0.7-0.9-1.2-1.1c-0.5-0.2-1.1-0.4-1.7-0.4
			c-0.2,0-0.5,0-0.7,0c0.5,0.5,0.7,1.1,0.7,1.8c-0.1,1.1-1.5,1.8-2.2,0.7c-0.5-0.8-0.4-1.9,0.3-2.6c-0.1,0-0.2-0.1-0.4-0.1
			c-0.8-0.1-1.7,0-2.5,0.4c0.1,0.1,0.3,0.1,0.4,0.2c0.7,0.5,1.2,2.1,0.1,2.6c-1.3,0.5-2.2-0.7-1.8-1.9c0.1-0.1,0.1-0.3,0.2-0.4
			c-0.8,0.3-1.5,0.8-2,1.5C10.8,18.4,10.6,18.3,10.7,18.2 M22.3,18.7c-1.2,2.6-2.5,5.1-3.8,7.7c-0.2,0.4-0.8,0.1-0.6-0.3
			c1.3-2.6,2.6-5.1,3.9-7.6C22,18.3,22.5,18.4,22.3,18.7 M12.6,27.9h6.3c0.7,0,1.3-0.5,1.4-1.2c0.4-2.4,2-3.5,4.4-7.7
			c2.8-4.8,0.8-13-8.9-13S4.1,14.2,6.9,19c2.4,4.2,4,5.3,4.4,7.7C11.3,27.4,11.9,27.9,12.6,27.9"/>
		<path id="Path_21" class="st1" d="M17.5,18.7c0.6-0.1,0.8-0.7,0.6-1.2c-0.1-0.5-0.3-0.9-0.7-1.2c-0.5,0.2-0.8,0.7-0.7,1.2
			C16.7,18,16.8,18.8,17.5,18.7"/>
		<path id="Path_22" class="st1" d="M19.3,28.5h-7c-0.6,0-1.1,0.4-1.2,1v0.1c0,0.6,0.6,1.1,1.2,1h7c0.6,0,1.1-0.4,1.2-1v-0.1
			C20.4,29,19.9,28.5,19.3,28.5"/>
		<path id="Path_23" class="st1" d="M18.8,31.2h-6.1c-0.6,0-1,0.5-1,1c0,0,0,0,0,0v0.1c0,0.6,0.4,1,1,1c0,0,0,0,0,0h6.1
			c0.6,0,1-0.5,1-1c0,0,0,0,0,0v-0.1C19.8,31.7,19.4,31.2,18.8,31.2C18.8,31.2,18.8,31.2,18.8,31.2"/>
		<path id="Path_24" class="st1" d="M17.1,33.8h-2.6c-0.3,0-0.5,0.3-0.4,0.6v0c0,0.3,0.2,0.5,0.4,0.6h2.6c0.3,0,0.5-0.3,0.4-0.6v0
			C17.5,34.1,17.3,33.8,17.1,33.8"/>
		<path id="Path_25" class="st1" d="M15.3,3.4c0.1,0.2,0.3,0.2,0.5,0.1c0.1,0,0.1-0.1,0.1-0.1c0.1-0.2,0.1-0.5,0.1-0.8
			c0-0.2,0-0.5,0-0.7c0-0.5,0-1,0-1.4c0-0.2-0.2-0.4-0.4-0.4c-0.2,0-0.4,0.2-0.4,0.4c0,0.5,0,1,0,1.4c0,0.3,0,0.6,0,0.8
			C15.2,2.9,15.2,3.2,15.3,3.4"/>
		<path id="Path_26" class="st1" d="M8.3,3.9c0.1,0.2,0.3,0.5,0.4,0.7C8.8,4.8,8.9,5,9.1,5.1c0.2,0.1,0.4,0,0.5-0.1
			c0-0.1,0-0.1,0-0.2c0-0.3-0.1-0.5-0.3-0.7C9.3,3.9,9.1,3.6,9,3.4C8.8,3,8.6,2.6,8.3,2.2C8.2,2,7.9,1.9,7.7,2
			C7.5,2.1,7.5,2.4,7.6,2.6C7.8,3,8,3.4,8.3,3.9"/>
		<path id="Path_27" class="st1" d="M4.8,8.9C4.7,8.6,4.5,8.4,4.2,8.3C4,8.2,3.8,8,3.6,7.9C3.3,7.6,2.9,7.3,2.5,7
			C2.3,6.9,2,7,1.9,7.2C1.7,7.4,1.8,7.6,2,7.8c0.4,0.3,0.8,0.6,1.2,0.8c0.2,0.2,0.5,0.3,0.7,0.4C4,9.2,4.2,9.3,4.4,9.4
			c0.2,0,0.4-0.1,0.4-0.3C4.8,9,4.8,8.9,4.8,8.9"/>
		<path id="Path_28" class="st1" d="M2.7,15.2c0.2,0.1,0.5,0,0.7,0c0.2-0.1,0.3-0.3,0.2-0.5c0-0.1-0.1-0.1-0.1-0.1
			c-0.2-0.1-0.5-0.2-0.8-0.2c-0.2,0-0.5-0.1-0.7-0.1c-0.5-0.1-1-0.1-1.4-0.1c-0.2,0-0.4,0.2-0.5,0.4C0,14.8,0.1,15,0.4,15
			c0.5,0.1,1,0.1,1.4,0.1C2.1,15.2,2.4,15.2,2.7,15.2"/>
		<path id="Path_29" class="st1" d="M3.9,19.6c-0.3,0-0.5,0.1-0.7,0.3c-0.2,0.1-0.4,0.2-0.7,0.3c-0.4,0.2-0.8,0.5-1.3,0.7
			C1,21,0.9,21.3,1.1,21.5s0.4,0.3,0.6,0.2l0,0c0.4-0.2,0.9-0.5,1.3-0.7c0.2-0.1,0.5-0.3,0.7-0.4c0.2-0.1,0.4-0.2,0.6-0.4
			c0.1-0.2,0-0.4-0.1-0.5C4,19.6,3.9,19.6,3.9,19.6"/>
		<path id="Path_30" class="st1" d="M6.3,23.9C6,24,5.9,24.3,5.8,24.5c-0.1,0.2-0.3,0.4-0.4,0.6c-0.3,0.4-0.5,0.8-0.7,1.3
			c-0.1,0.2,0,0.5,0.2,0.6c0.2,0.1,0.4,0,0.6-0.1c0.3-0.4,0.5-0.8,0.7-1.2c0.1-0.2,0.3-0.5,0.4-0.7c0.2-0.2,0.2-0.4,0.3-0.6
			c0-0.2-0.2-0.4-0.4-0.4C6.4,23.8,6.3,23.9,6.3,23.9"/>
		<path id="Path_31" class="st1" d="M22.4,5.1c0.2-0.1,0.3-0.3,0.4-0.6c0.2-0.2,0.3-0.5,0.4-0.7c0.2-0.4,0.5-0.8,0.7-1.3
			c0.1-0.2,0-0.5-0.2-0.6c-0.2-0.1-0.5,0-0.6,0.2c-0.2,0.4-0.5,0.8-0.7,1.3c-0.1,0.2-0.2,0.4-0.3,0.7c-0.2,0.2-0.3,0.5-0.3,0.7
			c0,0.2,0.2,0.4,0.4,0.4C22.2,5.2,22.3,5.2,22.4,5.1"/>
		<path id="Path_32" class="st1" d="M28.3,8.6c0.4-0.3,0.8-0.6,1.2-0.8c0.2-0.1,0.2-0.4,0.1-0.6C29.5,7,29.2,6.9,29,7.1
			c-0.4,0.3-0.8,0.5-1.2,0.8c-0.2,0.1-0.4,0.3-0.6,0.4c-0.2,0.1-0.4,0.3-0.6,0.5c-0.1,0.2,0,0.4,0.2,0.5c0.1,0,0.1,0,0.2,0
			c0.2,0,0.4-0.2,0.6-0.3C27.9,8.9,28.1,8.8,28.3,8.6"/>
		<path id="Path_33" class="st1" d="M31,14.2c-0.5,0-1,0-1.4,0.1c-0.2,0-0.5,0-0.7,0.1c-0.3,0-0.5,0-0.8,0.1
			c-0.2,0.1-0.2,0.3-0.1,0.5c0,0,0.1,0.1,0.1,0.1c0.2,0.1,0.5,0.1,0.7,0c0.3,0,0.6,0,0.8,0c0.5,0,1-0.1,1.4-0.1
			c0.2,0,0.4-0.2,0.4-0.5C31.5,14.4,31.2,14.2,31,14.2"/>
		<path id="Path_34" class="st1" d="M30.2,20.9c-0.4-0.3-0.8-0.5-1.3-0.7c-0.2-0.1-0.4-0.2-0.7-0.3c-0.2-0.2-0.5-0.3-0.7-0.3
			c-0.2,0-0.4,0.2-0.4,0.4c0,0.1,0,0.1,0,0.2c0.1,0.2,0.3,0.3,0.6,0.4c0.2,0.2,0.5,0.3,0.7,0.4c0.4,0.2,0.8,0.5,1.3,0.7
			c0.2,0.1,0.5,0,0.6-0.2C30.5,21.3,30.4,21,30.2,20.9"/>
		<path id="Path_35" class="st1" d="M26.1,25.1c-0.1-0.2-0.3-0.4-0.4-0.6c-0.1-0.3-0.3-0.5-0.5-0.6c-0.2-0.1-0.4,0-0.5,0.1
			c0,0.1,0,0.1,0,0.2c0,0.2,0.1,0.5,0.3,0.6c0.1,0.3,0.2,0.5,0.4,0.7c0.2,0.4,0.5,0.8,0.7,1.2c0.1,0.2,0.4,0.3,0.6,0.1
			c0.2-0.1,0.2-0.4,0.1-0.6C26.6,26,26.3,25.5,26.1,25.1"/>
	</g>
</g>
</svg>
