<svg xmlns="http://www.w3.org/2000/svg" viewBox="0 0 46.65 34.71"><defs><style>.cls-1{fill:#fdc217;}.cls-2{fill:#fff;}.cls-3{font-size:10px;font-family:LemonMilklight, Lemon/Milk light;}</style></defs><title>settings</title><g id="Layer_2" data-name="Layer 2"><g id="Layer_1-2" data-name="Layer 1"><path class="cls-1" d="M13.83,22.44l1.85-.6a.37.37,0,0,0,.27-.41L15.66,19a8.94,8.94,0,0,0,2.58-2.2l2.31.66a.39.39,0,0,0,.45-.19l.88-1.73a.37.37,0,0,0-.1-.47l-1.9-1.5a8.71,8.71,0,0,0,.27-3.37l2.11-1.17a.39.39,0,0,0,.18-.45l-.6-1.85a.39.39,0,0,0-.41-.26L19,6.79a8.9,8.9,0,0,0-2.2-2.57L17.5,1.9a.38.38,0,0,0-.19-.44L15.58.57a.38.38,0,0,0-.47.1l-1.5,1.9a8.72,8.72,0,0,0-3.37-.27L9.07.2A.38.38,0,0,0,8.62,0L6.77.62a.37.37,0,0,0-.26.4l.28,2.4a8.78,8.78,0,0,0-2.58,2.2L1.9,5a.37.37,0,0,0-.44.19L.57,6.88a.38.38,0,0,0,.1.47l1.9,1.49a8.77,8.77,0,0,0-.27,3.38L.2,13.39a.36.36,0,0,0-.18.44l.59,1.85A.39.39,0,0,0,1,16l2.4-.29a8.66,8.66,0,0,0,2.2,2.58L5,20.55a.39.39,0,0,0,.19.45l1.73.88a.36.36,0,0,0,.47-.1l1.5-1.89a9.18,9.18,0,0,0,3.38.27l1.16,2.1a.38.38,0,0,0,.45.18"/><path class="cls-2" d="M5.9,12.66A5.52,5.52,0,1,0,9.8,5.9a5.51,5.51,0,0,0-3.9,6.76"/><path class="cls-1" d="M25.82,14.24l1,.39a.2.2,0,0,0,.24-.08l.7-1.07a4.74,4.74,0,0,0,1.8,0l.71,1a.2.2,0,0,0,.25.08l.95-.4a.2.2,0,0,0,.12-.23l-.26-1.25a5,5,0,0,0,1.26-1.28l1.25.24a.2.2,0,0,0,.23-.12l.38-1a.19.19,0,0,0-.07-.24l-1.07-.7a4.74,4.74,0,0,0,0-1.8l1.06-.71a.22.22,0,0,0,.08-.25L34,6a.19.19,0,0,0-.22-.12l-1.26.26a4.65,4.65,0,0,0-1.28-1.26l.25-1.25a.21.21,0,0,0-.12-.23l-1-.39a.2.2,0,0,0-.24.08l-.71,1.07a4.5,4.5,0,0,0-1.79,0l-.72-1.06A.2.2,0,0,0,26.69,3l-1,.4a.21.21,0,0,0-.12.23l.26,1.25a4.69,4.69,0,0,0-1.26,1.29l-1.25-.25a.2.2,0,0,0-.23.12l-.39,1a.2.2,0,0,0,.08.24l1.07.71a4.69,4.69,0,0,0,0,1.79l-1.06.72a.19.19,0,0,0-.07.24l.4,1a.2.2,0,0,0,.23.12l1.25-.26a4.79,4.79,0,0,0,1.28,1.26L25.7,14a.2.2,0,0,0,.12.23"/><path class="cls-2" d="M25.93,7.56a2.93,2.93,0,1,0,3.89-1.42,2.93,2.93,0,0,0-3.89,1.42"/><path class="cls-1" d="M25.11,34.71l1.61-.08a.31.31,0,0,0,.29-.27l.29-2a7.41,7.41,0,0,0,2.52-1.2l1.71,1a.31.31,0,0,0,.39-.06L33,31a.32.32,0,0,0,0-.4L31.82,29a7.33,7.33,0,0,0,.94-2.64l1.93-.48a.32.32,0,0,0,.24-.32l-.08-1.6a.33.33,0,0,0-.27-.3l-2-.28a7.28,7.28,0,0,0-1.2-2.53l1-1.7a.34.34,0,0,0-.06-.4l-1.19-1.07a.32.32,0,0,0-.4,0l-1.6,1.19a7.47,7.47,0,0,0-2.63-.94L26.07,16a.31.31,0,0,0-.32-.24l-1.61.08a.31.31,0,0,0-.29.27l-.29,2A7.41,7.41,0,0,0,21,19.24l-1.71-1a.31.31,0,0,0-.39.06l-1.08,1.19a.32.32,0,0,0,0,.4L19,21.46a7.14,7.14,0,0,0-.94,2.64l-1.93.48a.31.31,0,0,0-.24.32L16,26.5a.32.32,0,0,0,.27.3l2,.28a7.22,7.22,0,0,0,1.21,2.53l-1,1.7a.33.33,0,0,0,.06.4l1.19,1.07a.32.32,0,0,0,.4,0l1.6-1.19a7.28,7.28,0,0,0,2.63.94l.48,1.92a.31.31,0,0,0,.32.24"/><path class="cls-2" d="M20.87,25.22a4.56,4.56,0,1,0,4.56-4.56,4.56,4.56,0,0,0-4.56,4.56"/><text class="cls-3" transform="translate(43.64 21.28) scale(1.03 1)"> </text></g></g></svg>