<svg xmlns="http://www.w3.org/2000/svg" xmlns:xlink="http://www.w3.org/1999/xlink" width="261.573" height="90" viewBox="0 0 261.573 90">
  <defs>
    <clipPath id="clip-path">
      <rect width="261.573" height="90" fill="none"/>
    </clipPath>
  </defs>
  <g id="Component" clip-path="url(#clip-path)">
    <path id="Path_64" data-name="Path 64" d="M38.545,11.938s-5.807-2.543-15.53-2.543h0c-9.723,0-15.534,2.543-15.534,2.543S6.96,23.2,9.163,29.569A23.556,23.556,0,0,0,23.01,43.915h.006A23.561,23.561,0,0,0,36.863,29.569c2.2-6.367,1.683-17.631,1.683-17.631" transform="translate(-6.315 -8.287)" fill="#e2001b"/>
    <path id="Path_65" data-name="Path 65" d="M39.555,11.484c-.1-.045-6.057-2.635-15.976-2.635h0c-9.919,0-15.877,2.59-15.98,2.635l-.633.276-.03.69c0,.014-.053,1.183-.053,2.984.006,3.834.217,10.457,1.8,15.063l.014.043L8.678,30.5a24.67,24.67,0,0,0,8.773,11.9,22.051,22.051,0,0,0,5.787,3.138l.164.051h.349l.162-.051A21.982,21.982,0,0,0,29.7,42.4a24.688,24.688,0,0,0,8.775-11.9l0,0c1.577-4.6,1.79-11.21,1.8-15.051,0-1.806-.055-2.982-.055-3l-2.223.1s.014.274.028.779.026,1.234.026,2.113c.008,3.723-.26,10.273-1.677,14.324v0A22.711,22.711,0,0,1,24.722,42.8c-.471.223-.85.378-1.108.479l-.286.106-.081.026.335,1.062V43.365h-.006v1.112l.333-1.062-.081-.026A20.951,20.951,0,0,1,18.232,40.2a22.415,22.415,0,0,1-7.455-10.433v0C9.36,25.712,9.09,19.15,9.1,15.434c0-.879.01-1.6.024-2.1s.026-.775.026-.775L8.039,12.5l.447,1.019.047-.02c.574-.237,6.11-2.43,15.043-2.43l0,0a48.34,48.34,0,0,1,11.156,1.24c1.295.309,2.292.617,2.955.842.333.116.583.209.747.274l.181.071.047.02Z" transform="translate(-6.878 -8.849)" fill="#fff"/>
    <path id="Path_66" data-name="Path 66" d="M30.685,19.1v6.207h-7.24v7.24H17.238v-7.24H10V19.1h7.238V11.866h6.207V19.1Z" transform="translate(-3.663 -5.742)" fill="#fff"/>
    <path id="Path_67" data-name="Path 67" d="M140.528,38.825c0,.6-.037,2.02-1.662,2.02-.635,0-1.161-.274-1.161-1.013,0-1.226,1.427-1.35,2.624-1.35h.2Zm.063,2.478h.678a8.264,8.264,0,0,1-.053-1.173V37.66c0-1.457-.581-2.085-1.965-2.085a4.348,4.348,0,0,0-1.648.388v.666a2.981,2.981,0,0,1,1.648-.463c.934,0,1.277.485,1.277,1.441v.284h-.134c-1.449,0-3.449.089-3.449,1.963,0,.507.254,1.583,1.845,1.583a1.975,1.975,0,0,0,1.778-1.031h.022Zm-7.713,0h.686V38.539c0-1.009.3-2.239,1.394-2.239l.507.065v-.723l-.485-.067a1.656,1.656,0,0,0-1.435,1.208h-.022V35.708h-.69a9.888,9.888,0,0,1,.045,1.25Zm-6.235,0h4.171v-.589h-3.371l3.371-4.415v-.593h-4.039V36.3h3.235l-3.367,4.423Zm-2.076-8.009h-.692v.922h.692Zm-.688,8.009h.69v-5.6h-.69Zm-1.815-5.6h-.723l-1.626,4.841h-.022l-1.547-4.841h-.755l1.9,5.6h.814Zm-9.516,5.466a4.234,4.234,0,0,0,1.571.264c.846,0,1.953-.406,1.953-1.591,0-1.835-2.756-1.7-2.756-2.746,0-.71.5-.934,1.21-.934a3.254,3.254,0,0,1,1.238.266l.067-.6a4.408,4.408,0,0,0-1.382-.254c-.924,0-1.821.416-1.821,1.524,0,1.626,2.687,1.419,2.687,2.746,0,.635-.581,1-1.24,1a3.335,3.335,0,0,1-1.459-.349ZM102.2,41.3h.69v-3.1c0-.932.394-2.042,1.658-2.042.954,0,1.329.684,1.329,1.733v3.4h.688V37.727c0-1.232-.526-2.152-1.91-2.152a1.773,1.773,0,0,0-1.811,1.131h-.022v-1h-.668c.045.451.045.889.045,1.319Zm-2.582-5.6h-.69v3.1c0,.932-.394,2.042-1.656,2.042-.958,0-1.329-.678-1.329-1.735v-3.4h-.69v3.578c0,1.228.526,2.152,1.908,2.152a1.779,1.779,0,0,0,1.813-1.131H99v1h.666c-.043-.449-.043-.889-.043-1.315ZM92.66,33.294h-.69v.922h.69ZM91.97,41.3h.69v-5.6h-.69Zm-6.233,0h4.169v-.589H86.537L89.906,36.3v-.593H85.869V36.3H89.1l-3.367,4.423Zm-2.669-2.478c0,.6-.032,2.02-1.656,2.02-.639,0-1.165-.274-1.165-1.013,0-1.226,1.429-1.35,2.624-1.35h.2Zm.069,2.478h.678a7.675,7.675,0,0,1-.057-1.173V37.66c0-1.457-.581-2.085-1.963-2.085a4.32,4.32,0,0,0-1.646.388v.666a2.975,2.975,0,0,1,1.646-.463c.934,0,1.273.485,1.273,1.441v.284h-.132c-1.447,0-3.445.089-3.445,1.963,0,.507.252,1.583,1.845,1.583a1.976,1.976,0,0,0,1.776-1.031h.024Zm-7.717,0h.69V38.539c0-1.009.294-2.239,1.392-2.239l.505.065v-.723l-.483-.067a1.663,1.663,0,0,0-1.437,1.208h-.02V35.708h-.692a9.889,9.889,0,0,1,.045,1.25Zm-6-3.191a1.834,1.834,0,0,1,1.648-1.947c1.033,0,1.429.968,1.429,1.947Zm3.416,2.316a3.624,3.624,0,0,1-1.571.416,1.892,1.892,0,0,1-1.845-2.139h3.834v-.353c0-1.5-.65-2.777-2.229-2.777-1.415,0-2.361,1.218-2.361,2.931,0,1.679.69,2.931,2.545,2.931a4.6,4.6,0,0,0,1.626-.309ZM62.567,38.507c0-1.088.339-2.34,1.656-2.34,1.23,0,1.66,1.319,1.66,2.34s-.43,2.338-1.66,2.338c-1.317,0-1.656-1.252-1.656-2.338m4-5.432h-.686v3.576h-.024a1.882,1.882,0,0,0-1.746-1.076c-1.648,0-2.306,1.23-2.306,2.931,0,1.66.767,2.931,2.306,2.931a1.8,1.8,0,0,0,1.746-1.021h.024V41.3h.686ZM56.145,38.113a1.834,1.834,0,0,1,1.646-1.947c1.031,0,1.427.968,1.427,1.947Zm3.414,2.316a3.623,3.623,0,0,1-1.569.416,1.89,1.89,0,0,1-1.845-2.139h3.832v-.353c0-1.5-.647-2.777-2.229-2.777-1.417,0-2.359,1.218-2.359,2.931,0,1.679.688,2.931,2.543,2.931a4.622,4.622,0,0,0,1.626-.309Zm-7.78.875h.688v-5H53.73v-.593H52.467v-.481c0-.672-.1-1.691.844-1.691l.55.12.045-.6a1.586,1.586,0,0,0-.647-.11c-1.437,0-1.48,1.183-1.48,2.359v.406H50.646V36.3h1.133Zm-7.421,0h.688v-3.1c0-.932.4-2.042,1.662-2.042.952,0,1.325.684,1.325,1.733v3.4h.692V37.727c0-1.232-.528-2.152-1.91-2.152a1.769,1.769,0,0,0-1.811,1.131h-.022v-1h-.67c.045.451.045.889.045,1.319Zm-6.619-2.8c0-1.295.647-2.34,1.855-2.34s1.855,1.045,1.855,2.34-.648,2.338-1.855,2.338-1.855-1.043-1.855-2.338m-.757,0c0,1.526.8,2.931,2.612,2.931s2.612-1.4,2.612-2.931-.8-2.931-2.612-2.931-2.612,1.4-2.612,2.931M34.621,33.8a4.987,4.987,0,0,0-1.756-.284A3.7,3.7,0,0,0,29,37.473a3.652,3.652,0,0,0,3.865,3.964,4.145,4.145,0,0,0,1.756-.331l-.045-.656a3.78,3.78,0,0,1-1.711.329,2.98,2.98,0,0,1-3.108-3.306,3.01,3.01,0,0,1,3.108-3.3,3.948,3.948,0,0,1,1.711.329Z" transform="translate(15.903 15.962)" fill="#0b0a0a"/>
    <path id="Path_68" data-name="Path 68" d="M160.127,31.326c0,.6-.03,2.022-1.658,2.022-.635,0-1.163-.276-1.163-1.013,0-1.226,1.427-1.35,2.624-1.35h.2Zm.067,2.48h.678a8.259,8.259,0,0,1-.053-1.173v-2.47c0-1.459-.583-2.083-1.967-2.083a4.361,4.361,0,0,0-1.646.382v.67a2.967,2.967,0,0,1,1.646-.463c.938,0,1.275.485,1.275,1.439v.286h-.132c-1.449,0-3.445.087-3.445,1.963,0,.505.252,1.583,1.845,1.583a1.97,1.97,0,0,0,1.776-1.031h.022Zm-7.713,0h.686V31.042c0-1.009.3-2.241,1.4-2.241l.5.067v-.723l-.483-.065a1.66,1.66,0,0,0-1.439,1.206h-.022V28.213h-.688a9.411,9.411,0,0,1,.047,1.248Zm-6-3.195a1.831,1.831,0,0,1,1.646-1.942c1.031,0,1.427.968,1.427,1.942ZM149.9,32.93a3.577,3.577,0,0,1-1.571.418,1.89,1.89,0,0,1-1.843-2.141h3.828v-.351c0-1.5-.645-2.775-2.227-2.775-1.415,0-2.361,1.214-2.361,2.931,0,1.677.692,2.929,2.547,2.929a4.622,4.622,0,0,0,1.626-.309Zm-9.988.877h4.169v-.591h-3.367l3.367-4.415v-.589h-4.037V28.8h3.235l-3.367,4.425Zm-5.718,0h4.169v-.591h-3.369l3.369-4.415v-.589h-4.037V28.8h3.237l-3.369,4.425ZM132.116,25.8h-.69v.922h.69Zm-.69,8.011h.69V28.213h-.69Zm-1.813-5.594h-.725l-1.622,4.839h-.022L125.7,28.213h-.755l1.9,5.594h.816Zm-10.445,5.4a4.372,4.372,0,0,0,1.731.331,2.245,2.245,0,0,0,2.513-2.164c0-2.241-3.511-2.249-3.511-3.788,0-.986.867-1.315,1.658-1.315a3.125,3.125,0,0,1,1.394.284l.12-.692a4.572,4.572,0,0,0-1.5-.25c-1.35,0-2.424.765-2.424,2,0,2.007,3.511,2.194,3.511,3.7a1.531,1.531,0,0,1-1.725,1.569,3.019,3.019,0,0,1-1.689-.449Zm-9.682-3a1.829,1.829,0,0,1,1.646-1.942c1.033,0,1.427.968,1.427,1.942ZM112.9,32.93a3.561,3.561,0,0,1-1.571.418,1.889,1.889,0,0,1-1.841-2.141h3.828v-.351c0-1.5-.647-2.775-2.227-2.775-1.417,0-2.359,1.214-2.359,2.931,0,1.677.69,2.929,2.545,2.929a4.585,4.585,0,0,0,1.624-.309Zm-10.7.877h.688V30.713c0-.936.4-2.044,1.66-2.044.954,0,1.327.68,1.327,1.737v3.4h.69V30.23c0-1.232-.526-2.15-1.91-2.15a1.773,1.773,0,0,0-1.811,1.127h-.022v-.995h-.67a12.572,12.572,0,0,1,.047,1.315ZM95.58,31.012c0-1.3.645-2.342,1.853-2.342s1.857,1.045,1.857,2.342-.647,2.336-1.857,2.336S95.58,32.3,95.58,31.012m-.755,0c0,1.522.8,2.929,2.608,2.929s2.612-1.407,2.612-2.929-.8-2.931-2.612-2.931-2.608,1.4-2.608,2.931M92.659,25.8h-.69v.922h.69Zm-.69,8.011h.69V28.213h-.69Zm-6.233,0H89.9v-.591H86.536L89.9,28.8v-.589H85.868V28.8H89.1l-3.367,4.425Zm-2.669-2.48c0,.6-.032,2.022-1.656,2.022-.639,0-1.163-.276-1.163-1.013,0-1.226,1.425-1.35,2.622-1.35h.2Zm.067,2.48h.68a7.675,7.675,0,0,1-.057-1.173v-2.47c0-1.459-.581-2.083-1.963-2.083a4.344,4.344,0,0,0-1.646.382v.67a2.958,2.958,0,0,1,1.646-.463c.934,0,1.273.485,1.273,1.439v.286h-.132c-1.447,0-3.442.087-3.442,1.963,0,.505.248,1.583,1.839,1.583a1.97,1.97,0,0,0,1.78-1.031h.022Zm-7.715,0h.69V31.042c0-1.009.3-2.241,1.4-2.241l.5.067v-.723l-.483-.065a1.658,1.658,0,0,0-1.437,1.206h-.02V28.213h-.692a9.838,9.838,0,0,1,.045,1.248Zm-5.992-3.195a1.829,1.829,0,0,1,1.644-1.942c1.033,0,1.427.968,1.427,1.942Zm3.412,2.318a3.569,3.569,0,0,1-1.571.418,1.889,1.889,0,0,1-1.841-2.141h3.826v-.351c0-1.5-.645-2.775-2.225-2.775-1.419,0-2.361,1.214-2.361,2.931,0,1.677.692,2.929,2.545,2.929a4.613,4.613,0,0,0,1.626-.309ZM62.566,31.012c0-1.09.339-2.342,1.656-2.342,1.228,0,1.66,1.319,1.66,2.342s-.432,2.336-1.66,2.336c-1.317,0-1.656-1.252-1.656-2.336m4-5.434h-.686v3.576h-.024a1.881,1.881,0,0,0-1.746-1.074c-1.648,0-2.306,1.228-2.306,2.931,0,1.654.767,2.929,2.306,2.929a1.794,1.794,0,0,0,1.746-1.023h.024v.889h.686ZM56.144,30.612a1.832,1.832,0,0,1,1.646-1.942c1.031,0,1.427.968,1.427,1.942Zm3.412,2.318a3.557,3.557,0,0,1-1.565.418,1.891,1.891,0,0,1-1.847-2.141h3.832v-.351c0-1.5-.647-2.775-2.229-2.775-1.417,0-2.361,1.214-2.361,2.931,0,1.677.69,2.929,2.545,2.929a4.6,4.6,0,0,0,1.624-.309Zm-7.78.877h.69V28.8h1.263v-.589H52.466V27.73c0-.672-.1-1.691.844-1.691l.55.12.045-.6a1.59,1.59,0,0,0-.647-.112c-1.437,0-1.482,1.185-1.482,2.361v.408H50.645V28.8h1.131Zm-7.419,0h.688V30.713c0-.936.4-2.044,1.662-2.044.95,0,1.325.68,1.325,1.737v3.4h.692V30.23c0-1.232-.528-2.15-1.91-2.15A1.77,1.77,0,0,0,45,29.207h-.022v-.995h-.67a13.144,13.144,0,0,1,.045,1.315Zm-6.621-2.795c0-1.3.65-2.342,1.857-2.342s1.855,1.045,1.855,2.342-.648,2.336-1.855,2.336-1.857-1.043-1.857-2.336m-.755,0c0,1.522.8,2.929,2.612,2.929s2.61-1.407,2.61-2.929-.8-2.931-2.61-2.931-2.612,1.4-2.612,2.931M34.62,26.3a4.941,4.941,0,0,0-1.756-.284A3.694,3.694,0,0,0,29,29.976a3.651,3.651,0,0,0,3.863,3.964,4.151,4.151,0,0,0,1.756-.331l-.045-.658a3.78,3.78,0,0,1-1.711.329,2.976,2.976,0,0,1-3.106-3.3,3.009,3.009,0,0,1,3.106-3.3A3.948,3.948,0,0,1,34.576,27Z" transform="translate(15.904 8.24)" fill="#0b0a0a"/>
    <path id="Path_69" data-name="Path 69" d="M137.736,23.114a1.832,1.832,0,0,1,1.646-1.945c1.033,0,1.429.97,1.429,1.945Zm3.414,2.318a3.589,3.589,0,0,1-1.571.418,1.893,1.893,0,0,1-1.843-2.141h3.83v-.351c0-1.5-.65-2.777-2.227-2.777-1.419,0-2.359,1.218-2.359,2.929,0,1.681.688,2.931,2.545,2.931a4.637,4.637,0,0,0,1.624-.306Zm-9.363.747a4.237,4.237,0,0,0,1.573.262c.842,0,1.949-.4,1.949-1.591,0-1.833-2.752-1.7-2.752-2.746,0-.71.491-.934,1.208-.934a3.2,3.2,0,0,1,1.24.268l.067-.6a4.476,4.476,0,0,0-1.384-.252c-.924,0-1.821.416-1.821,1.522,0,1.626,2.687,1.419,2.687,2.746,0,.637-.581,1-1.24,1a3.315,3.315,0,0,1-1.459-.351Zm-5.113,0a4.212,4.212,0,0,0,1.571.262c.844,0,1.951-.4,1.951-1.591,0-1.833-2.754-1.7-2.754-2.746,0-.71.493-.934,1.208-.934a3.2,3.2,0,0,1,1.24.268l.065-.6a4.454,4.454,0,0,0-1.38-.252c-.926,0-1.823.416-1.823,1.522,0,1.626,2.689,1.419,2.689,2.746,0,.637-.583,1-1.242,1a3.315,3.315,0,0,1-1.459-.351Zm-2.1-7.882h-.688v.922h.688Zm-.688,8.009h.688v-5.6h-.688Zm-2.582-5.594h-.69v3.093c0,.934-.4,2.044-1.658,2.044-.954,0-1.327-.682-1.327-1.735v-3.4h-.692v3.578c0,1.23.528,2.15,1.91,2.15a1.778,1.778,0,0,0,1.813-1.129h.022v.995h.666c-.043-.449-.043-.887-.043-1.313Zm-9.976,5.466a4.223,4.223,0,0,0,1.569.262c.848,0,1.953-.4,1.953-1.591,0-1.833-2.752-1.7-2.752-2.746,0-.71.493-.934,1.208-.934a3.215,3.215,0,0,1,1.24.268l.065-.6a4.467,4.467,0,0,0-1.384-.252c-.922,0-1.819.416-1.819,1.522,0,1.626,2.687,1.419,2.687,2.746,0,.637-.583,1-1.242,1A3.3,3.3,0,0,1,111.4,25.5Zm-10.35.128h.69V23.213c0-.934.4-2.044,1.66-2.044.952,0,1.325.682,1.325,1.737v3.4h.692V22.73c0-1.23-.528-2.15-1.91-2.15a1.775,1.775,0,0,0-1.811,1.129H101.6v-1h-.668c.043.449.043.889.043,1.315ZM94.36,23.514c0-1.3.647-2.344,1.855-2.344s1.855,1.045,1.855,2.344-.647,2.336-1.855,2.336-1.855-1.043-1.855-2.336m-.757,0c0,1.522.8,2.927,2.612,2.927s2.612-1.4,2.612-2.927-.8-2.933-2.612-2.933-2.612,1.4-2.612,2.933M91.439,18.3h-.69v.922h.69Zm-.688,8.009h.69v-5.6h-.69Zm-2.089-5.594H87.392V19.123l-.692.24v1.35H85.6V21.3h1.1v3.272c0,1.023.045,1.865,1.273,1.865a2.546,2.546,0,0,0,.844-.154l-.045-.57a1.552,1.552,0,0,1-.635.134c-.558,0-.745-.418-.745-.924V21.3h1.271Zm-5.6,3.116c0,.6-.032,2.022-1.658,2.022-.637,0-1.163-.274-1.163-1.013,0-1.228,1.427-1.352,2.624-1.352h.2Zm.067,2.478h.678a7.941,7.941,0,0,1-.055-1.173V22.665c0-1.459-.581-2.085-1.963-2.085a4.421,4.421,0,0,0-1.646.382v.672a2.96,2.96,0,0,1,1.646-.465c.934,0,1.273.485,1.273,1.441V22.9h-.132c-1.447,0-3.445.087-3.445,1.963,0,.507.252,1.581,1.845,1.581a1.972,1.972,0,0,0,1.776-1.031h.022Zm-7.715,0h.69V23.542c0-1.007.294-2.239,1.392-2.239l.505.067v-.723l-.483-.067a1.66,1.66,0,0,0-1.437,1.206h-.02V20.713h-.692a9.854,9.854,0,0,1,.045,1.248ZM70.324,20.13h.505l1.384-1.581h-.867Zm-.9,2.984a1.833,1.833,0,0,1,1.648-1.945c1.031,0,1.427.97,1.427,1.945Zm3.416,2.318a3.6,3.6,0,0,1-1.571.418,1.893,1.893,0,0,1-1.845-2.141h3.83v-.351c0-1.5-.645-2.777-2.227-2.777-1.417,0-2.359,1.218-2.359,2.929,0,1.681.69,2.931,2.545,2.931a4.657,4.657,0,0,0,1.626-.306ZM62.564,23.514c0-1.09.339-2.344,1.658-2.344,1.228,0,1.66,1.321,1.66,2.344s-.432,2.336-1.66,2.336c-1.319,0-1.658-1.252-1.658-2.336m4-5.436h-.686v3.576h-.024a1.884,1.884,0,0,0-1.746-1.074c-1.648,0-2.306,1.228-2.306,2.933,0,1.654.767,2.927,2.306,2.927a1.8,1.8,0,0,0,1.746-1.019h.024v.885h.686ZM57.041,20.13h.507l1.384-1.581h-.869Zm-.9,2.984a1.83,1.83,0,0,1,1.646-1.945c1.031,0,1.427.97,1.427,1.945Zm3.414,2.318a3.6,3.6,0,0,1-1.569.418,1.892,1.892,0,0,1-1.845-2.141h3.83v-.351c0-1.5-.647-2.777-2.229-2.777-1.415,0-2.359,1.218-2.359,2.929,0,1.681.69,2.931,2.545,2.931a4.666,4.666,0,0,0,1.626-.306Zm-7.782.875h.69v-5h1.263v-.591H52.466v-.483c0-.672-.1-1.693.844-1.693l.55.124.045-.6a1.641,1.641,0,0,0-.647-.11c-1.437,0-1.482,1.185-1.482,2.361v.406H50.645V21.3h1.131Zm-7.419,0h.688V23.213c0-.934.4-2.044,1.662-2.044.952,0,1.325.682,1.325,1.737v3.4h.69V22.73c0-1.23-.526-2.15-1.908-2.15A1.771,1.771,0,0,0,45,21.709h-.022v-1h-.67c.045.449.045.889.045,1.315Zm-6.621-2.793c0-1.3.647-2.344,1.857-2.344s1.855,1.045,1.855,2.344S40.8,25.85,39.593,25.85s-1.857-1.043-1.857-2.336m-.755,0c0,1.522.8,2.927,2.612,2.927s2.612-1.4,2.612-2.927-.8-2.933-2.612-2.933-2.612,1.4-2.612,2.933M34.62,18.8a4.987,4.987,0,0,0-1.756-.284A3.693,3.693,0,0,0,29,22.476a3.651,3.651,0,0,0,3.863,3.964,4.149,4.149,0,0,0,1.756-.329l-.045-.658a3.8,3.8,0,0,1-1.711.329,2.979,2.979,0,0,1-3.108-3.306,3.011,3.011,0,0,1,3.108-3.3,3.978,3.978,0,0,1,1.711.329Z" transform="translate(15.904 0.519)" fill="#0b0a0a"/>
    <path id="Path_70" data-name="Path 70" d="M213.352,13.215h-1.273V11.623l-.69.24v1.352h-1.1v.591h1.1v3.272c0,1.021.043,1.863,1.271,1.863a2.546,2.546,0,0,0,.846-.152l-.043-.57a1.645,1.645,0,0,1-.635.134c-.56,0-.749-.418-.749-.926V13.805h1.273Zm-6.44,5.594h.69v-5h1.262v-.591H207.6v-.485c0-.67-.1-1.689.846-1.689l.55.12.043-.6a1.593,1.593,0,0,0-.647-.11c-1.439,0-1.482,1.183-1.482,2.359v.408h-1.131v.591h1.131Zm-3.654-2.48c0,.6-.037,2.024-1.658,2.024-.639,0-1.165-.276-1.165-1.013,0-1.228,1.429-1.352,2.624-1.352h.2Zm.063,2.48H204a7.928,7.928,0,0,1-.055-1.173V15.167c0-1.461-.583-2.085-1.967-2.085a4.489,4.489,0,0,0-1.646.382v.67a2.984,2.984,0,0,1,1.646-.463c.934,0,1.277.485,1.277,1.439V15.4h-.134c-1.449,0-3.447.089-3.447,1.965,0,.507.252,1.579,1.843,1.579a1.97,1.97,0,0,0,1.78-1.029h.02Zm-10.163,0h.692v-3c0-.976.426-2.141,1.658-2.141,1.141,0,1.327.836,1.327,1.8v3.337h.69V15.462c0-1.382-.406-2.379-1.908-2.379a1.9,1.9,0,0,0-1.748,1.074h-.02V10.58h-.692Zm-2.02-5.509a4.321,4.321,0,0,0-1.35-.217,2.711,2.711,0,0,0-2.762,2.931,2.648,2.648,0,0,0,2.673,2.927,4.153,4.153,0,0,0,1.439-.195l-.065-.647a3.636,3.636,0,0,1-1.262.254,2.123,2.123,0,0,1-2.03-2.338,2.084,2.084,0,0,1,2.1-2.342,3.192,3.192,0,0,1,1.2.288Zm-9.306,5.379a4.208,4.208,0,0,0,1.569.262c.846,0,1.953-.4,1.953-1.589,0-1.835-2.754-1.7-2.754-2.744,0-.714.493-.936,1.21-.936a3.27,3.27,0,0,1,1.238.266l.067-.6a4.468,4.468,0,0,0-1.386-.252c-.919,0-1.819.414-1.819,1.524,0,1.624,2.689,1.415,2.689,2.744,0,.637-.583,1-1.242,1A3.343,3.343,0,0,1,181.9,18Zm-6.453.13h.69V15.715c0-.934.394-2.044,1.656-2.044.956,0,1.329.684,1.329,1.737v3.4h.69V15.232c0-1.23-.526-2.15-1.91-2.15a1.772,1.772,0,0,0-1.811,1.129H176v-1h-.67a12.589,12.589,0,0,1,.047,1.315Zm-6-3.191a1.834,1.834,0,0,1,1.648-1.947c1.033,0,1.429.968,1.429,1.947Zm3.414,2.316a3.578,3.578,0,0,1-1.567.418,1.9,1.9,0,0,1-1.847-2.145h3.832v-.347c0-1.5-.65-2.777-2.227-2.777-1.419,0-2.361,1.218-2.361,2.931,0,1.677.69,2.927,2.547,2.927a4.572,4.572,0,0,0,1.622-.306Zm-9.361.745a4.219,4.219,0,0,0,1.567.262c.848,0,1.957-.4,1.957-1.589,0-1.835-2.756-1.7-2.756-2.744,0-.714.493-.936,1.21-.936a3.262,3.262,0,0,1,1.238.266l.067-.6a4.457,4.457,0,0,0-1.384-.252c-.921,0-1.819.414-1.819,1.524,0,1.624,2.687,1.415,2.687,2.744,0,.637-.583,1-1.24,1A3.336,3.336,0,0,1,163.5,18Zm-5.115,0a4.222,4.222,0,0,0,1.569.262c.846,0,1.955-.4,1.955-1.589,0-1.835-2.756-1.7-2.756-2.744,0-.714.493-.936,1.21-.936a3.272,3.272,0,0,1,1.24.266l.065-.6a4.455,4.455,0,0,0-1.382-.252c-.924,0-1.821.414-1.821,1.524,0,1.624,2.687,1.415,2.687,2.744,0,.637-.581,1-1.24,1A3.336,3.336,0,0,1,158.388,18ZM152.2,16.014c0-1.3.65-2.342,1.855-2.342s1.857,1.045,1.857,2.342-.647,2.338-1.857,2.338-1.855-1.045-1.855-2.338m-.753,0c0,1.526.8,2.927,2.608,2.927s2.614-1.4,2.614-2.927-.8-2.931-2.614-2.931-2.608,1.4-2.608,2.931m-6.522,2.795h.69V15.715c0-.934.394-2.044,1.658-2.044.956,0,1.329.684,1.329,1.737v3.4h.69V15.232c0-1.23-.526-2.15-1.91-2.15a1.777,1.777,0,0,0-1.813,1.129h-.022v-1h-.668c.045.449.045.889.045,1.315Zm-5.992-3.191a1.831,1.831,0,0,1,1.644-1.947c1.033,0,1.429.968,1.429,1.947Zm3.414,2.316a3.6,3.6,0,0,1-1.571.418,1.893,1.893,0,0,1-1.843-2.145h3.83v-.347c0-1.5-.647-2.777-2.231-2.777-1.413,0-2.357,1.218-2.357,2.931,0,1.677.69,2.927,2.545,2.927a4.62,4.62,0,0,0,1.626-.306Zm-6.27-4.719h-.69v.633h-.022a1.85,1.85,0,0,0-1.746-.765c-1.646,0-2.306,1.228-2.306,2.931,0,1.24.572,2.795,2.363,2.795a1.737,1.737,0,0,0,1.7-1.094h.02c0,1.579-.15,2.876-1.93,2.876a3.809,3.809,0,0,1-1.648-.4l-.055.69a5.765,5.765,0,0,0,1.691.3c1.922,0,2.622-1.275,2.622-2.829Zm-4,2.8c0-1.088.337-2.342,1.656-2.342,1.263,0,1.658.991,1.658,2.342,0,1.019-.449,2.2-1.7,2.2-1.175,0-1.614-1.108-1.614-2.2m-6.95,0c0-1.088.341-2.342,1.658-2.342,1.23,0,1.658,1.319,1.658,2.342s-.428,2.338-1.658,2.338c-1.317,0-1.658-1.252-1.658-2.338m4.007-5.434h-.69v3.576h-.02a1.887,1.887,0,0,0-1.746-1.074c-1.648,0-2.306,1.228-2.306,2.931,0,1.654.767,2.927,2.306,2.927a1.794,1.794,0,0,0,1.746-1.019h.02v.887h.69ZM122.1,10.8h-.692v.922h.692Zm-.692,8.009h.69v-5.6h-.69Zm-6.254,0h3.883v-.656h-3.128V15.2h2.844v-.658h-2.844V11.806h3V11.15h-3.751Zm-9.968-3.191a1.832,1.832,0,0,1,1.646-1.947c1.031,0,1.427.968,1.427,1.947Zm3.414,2.316a3.6,3.6,0,0,1-1.569.418,1.893,1.893,0,0,1-1.845-2.145h3.83v-.347c0-1.5-.645-2.777-2.229-2.777-1.415,0-2.361,1.218-2.361,2.931,0,1.677.694,2.927,2.549,2.927a4.6,4.6,0,0,0,1.624-.306Zm-10.7.875h.69v-3c0-.976.426-2.141,1.656-2.141,1.145,0,1.329.836,1.329,1.8v3.337h.692V15.462c0-1.382-.408-2.379-1.91-2.379a1.907,1.907,0,0,0-1.748,1.074h-.02V10.58H97.9ZM95.882,13.3a4.312,4.312,0,0,0-1.352-.217,2.71,2.71,0,0,0-2.763,2.931,2.649,2.649,0,0,0,2.677,2.927,4.148,4.148,0,0,0,1.437-.195l-.069-.647a3.606,3.606,0,0,1-1.26.254,2.123,2.123,0,0,1-2.03-2.338,2.085,2.085,0,0,1,2.1-2.342,3.193,3.193,0,0,1,1.2.288Zm-9.308,5.379a4.233,4.233,0,0,0,1.571.262c.846,0,1.953-.4,1.953-1.589,0-1.835-2.754-1.7-2.754-2.744,0-.714.5-.936,1.206-.936a3.248,3.248,0,0,1,1.24.266l.067-.6a4.436,4.436,0,0,0-1.382-.252c-.924,0-1.821.414-1.821,1.524,0,1.624,2.687,1.415,2.687,2.744,0,.637-.583,1-1.24,1A3.343,3.343,0,0,1,86.64,18ZM84.478,10.8h-.692v.922h.692Zm-.692,8.009h.692v-5.6h-.692Zm-4.5,0h.692V16.044c0-1.009.3-2.239,1.394-2.239l.5.067V13.15l-.481-.067a1.656,1.656,0,0,0-1.437,1.206h-.024V13.215h-.69a10.288,10.288,0,0,1,.043,1.248Zm-5.99-3.191a1.831,1.831,0,0,1,1.644-1.947c1.033,0,1.429.968,1.429,1.947Zm3.412,2.316a3.587,3.587,0,0,1-1.569.418,1.893,1.893,0,0,1-1.843-2.145h3.83v-.347c0-1.5-.647-2.777-2.229-2.777-1.415,0-2.361,1.218-2.361,2.931,0,1.677.692,2.927,2.545,2.927a4.6,4.6,0,0,0,1.626-.306Zm-9.986.875h4.169v-.591H67.52l3.369-4.413v-.591H66.854v.591h3.233L66.72,18.228ZM64.644,10.8h-.69v.922h.69Zm-.69,8.009h.69v-5.6h-.69ZM57.96,15.618a1.834,1.834,0,0,1,1.648-1.947c1.031,0,1.427.968,1.427,1.947Zm3.414,2.316a3.6,3.6,0,0,1-1.569.418,1.894,1.894,0,0,1-1.845-2.145h3.83v-.347c0-1.5-.645-2.777-2.225-2.777-1.419,0-2.361,1.218-2.361,2.931,0,1.677.688,2.927,2.547,2.927a4.581,4.581,0,0,0,1.622-.306ZM55.83,13.215h-.69l-1.547,4.839h-.024l-1.48-4.839h-.834l-1.561,4.839h-.02L48.2,13.215h-.755l1.8,5.594h.836l1.524-4.839h.022l1.524,4.839h.836ZM41.289,18.809h.69v-3c0-.976.428-2.141,1.658-2.141,1.139,0,1.329.836,1.329,1.8v3.337h.69V15.462c0-1.382-.406-2.379-1.91-2.379A1.9,1.9,0,0,0,42,14.156h-.022V10.58h-.69ZM39.269,13.3a4.3,4.3,0,0,0-1.35-.217,2.713,2.713,0,0,0-2.767,2.931,2.652,2.652,0,0,0,2.679,2.927,4.161,4.161,0,0,0,1.437-.195L39.2,18.1a3.628,3.628,0,0,1-1.265.254,2.124,2.124,0,0,1-2.03-2.338,2.086,2.086,0,0,1,2.107-2.342,3.182,3.182,0,0,1,1.2.288Zm-10.24,5.314a4.383,4.383,0,0,0,1.733.327,2.244,2.244,0,0,0,2.513-2.162c0-2.237-3.514-2.249-3.514-3.786,0-.988.871-1.317,1.662-1.317a3.116,3.116,0,0,1,1.392.284l.118-.69a4.553,4.553,0,0,0-1.5-.252c-1.35,0-2.426.765-2.426,2,0,2.009,3.516,2.2,3.516,3.7A1.531,1.531,0,0,1,30.8,18.285a3.008,3.008,0,0,1-1.689-.451Z" transform="translate(15.91 -7.202)" fill="#0b0a0a"/>
    <path id="Path_71" data-name="Path 71" d="M30.939,48.838l-1.191-1.581h.964l.759.932.737-.932h.964l-1.139,1.581Zm2.428,1.876a4.043,4.043,0,0,0-1.539-.325l-.392.043-.388.162-.294.325a1.1,1.1,0,0,0-.12.522l.154.4.378.292.256.124.286.114L32,52.49l.3.132a4.455,4.455,0,0,1,.607.282l.532.422.211.26.168.317a2.359,2.359,0,0,1,.132.834,1.973,1.973,0,0,1-.836,1.756,3.563,3.563,0,0,1-2.005.528L30.575,57l-.451-.065-.445-.091-.509-.114.142-1.366a3.591,3.591,0,0,0,1.713.465,1.845,1.845,0,0,0,.9-.237.806.806,0,0,0,.445-.737l-.13-.465-.38-.327-.538-.254c-.191-.085-.39-.164-.6-.246l-.3-.14-.294-.162a3,3,0,0,1-.542-.39l-.209-.262-.168-.313a2,2,0,0,1-.152-.792,2.051,2.051,0,0,1,.834-1.8A3.293,3.293,0,0,1,31.7,49.2a5.675,5.675,0,0,1,1.806.27Z" transform="translate(15.957 30.702)" fill="#0b0a0a"/>
    <path id="Path_72" data-name="Path 72" d="M31.776,49.254h1.561l1.387,4.064h.022l1.343-4.064h1.454l-2.061,5.582H33.846Z" transform="translate(18.761 32.758)" fill="#0b0a0a"/>
    <path id="Path_73" data-name="Path 73" d="M35.065,50.473h1.451v5.584H35.065Zm0-2.405h1.451v1.388H35.065Z" transform="translate(22.148 31.537)" fill="#0b0a0a"/>
    <path id="Path_74" data-name="Path 74" d="M40.335,50.523l-.412-.15-.26-.039-.315-.014a1.356,1.356,0,0,0-1.062.475,1.9,1.9,0,0,0-.412,1.289,2.122,2.122,0,0,0,.378,1.293,1.323,1.323,0,0,0,1.129.528,2.1,2.1,0,0,0,.629-.1,2.786,2.786,0,0,0,.489-.164l.063,1.2a3.319,3.319,0,0,1-.65.13l-.373.039-.428.014a2.518,2.518,0,0,1-2.05-.844,3.11,3.11,0,0,1-.7-2.1,3.053,3.053,0,0,1,.7-2.058,2.547,2.547,0,0,1,2-.836,4.77,4.77,0,0,1,1.409.185Z" transform="translate(23.478 32.692)" fill="#0b0a0a"/>
    <path id="Path_75" data-name="Path 75" d="M40.114,53.286a.553.553,0,0,0,.272.509,1.089,1.089,0,0,0,.652.173,1.2,1.2,0,0,0,1.017-.5,2.056,2.056,0,0,0,.3-1.149h-.875l-.132.006-.132.016-.53.128-.4.294a.724.724,0,0,0-.175.52m-.779-3.674a5.013,5.013,0,0,1,1.93-.422,2.062,2.062,0,0,1,2.393,2.35v.717c0,.274,0,.528.006.757s.01.447.016.641c.006.4.028.82.065,1.244H42.487a6.689,6.689,0,0,1-.063-.832H42.4a1.808,1.808,0,0,1-.727.7,2.063,2.063,0,0,1-1,.26,2.3,2.3,0,0,1-1.334-.434,1.451,1.451,0,0,1-.617-1.224,1.74,1.74,0,0,1,.282-1.019,1.551,1.551,0,0,1,.672-.572,2.926,2.926,0,0,1,.922-.272l.487-.039.467-.016h.8a1.216,1.216,0,0,0-.3-.944,1.479,1.479,0,0,0-.954-.258,2.8,2.8,0,0,0-1.721.6Z" transform="translate(25.92 32.692)" fill="#0b0a0a"/>
    <path id="Path_76" data-name="Path 76" d="M41.889,49.321H43.18V50.59h.02a1.869,1.869,0,0,1,.477-.9,1.356,1.356,0,0,1,1.049-.5l.449.045V50.7a1.429,1.429,0,0,0-.652-.122.917.917,0,0,0-.674.24,1.259,1.259,0,0,0-.355.6,2.779,2.779,0,0,0-.132.737l-.016.363-.006.341V54.9H41.889Z" transform="translate(29.175 32.692)" fill="#0b0a0a"/>
    <path id="Path_77" data-name="Path 77" d="M47.448,50.489c-.225-.079-.426-.14-.607-.185l-.321-.037-.373-.016-.564.118a.554.554,0,0,0-.292.5.507.507,0,0,0,.4.445l.189.075.221.065.229.071.227.079.475.2.392.3.294.447a2.085,2.085,0,0,1,.1.662,1.577,1.577,0,0,1-.717,1.4,3.115,3.115,0,0,1-1.626.422,6.975,6.975,0,0,1-1.646-.237l.085-1.194a2.928,2.928,0,0,0,1.431.367,1.485,1.485,0,0,0,.617-.15.549.549,0,0,0,.337-.532l-.1-.357-.292-.205-.4-.148-.467-.134-.227-.087-.225-.1-.223-.124-.191-.158-.28-.434a1.43,1.43,0,0,1-.12-.617,1.469,1.469,0,0,1,.682-1.321,2.728,2.728,0,0,1,1.506-.412l.477.014.414.039.357.071.333.083Z" transform="translate(31.116 32.693)" fill="#0b0a0a"/>
    <path id="Path_78" data-name="Path 78" d="M46.336,48h1.452v4.78h.022l1.734-2.232h1.712l-2.081,2.494,2.343,3.088H49.675l-1.865-2.71h-.022v2.71H46.336Z" transform="translate(33.755 31.466)" fill="#0b0a0a"/>
    <path id="Path_79" data-name="Path 79" d="M50.5,53.286a.551.551,0,0,0,.274.509,1.078,1.078,0,0,0,.65.173,1.2,1.2,0,0,0,1.017-.5,2.056,2.056,0,0,0,.3-1.149h-.875l-.132.006-.128.016-.534.128-.4.294a.724.724,0,0,0-.175.52m-.779-3.674a5.023,5.023,0,0,1,1.932-.422,2.062,2.062,0,0,1,2.391,2.35v.717c0,.274,0,.528.006.757s.01.447.016.641c.006.4.028.82.065,1.244H52.872a6.691,6.691,0,0,1-.063-.832h-.022a1.808,1.808,0,0,1-.727.7,2.055,2.055,0,0,1-.995.26A2.307,2.307,0,0,1,49.73,54.6a1.451,1.451,0,0,1-.617-1.224,1.74,1.74,0,0,1,.282-1.019,1.551,1.551,0,0,1,.672-.572,2.926,2.926,0,0,1,.922-.272l.487-.039.467-.016h.8a1.216,1.216,0,0,0-.3-.944,1.472,1.472,0,0,0-.952-.258,2.806,2.806,0,0,0-1.723.6Z" transform="translate(36.614 32.692)" fill="#0b0a0a"/>
    <path id="Path_80" data-name="Path 80" d="M54.954,53.286a.556.556,0,0,0,.27.509,1.089,1.089,0,0,0,.652.173,1.205,1.205,0,0,0,1.019-.5,2.073,2.073,0,0,0,.3-1.149H56.32l-.13.006-.132.016-.532.128-.4.294a.724.724,0,0,0-.173.52m-.781-3.674a5.029,5.029,0,0,1,1.93-.422,2.064,2.064,0,0,1,2.4,2.35v.717c0,.274,0,.528.006.757s.008.447.016.641c.006.4.028.82.063,1.244H57.325a7.046,7.046,0,0,1-.061-.832h-.022a1.808,1.808,0,0,1-.727.7,2.065,2.065,0,0,1-1,.26,2.3,2.3,0,0,1-1.332-.434,1.457,1.457,0,0,1-.619-1.224,1.712,1.712,0,0,1,.284-1.019,1.546,1.546,0,0,1,.67-.572,2.942,2.942,0,0,1,.922-.272l.489-.039.467-.016h.8a1.223,1.223,0,0,0-.3-.944,1.483,1.483,0,0,0-.954-.258,2.81,2.81,0,0,0-1.723.6Z" transform="translate(41.2 32.692)" fill="#0b0a0a"/>
    <path id="Path_81" data-name="Path 81" d="M59.287,53.776a1.1,1.1,0,0,0,.986-.522,2.277,2.277,0,0,0,.292-1.2,2.459,2.459,0,0,0-.28-1.224,1.032,1.032,0,0,0-.932-.509,1.064,1.064,0,0,0-1.009.55,2.345,2.345,0,0,0-.294,1.214,2.192,2.192,0,0,0,.317,1.129l.388.4a.921.921,0,0,0,.532.162m2.732-4.455v5.04l0,.278L62,54.915l-.1.542a2.485,2.485,0,0,1-.475.942,2.161,2.161,0,0,1-.9.652,4.077,4.077,0,0,1-1.451.258,5.465,5.465,0,0,1-1.93-.38l.118-1.234a5.178,5.178,0,0,0,.816.325,2.885,2.885,0,0,0,.812.162,2.243,2.243,0,0,0,.954-.205,1.309,1.309,0,0,0,.5-.52,2.271,2.271,0,0,0,.207-.7l.016-.369,0-.369h-.02a1.611,1.611,0,0,1-.652.617,2.015,2.015,0,0,1-1.082.272,1.921,1.921,0,0,1-1.746-.859,3.394,3.394,0,0,1-.532-1.961,3.527,3.527,0,0,1,.566-1.961,2.058,2.058,0,0,1,1.8-.934,1.932,1.932,0,0,1,1.711.889h.022v-.757Z" transform="translate(44.257 32.692)" fill="#0b0a0a"/>
    <path id="Path_82" data-name="Path 82" d="M63.657,51.563a1.561,1.561,0,0,0-.292-.919,1.092,1.092,0,0,0-.889-.392,1.228,1.228,0,0,0-.924.367,1.663,1.663,0,0,0-.367.944Zm.974,3.024a3.778,3.778,0,0,1-1.918.445A2.614,2.614,0,0,1,59.8,52.137a3.309,3.309,0,0,1,.65-2.089,2.324,2.324,0,0,1,1.94-.859,2.36,2.36,0,0,1,2.115.942,4.712,4.712,0,0,1,.542,2.428H61.184a1.412,1.412,0,0,0,.487,1.029,1.645,1.645,0,0,0,1.108.382,2.767,2.767,0,0,0,.995-.175,3.826,3.826,0,0,0,.857-.392Z" transform="translate(47.617 32.693)" fill="#0b0a0a"/>
    <path id="Path_83" data-name="Path 83" d="M62.943,49.321h1.376v.757h.022a2.2,2.2,0,0,1,1.831-.889,1.767,1.767,0,0,1,1.451.621,2.584,2.584,0,0,1,.445,1.569V54.9H66.617V51.651l-.01-.28-.11-.512-.272-.4a.956.956,0,0,0-.55-.142,1.036,1.036,0,0,0-.629.183l-.39.467a1.945,1.945,0,0,0-.195.6,3.029,3.029,0,0,0-.067.607V54.9H62.943Z" transform="translate(50.856 32.692)" fill="#0b0a0a"/>
    <path id="Path_84" data-name="Path 84" d="M70.005,50.523l-.41-.15-.262-.039-.313-.014a1.353,1.353,0,0,0-1.062.475,1.9,1.9,0,0,0-.412,1.289,2.109,2.109,0,0,0,.378,1.293,1.322,1.322,0,0,0,1.127.528,2.1,2.1,0,0,0,.629-.1,2.673,2.673,0,0,0,.489-.164l.065,1.2a3.309,3.309,0,0,1-.652.13l-.373.039-.426.014a2.518,2.518,0,0,1-2.05-.844,3.11,3.11,0,0,1-.7-2.1,3.053,3.053,0,0,1,.7-2.058,2.544,2.544,0,0,1,2-.836,4.77,4.77,0,0,1,1.409.185Z" transform="translate(54.033 32.692)" fill="#0b0a0a"/>
    <path id="Path_85" data-name="Path 85" d="M68.592,50.473h1.453v5.584H68.592Zm0-2.405h1.453v1.388H68.592Z" transform="translate(56.673 31.537)" fill="#0b0a0a"/>
    <path id="Path_86" data-name="Path 86" d="M70.554,48.069h1.451v1.388H70.554Zm-.889,9.266a.991.991,0,0,0,.747-.227,1.573,1.573,0,0,0,.142-.834v-5.8h1.451v5.992l-.014.306-.039.325a2.353,2.353,0,0,1-.237.66,1.474,1.474,0,0,1-.5.5,2.013,2.013,0,0,1-.887.205,2.8,2.8,0,0,1-.714-.085Z" transform="translate(57.723 31.538)" fill="#0b0a0a"/>
    <path id="Path_87" data-name="Path 87" d="M72.756,53.286a.556.556,0,0,0,.27.509,1.084,1.084,0,0,0,.652.173,1.208,1.208,0,0,0,1.019-.5,2.09,2.09,0,0,0,.3-1.149H74.12l-.128.006-.132.016-.532.128-.4.294a.724.724,0,0,0-.173.52m-.781-3.674a5.031,5.031,0,0,1,1.932-.422,2.064,2.064,0,0,1,2.393,2.35v.717c0,.274,0,.528.006.757s.008.447.014.641c.008.4.03.82.065,1.244H75.127a7.046,7.046,0,0,1-.061-.832h-.024a1.79,1.79,0,0,1-.725.7,2.071,2.071,0,0,1-1,.26,2.3,2.3,0,0,1-1.332-.434,1.457,1.457,0,0,1-.619-1.224,1.726,1.726,0,0,1,.282-1.019,1.552,1.552,0,0,1,.672-.572,2.926,2.926,0,0,1,.922-.272l.489-.039.467-.016H75a1.231,1.231,0,0,0-.3-.944,1.489,1.489,0,0,0-.956-.258,2.809,2.809,0,0,0-1.721.6Z" transform="translate(59.531 32.692)" fill="#0b0a0a"/>
    <path id="Path_88" data-name="Path 88" d="M75.941,49.254h4.422v1.194l-2.774,3.261h2.872v1.127H75.821V53.653l2.83-3.272h-2.71Z" transform="translate(64.117 32.758)" fill="#0b0a0a"/>
    <path id="Path_89" data-name="Path 89" d="M79.877,53.286a.551.551,0,0,0,.274.509,1.078,1.078,0,0,0,.65.173,1.205,1.205,0,0,0,1.019-.5,2.073,2.073,0,0,0,.3-1.149h-.879l-.13.006-.128.016-.534.128-.4.294a.724.724,0,0,0-.175.52M79.1,49.612a5.023,5.023,0,0,1,1.932-.422,2.06,2.06,0,0,1,2.391,2.35v.717c0,.274,0,.528.008.757s.008.447.016.641c0,.4.026.82.063,1.244H82.25a6.688,6.688,0,0,1-.063-.832h-.024a1.778,1.778,0,0,1-.725.7,2.055,2.055,0,0,1-.995.26A2.3,2.3,0,0,1,79.11,54.6a1.452,1.452,0,0,1-.619-1.224,1.726,1.726,0,0,1,.282-1.019,1.563,1.563,0,0,1,.672-.572,2.926,2.926,0,0,1,.922-.272l.487-.039.467-.016h.8a1.223,1.223,0,0,0-.3-.944,1.482,1.482,0,0,0-.954-.258,2.806,2.806,0,0,0-1.723.6Z" transform="translate(66.866 32.692)" fill="#0b0a0a"/>
    <path id="Path_90" data-name="Path 90" d="M83.137,49.321h1.289V50.59h.022a1.818,1.818,0,0,1,.477-.9,1.356,1.356,0,0,1,1.049-.5l.447.045V50.7a1.435,1.435,0,0,0-.652-.122.912.912,0,0,0-.672.24,1.264,1.264,0,0,0-.359.6,2.865,2.865,0,0,0-.128.737l-.016.363-.006.341V54.9H83.137Z" transform="translate(71.651 32.692)" fill="#0b0a0a"/>
    <path id="Path_91" data-name="Path 91" d="M86.409,53.286a.549.549,0,0,0,.272.509,1.078,1.078,0,0,0,.65.173,1.21,1.21,0,0,0,1.019-.5,2.056,2.056,0,0,0,.3-1.149h-.877l-.132.006-.13.016-.532.128-.4.294a.724.724,0,0,0-.173.52m-.781-3.674a5.023,5.023,0,0,1,1.932-.422,2.062,2.062,0,0,1,2.391,2.35v.717c0,.274,0,.528.008.757s.008.447.014.641c.008.4.028.82.067,1.244H88.782a6.418,6.418,0,0,1-.067-.832h-.02a1.8,1.8,0,0,1-.727.7,2.05,2.05,0,0,1-.995.26A2.3,2.3,0,0,1,85.64,54.6a1.457,1.457,0,0,1-.619-1.224,1.74,1.74,0,0,1,.282-1.019,1.563,1.563,0,0,1,.672-.572,2.93,2.93,0,0,1,.919-.272l.491-.039.465-.016h.8a1.223,1.223,0,0,0-.3-.944,1.483,1.483,0,0,0-.954-.258,2.806,2.806,0,0,0-1.723.6Z" transform="translate(73.591 32.692)" fill="#0b0a0a"/>
    <path id="Path_92" data-name="Path 92" d="M88.108,49.254H92.53v1.194l-2.774,3.261h2.872v1.127H87.99V53.653l2.828-3.272h-2.71Z" transform="translate(76.648 32.758)" fill="#0b0a0a"/>
    <path id="Path_93" data-name="Path 93" d="M90.532,49.254h1.561l1.387,4.064H93.5l1.343-4.064H96.3l-2.058,5.582H92.6Z" transform="translate(79.266 32.758)" fill="#0b0a0a"/>
    <path id="Path_94" data-name="Path 94" d="M95.146,51.975l.008.162.014.162.02.173.032.177a2.122,2.122,0,0,0,.217.627l.434.445a1.174,1.174,0,0,0,.672.185,1.281,1.281,0,0,0,.7-.175l.434-.445a1.781,1.781,0,0,0,.217-.629l.039-.339.014-.343a1.964,1.964,0,0,0-.335-1.161,1.318,1.318,0,0,0-1.072-.5,1.22,1.22,0,0,0-1.039.512,1.865,1.865,0,0,0-.359,1.147m-1.518.173a2.875,2.875,0,0,1,.846-2.178,3,3,0,0,1,2.07-.779,2.968,2.968,0,0,1,2.093.779,2.918,2.918,0,0,1,.832,2.178,2.748,2.748,0,0,1-2.925,2.884,2.8,2.8,0,0,1-2.147-.844,2.879,2.879,0,0,1-.769-2.04" transform="translate(82.454 32.693)" fill="#0b0a0a"/>
    <path id="Path_95" data-name="Path 95" d="M97.561,48.069h1.453v1.388H97.561Zm-.889,9.266a.991.991,0,0,0,.747-.227,1.534,1.534,0,0,0,.142-.834v-5.8h1.453v5.992L99,56.773l-.039.325a2.293,2.293,0,0,1-.24.66,1.491,1.491,0,0,1-.5.5,2.044,2.044,0,0,1-.889.205,2.82,2.82,0,0,1-.716-.085Z" transform="translate(85.534 31.538)" fill="#0b0a0a"/>
    <path id="Path_96" data-name="Path 96" d="M100.052,50.473H101.5v5.584h-1.451Zm0-2.405H101.5v1.388h-1.451Z" transform="translate(89.069 31.537)" fill="#0b0a0a"/>
    <path id="Path_97" data-name="Path 97" d="M106.5,50.489c-.225-.079-.426-.14-.607-.185l-.321-.037-.373-.016-.564.118a.549.549,0,0,0-.29.5.5.5,0,0,0,.4.445l.191.075.221.065.229.071.227.079.475.2.392.3.292.447a2.026,2.026,0,0,1,.1.662,1.577,1.577,0,0,1-.716,1.4,3.113,3.113,0,0,1-1.624.422,6.962,6.962,0,0,1-1.648-.237l.087-1.194a2.921,2.921,0,0,0,1.429.367,1.485,1.485,0,0,0,.617-.15.547.547,0,0,0,.337-.532l-.1-.357-.292-.205-.4-.148-.467-.134-.227-.087-.225-.1-.225-.124-.189-.158-.282-.434a1.636,1.636,0,0,1,.564-1.938,2.728,2.728,0,0,1,1.506-.412l.479.014.412.039.357.071.333.083Z" transform="translate(91.929 32.693)" fill="#0b0a0a"/>
    <path id="Path_98" data-name="Path 98" d="M106.586,53.286a.553.553,0,0,0,.272.509,1.075,1.075,0,0,0,.647.173,1.2,1.2,0,0,0,1.019-.5,2.058,2.058,0,0,0,.3-1.149h-.879l-.13.006-.13.016-.528.128-.4.294a.724.724,0,0,0-.173.52m-.779-3.674a5.013,5.013,0,0,1,1.93-.422,2.063,2.063,0,0,1,2.393,2.35v.717c0,.274,0,.528,0,.757s.01.447.018.641c.006.4.028.82.063,1.244h-1.256a6.742,6.742,0,0,1-.065-.832h-.022a1.79,1.79,0,0,1-.725.7,2.071,2.071,0,0,1-1,.26,2.3,2.3,0,0,1-1.332-.434,1.451,1.451,0,0,1-.617-1.224,1.74,1.74,0,0,1,.282-1.019,1.546,1.546,0,0,1,.67-.572,2.91,2.91,0,0,1,.922-.272l.489-.039.465-.016h.8a1.208,1.208,0,0,0-.3-.944,1.479,1.479,0,0,0-.954-.258,2.809,2.809,0,0,0-1.721.6Z" transform="translate(94.37 32.692)" fill="#0b0a0a"/>
    <path id="Path_99" data-name="Path 99" d="M108.36,49.321h1.289V50.59h.022a1.852,1.852,0,0,1,.477-.9,1.36,1.36,0,0,1,1.051-.5l.444.045V50.7a1.408,1.408,0,0,0-.65-.122.908.908,0,0,0-.672.24,1.264,1.264,0,0,0-.359.6,2.954,2.954,0,0,0-.13.737l-.016.363-.006.341V54.9H108.36Z" transform="translate(97.624 32.692)" fill="#0b0a0a"/>
    <path id="Path_100" data-name="Path 100" d="M111.631,53.286a.553.553,0,0,0,.272.509,1.082,1.082,0,0,0,.65.173,1.212,1.212,0,0,0,1.021-.5,2.071,2.071,0,0,0,.3-1.149H113l-.132.006-.128.016-.53.128-.4.294a.724.724,0,0,0-.175.52m-.779-3.674a5.023,5.023,0,0,1,1.932-.422,2.062,2.062,0,0,1,2.391,2.35v.717c0,.274,0,.528,0,.757s.012.447.018.641c.006.4.028.82.065,1.244H114a6.745,6.745,0,0,1-.065-.832h-.022a1.778,1.778,0,0,1-.725.7,2.063,2.063,0,0,1-1,.26,2.311,2.311,0,0,1-1.334-.434,1.456,1.456,0,0,1-.617-1.224,1.726,1.726,0,0,1,.282-1.019,1.552,1.552,0,0,1,.672-.572,2.914,2.914,0,0,1,.919-.272l.489-.039.465-.016h.8a1.223,1.223,0,0,0-.3-.944,1.493,1.493,0,0,0-.956-.258,2.8,2.8,0,0,0-1.721.6Z" transform="translate(99.565 32.692)" fill="#0b0a0a"/>
    <path id="Path_101" data-name="Path 101" d="M114.732,53.321a2.5,2.5,0,0,0,.26,1.191l.38.432a.908.908,0,0,0,.585.185,1,1,0,0,0,.619-.185l.388-.432.219-.585.037-.3.018-.3a2.491,2.491,0,0,0-.294-1.181l-.4-.432a1.078,1.078,0,0,0-.6-.162.994.994,0,0,0-.956.595,1.781,1.781,0,0,0-.185.574,3.179,3.179,0,0,0-.063.607m2.555,2.178h-.022a2.127,2.127,0,0,1-1.711.757,2,2,0,0,1-1.809-.9,3.727,3.727,0,0,1-.532-2.038,3.69,3.69,0,0,1,.532-2.038,2.246,2.246,0,0,1,3.477-.087h.022V48H118.7v8.129h-1.409Z" transform="translate(102.623 31.466)" fill="#0b0a0a"/>
    <path id="Path_102" data-name="Path 102" d="M116.652,49.321h1.376v.757h.022a2.2,2.2,0,0,1,1.833-.889,1.772,1.772,0,0,1,1.451.621,2.584,2.584,0,0,1,.445,1.569V54.9h-1.451V51.651l-.012-.28-.11-.512-.27-.4a.963.963,0,0,0-.552-.142,1.036,1.036,0,0,0-.629.183l-.392.467a2.187,2.187,0,0,0-.193.6,3.184,3.184,0,0,0-.067.607V54.9h-1.451Z" transform="translate(106.163 32.692)" fill="#0b0a0a"/>
    <path id="Path_103" data-name="Path 103" d="M120.409,48.069h1.451v1.388h-1.451Zm-.889,9.266a.991.991,0,0,0,.747-.227,1.573,1.573,0,0,0,.142-.834v-5.8h1.451v5.992l-.016.306-.037.325a2.3,2.3,0,0,1-.242.66,1.437,1.437,0,0,1-.5.5,2.023,2.023,0,0,1-.889.205,2.815,2.815,0,0,1-.714-.085Z" transform="translate(109.062 31.538)" fill="#0b0a0a"/>
    <path id="Path_104" data-name="Path 104" d="M126.524,54.836H125.15v-.759h-.02a2.26,2.26,0,0,1-1.835.889,1.687,1.687,0,0,1-1.431-.629,2.473,2.473,0,0,1-.465-1.559V49.254h1.451v2.98l.006.12.016.13v.128l.012.144.1.53.282.392a.8.8,0,0,0,.528.162,1.007,1.007,0,0,0,.664-.207l.38-.465a2.04,2.04,0,0,0,.195-.6l.032-.3.01-.286V49.254h1.451Z" transform="translate(111.051 32.759)" fill="#0b0a0a"/>
    <path id="Path_105" data-name="Path 105" d="M130.4,49.729a4.051,4.051,0,0,0-1.539-.325l-.39.043-.39.162-.294.325a1.1,1.1,0,0,0-.118.522l.152.4.38.292.254.124.286.114.294.118.3.132a4.712,4.712,0,0,1,.609.282l.528.422.211.26.171.317a2.408,2.408,0,0,1,.13.834,1.972,1.972,0,0,1-.834,1.756,3.562,3.562,0,0,1-2.005.528l-.536-.02-.451-.065-.445-.091-.509-.114.142-1.366a3.589,3.589,0,0,0,1.711.465,1.851,1.851,0,0,0,.9-.237.8.8,0,0,0,.442-.737l-.128-.465-.378-.327-.536-.254c-.191-.085-.394-.164-.6-.246l-.3-.14-.292-.162a3.169,3.169,0,0,1-.544-.39l-.209-.262-.168-.313a2.03,2.03,0,0,1-.152-.792,2.052,2.052,0,0,1,.836-1.8,3.286,3.286,0,0,1,1.811-.507,5.705,5.705,0,0,1,1.809.27Z" transform="translate(115.879 31.687)" fill="#0b0a0a"/>
    <path id="Path_106" data-name="Path 106" d="M130.7,54.651h.844a2.59,2.59,0,0,0,0-5.18H130.7Zm-1.518-6.373h2.07a5.524,5.524,0,0,1,3.055.757,2.838,2.838,0,0,1,.964,1.151,4.45,4.45,0,0,1,.347,1.873,4.383,4.383,0,0,1-.347,1.845,2.9,2.9,0,0,1-.964,1.169,3.857,3.857,0,0,1-1.384.595,7.524,7.524,0,0,1-1.67.175h-2.07Z" transform="translate(119.063 31.752)" fill="#0b0a0a"/>
    <path id="Path_107" data-name="Path 107" d="M138.728,55.8a7.369,7.369,0,0,1-1.723.237,4.461,4.461,0,0,1-2.982-.942,3.461,3.461,0,0,1-1.171-2.84q.079-4,4.153-4.043a5.241,5.241,0,0,1,1.713.317l-.11,1.277a3.1,3.1,0,0,0-.822-.335,5.093,5.093,0,0,0-.814-.065,2.349,2.349,0,0,0-1.843.781,2.787,2.787,0,0,0-.694,1.961,2.688,2.688,0,0,0,.682,1.918,2.379,2.379,0,0,0,1.888.779,4.791,4.791,0,0,0,.932-.1l.408-.1.317-.118Z" transform="translate(122.845 31.686)" fill="#0b0a0a"/>
  </g>
</svg>
