<svg xmlns="http://www.w3.org/2000/svg" xmlns:xlink="http://www.w3.org/1999/xlink" width="39.002" height="90" viewBox="0 0 39.002 90">
  <defs>
    <clipPath id="clip-path">
      <rect width="39.002" height="90" fill="none"/>
    </clipPath>
  </defs>
  <g id="Component" clip-path="url(#clip-path)">
    <rect id="Rectangle_1" data-name="Rectangle 1" width="17.781" height="17.781" transform="translate(1.03 37.798)" fill="#155ead"/>
    <path id="Path_36" data-name="Path 36" d="M548.307,37.885v6.994c0,3.7,1.832,5.073,4.263,5.073,2.57,0,4.491-1.481,4.491-5.126V37.885h-1.55v7.046c0,2.607-1.146,3.771-2.888,3.771-1.587,0-2.766-1.129-2.766-3.771V37.885Z" transform="translate(-542.767 2.827)" fill="#fff" fill-rule="evenodd"/>
    <rect id="Rectangle_2" data-name="Rectangle 2" width="17.78" height="17.781" transform="translate(19.908 37.798)" fill="#155ead"/>
    <path id="Path_37" data-name="Path 37" d="M564.423,49.792V44.717c0-1.974-.018-3.4-.108-4.9l.052-.015a35.366,35.366,0,0,0,2.2,3.961l3.77,6.026h1.551V37.918h-1.443V42.9c0,1.832.033,3.276.173,4.863l-.053.015a31.873,31.873,0,0,0-2.112-3.857l-3.788-6.007h-1.692V49.792Z" transform="translate(-538.633 2.837)" fill="#fff" fill-rule="evenodd"/>
    <rect id="Rectangle_3" data-name="Rectangle 3" width="17.78" height="17.781" transform="translate(19.908 56.668)" fill="#155ead"/>
    <path id="Path_38" data-name="Path 38" d="M571.229,56.014a3.437,3.437,0,0,1-.933,2.538,4.935,4.935,0,0,1-3.628,1.3,5.33,5.33,0,0,1-1.233-.105v4.756H563.9V52.792a15.673,15.673,0,0,1,2.943-.249,4.875,4.875,0,0,1,3.329.986,3.21,3.21,0,0,1,1.056,2.485m-1.548.159c0-1.586-1.11-2.343-2.8-2.343a7.576,7.576,0,0,0-1.442.124v4.615a5.2,5.2,0,0,0,1.266.122c1.869,0,2.979-.914,2.979-2.518" transform="translate(-538.372 6.958)" fill="#fff" fill-rule="evenodd"/>
    <rect id="Rectangle_4" data-name="Rectangle 4" width="17.78" height="17.781" transform="translate(1.014 56.687)" fill="#155ead"/>
    <path id="Path_39" data-name="Path 39" d="M558,58.274a6.356,6.356,0,0,1-1.706,4.616,7.391,7.391,0,0,1-5.267,1.709,21.855,21.855,0,0,1-2.8-.14V52.778a22.231,22.231,0,0,1,3.276-.247,6.808,6.808,0,0,1,4.811,1.463A5.458,5.458,0,0,1,558,58.274m-1.619.053c.018-2.835-1.569-4.577-4.81-4.577a8.694,8.694,0,0,0-1.8.158v9.388a10.074,10.074,0,0,0,1.548.069c3.276.018,5.057-1.83,5.057-5.038" transform="translate(-542.791 6.955)" fill="#fff" fill-rule="evenodd"/>
    <rect id="Rectangle_5" data-name="Rectangle 5" width="36.676" height="36.683" transform="translate(1.03)" fill="#155ead"/>
    <path id="Path_40" data-name="Path 40" d="M566.951,27.619c-.841.227-1.739.3-2.557.577,1.383-1.187,1.3-3.026,2.229-4.424a14.148,14.148,0,0,1,.881-1.187c-.563,1.128-.318,2.591-.963,3.685a4.846,4.846,0,0,1-1,1.2c.128-.005.24-.118.351-.191,1.051-1.047,2.421-1.341,3.554-2.191a3.439,3.439,0,0,0,1.073-1.35,5.322,5.322,0,0,1-3.57,3.881" transform="translate(-538.233 -1.485)" fill="#fff" fill-rule="evenodd"/>
    <path id="Path_41" data-name="Path 41" d="M569.9,22.044c-.513.728-1.136,1.407-1.609,2.152a4.139,4.139,0,0,0-.108-1.869,16.217,16.217,0,0,1-.855-3.73l.015-.5c.3,1.345,1.618,2.269,1.534,3.775a3.3,3.3,0,0,1-.151,1l.024.026.058-.069a15.067,15.067,0,0,1,.6-2.2,5.375,5.375,0,0,0,.754-3.193,5.429,5.429,0,0,1-.26,4.621" transform="translate(-537.405 -2.939)" fill="#fff" fill-rule="evenodd"/>
    <path id="Path_42" data-name="Path 42" d="M569.284,15.211a4.585,4.585,0,0,1,.426,4.388,7.822,7.822,0,0,0-.495,1.809l-.092-.377c-.342-1.315-1.589-2.253-2.1-3.5a6.451,6.451,0,0,1-.377-1.266c.549,1.014,1.9,1.536,2.262,2.651a4.76,4.76,0,0,1,.235.94l.041-.035a12.849,12.849,0,0,1,.044-3.487,2.888,2.888,0,0,0-.411-1.687c.22.127.32.372.47.561" transform="translate(-537.599 -3.721)" fill="#fff" fill-rule="evenodd"/>
    <path id="Path_43" data-name="Path 43" d="M568.944,15.375c.231,1.025-.1,2.028.106,3.066l-.009.008c-.558-1.1-1.746-1.616-2.561-2.5a3.523,3.523,0,0,1-.8-1.833c.471,1.128,1.731,1.378,2.455,2.325a3.1,3.1,0,0,1,.479.774l.024-.026a20.754,20.754,0,0,1-.846-2.841,2.212,2.212,0,0,0-.82-1.074,2.851,2.851,0,0,1,1.969,2.1" transform="translate(-537.87 -4.108)" fill="#fff" fill-rule="evenodd"/>
    <path id="Path_44" data-name="Path 44" d="M566.7,13.3a4.333,4.333,0,0,1,1.252,2.332l.118.274a10.272,10.272,0,0,1-2.651-2.816l-.811-.822A6.9,6.9,0,0,1,566.7,13.3" transform="translate(-538.172 -4.392)" fill="#fff" fill-rule="evenodd"/>
    <path id="Path_45" data-name="Path 45" d="M554.172,12.377a12.057,12.057,0,0,0-1.751,2.17,15.453,15.453,0,0,1-1.633,1.492,10.406,10.406,0,0,1,.719-1.888,4.659,4.659,0,0,1,2.665-1.774" transform="translate(-542.068 -4.362)" fill="#fff" fill-rule="evenodd"/>
    <path id="Path_46" data-name="Path 46" d="M550.511,14.281a2.43,2.43,0,0,1,1.291-.867c-.969.665-.905,1.859-1.213,2.851-.1.367-.269.705-.353,1.081l.026.019a3.387,3.387,0,0,1,.8-1.174c.687-.635,1.7-1.032,2.042-1.969-.015,1.3-1.1,2.333-2.147,3.066a4.345,4.345,0,0,0-1.079,1.291c-.024-.328.05-.661.023-1.014-.113-1.138-.194-2.439.613-3.284" transform="translate(-542.338 -4.069)" fill="#fff" fill-rule="evenodd"/>
    <path id="Path_47" data-name="Path 47" d="M548.832,17.786a4.515,4.515,0,0,1,1.124-2.958l.059-.026c-.744,1.131-.126,2.553-.162,3.839l-.1,1.315.047.033a4.453,4.453,0,0,0,.086-.452,4.928,4.928,0,0,1,1.9-2.548,2.032,2.032,0,0,0,.409-.611,5.421,5.421,0,0,1-.449,1.55c-.624,1.223-1.784,2.225-1.994,3.624-.1-1.34-1.017-2.343-.924-3.765" transform="translate(-542.621 -3.678)" fill="#fff" fill-rule="evenodd"/>
    <path id="Path_48" data-name="Path 48" d="M548.409,18.645a5.17,5.17,0,0,1,.3-1.065c-.3,1.525.729,2.625,1.066,3.951a12.321,12.321,0,0,0,.376,1.491L550.2,23c-.5-1.407.223-2.714.949-3.813a3.7,3.7,0,0,0,.368-.974,8.211,8.211,0,0,1-.174,2.03c-.177.84-.442,1.637-.672,2.455a3.839,3.839,0,0,0-.033,1.618l-.073-.059c-.533-.982-1.591-1.75-1.9-2.825a5.982,5.982,0,0,1-.254-2.783" transform="translate(-542.759 -2.895)" fill="#fff" fill-rule="evenodd"/>
    <path id="Path_49" data-name="Path 49" d="M548.36,20.793c.118,1.618,1.857,2.474,2.665,3.813a4.477,4.477,0,0,0,.611.808c-.038-.173-.2-.319-.26-.495a3.476,3.476,0,0,1-.317-1.912,9.629,9.629,0,0,0,.294-2.464c.709,1.531.492,3.437.89,5.1.1.36.313.683.45,1.032-1.456-.992-3.442-1.936-4.086-3.756a4.492,4.492,0,0,1-.246-2.121" transform="translate(-542.759 -2.06)" fill="#fff" fill-rule="evenodd"/>
    <path id="Path_50" data-name="Path 50" d="M549.033,23.9c.811,1.837,2.844,1.989,4.211,3.11a3.4,3.4,0,0,0,.8.543l.015-.015a4.742,4.742,0,0,1-.9-.973c-.8-1.111-.518-2.665-1.113-3.858a9.031,9.031,0,0,1,1.363,2.064c.49,1.2.676,2.562,1.8,3.471-1.223-.4-2.653-.288-3.73-1.041a5.14,5.14,0,0,1-2.45-3.3" transform="translate(-542.562 -1.451)" fill="#fff" fill-rule="evenodd"/>
    <path id="Path_51" data-name="Path 51" d="M550.662,26.687c1.3,1.482,3.428.987,5.163,1.373a2.433,2.433,0,0,0,.728.094c-.205-.132-.494-.117-.718-.235-1.36-.479-1.561-1.95-2.3-2.943a21.049,21.049,0,0,1,2.606,2.288,4.552,4.552,0,0,0,2.17.964c-.191.067-.44.047-.645.1-1.423.35-3.007.923-4.518.409a4.377,4.377,0,0,1-2.488-2.052" transform="translate(-542.103 -0.811)" fill="#fff" fill-rule="evenodd"/>
    <path id="Path_52" data-name="Path 52" d="M567.829,29.436a4.39,4.39,0,0,1-4.14-.895c-.465-.295-.877-.719-1.478-.681a2.084,2.084,0,0,0-.61.059,11.369,11.369,0,0,1,3.094,2.147,4.732,4.732,0,0,1-.561.508,10.964,10.964,0,0,0-3.052-2.478,2,2,0,0,0-.631.268,9.438,9.438,0,0,0-2.512,2.243l-.587-.482a10.727,10.727,0,0,1,3.111-2.216c-1.117-.353-1.845.583-2.691,1.058a3.938,3.938,0,0,1-5.325-.646,3.825,3.825,0,0,0,3.4.294c1.432-.622,2.919-1.407,4.644-1.032.27,0,.533.274.787.044a5.519,5.519,0,0,1,3.839.485l1.14.455a3.768,3.768,0,0,0,3.33-.363,3.952,3.952,0,0,1-1.761,1.233" transform="translate(-541.6 -0.107)" fill="#fff" fill-rule="evenodd"/>
    <path id="Path_53" data-name="Path 53" d="M566.816,28.652c-1.648.622-3.3-.142-4.884-.4l-.3-.04v-.009a4.425,4.425,0,0,0,2.088-.938,21.22,21.22,0,0,1,2.656-2.4c-.729.934-.808,2.262-2.01,2.865a7.664,7.664,0,0,1-.983.376,10.131,10.131,0,0,0,1.277-.191c1.612-.254,3.461.006,4.59-1.368a4.335,4.335,0,0,1-2.43,2.1" transform="translate(-539.013 -0.84)" fill="#fff" fill-rule="evenodd"/>
    <path id="Path_54" data-name="Path 54" d="M568.436,25.276c-.651.426-1.311.822-1.937,1.3v-.058c.96-1.595.49-3.779,1.082-5.53l.219-.587c-.123,1.091.353,2.015.317,3.11a3.506,3.506,0,0,1-.595,1.774h.059a22.21,22.21,0,0,1,1.383-1.857,4.855,4.855,0,0,0,1.829-2.8,4.822,4.822,0,0,1-2.357,4.645" transform="translate(-537.64 -2.099)" fill="#fff" fill-rule="evenodd"/>
    <path id="Path_55" data-name="Path 55" d="M570.075,17.212a9.826,9.826,0,0,0-8.81-5.582,10.352,10.352,0,0,0-4.449,1.055,9.86,9.86,0,0,0-1.081,16.956,9.868,9.868,0,0,0,14.986-5.553,9.706,9.706,0,0,0-.646-6.876m.461,3.452c.023.167-.015.367.077.505l-1.409.023-.118.044.041-.059a7.772,7.772,0,0,0-.743-3.037c-.014-.419-.42-.7-.6-1.069-.313-.215-.406-.6-.761-.787l-.2-.222.165-.033a11.141,11.141,0,0,0,.973-1.046,9.667,9.667,0,0,1,2.573,5.681m-3.98,5.29c-.123-.117-.128-.346-.344-.341l-.1.117-.015.1-.444-.392c.212-.108.368-.392.529-.6a6.417,6.417,0,0,0,.855-1.868l.224.014.036-.224-.161-.176a5.474,5.474,0,0,0,.068-.881l.108.033c.455,0,.919.026,1.359-.019l-.068.078a7.243,7.243,0,0,1-1.961,4.659c.054-.17-.108-.317-.082-.5m-1.15,1.41c-.254-.236.156-.433.235-.647-.044-.229-.3-.356-.494-.42l-.068-.247.219-.279.035.092.6.62a.315.315,0,0,0,.159.328l.2-.009h-.033a6.965,6.965,0,0,1-.87.728l-.069.092Zm-2.733-7.579-.249.044a.584.584,0,0,0-.329-.219l-.269.077c.176-.19.49-.224.622-.488a.959.959,0,0,0,.059-.392l-.187-.059c-.1.163-.32.2-.424.368L561.544,19a9.129,9.129,0,0,0-.071-1.011,4.983,4.983,0,0,0,.588.118,4.946,4.946,0,0,1,1.395.636l-.293.235.129.118.095-.036c-.151.382-.66.323-.714.729m.41,4.048c-.009.176-.259.172-.377.292v-.131c.118-.094.206-.186.377-.162m2.769-4.684c.16.033.256.224.418.259a2.644,2.644,0,0,1,.276.738c-.132.146-.142.473-.426.42-.068-.158.127-.249.083-.4l.141-.132c-.01-.146-.195-.118-.224-.269l-.235-.1c-.186-.088-.361.376-.411.009l.05-.186c-.162-.088-.177-.313-.353-.4a3.277,3.277,0,0,0-.695-.05c-.15-.035-.328-.137-.443.024l-.095.342-.131-.141c.428-.481.924-.964,1.374-1.433l.023-.059a5.877,5.877,0,0,1,.656.872c.038.183-.323.379-.009.5m.855,2.591c-.085.264-.074.568-.144.836l-.044.144c-.082-.168-.151-.386-.341-.485-.162-.088-.059-.308-.21-.411l-.151-.151a2.1,2.1,0,0,0,.89.068m-2.039-4.151a11.6,11.6,0,0,0-.81.867l-.036-.1a4.293,4.293,0,0,0-2.2-.9l-.127.026.009-1.325-.047-.109a8.815,8.815,0,0,1,1.574.333A5.672,5.672,0,0,1,564.8,17.4l.118.049Zm-1.34,7.241a4.6,4.6,0,0,1,1.223.279l.268-.083c-.024-.162.172-.235.153-.4.082-.136.023-.327.14-.445a.68.68,0,0,0-.117-.492l-.308.033c-.117.088-.073.346-.279.294l-.209.049-.039-.059c.145-.073.405-.023.424-.259l.377-.167.21-.327.026-.151.115.2.212-.132.068-.059c.123.1.294.013.436.023a1.376,1.376,0,0,1,.386-.067,4.387,4.387,0,0,1-.714,1.51c-.123.151-.231.313-.367.459l-.136-.367-.059.014c-.081.158-.236.29-.215.47-.118.186-.411.028-.587.127-.21.064-.324-.142-.49-.186-.186-.078-.4-.085-.575-.177Zm-.914-12.6a9.112,9.112,0,0,1,5.188,2.455l-.167.068a3.823,3.823,0,0,0-.74.855l-.2-.244a1.023,1.023,0,0,0-.522-.66c-.188-.033-.233-.323-.467-.235-.2-.167-.441-.045-.632.047v.026a7.291,7.291,0,0,0-3.085-.94l-.141.036.024-.227-.156-.067-.046.117a6.741,6.741,0,0,0-.013-1.35,7.944,7.944,0,0,0,.954.118m-.377,1.96a7.987,7.987,0,0,1,2.37.679c.113.172.335.254.363.47-.112.3.395.294.167.6l.1.226.083.258c.176.04.249-.195.424-.131a.8.8,0,0,1,.279.693.471.471,0,0,0,.308.328c.29-.087.151.236.352.318.224.029.338.318.587.294a6.7,6.7,0,0,1,.537.595l.059.1.294-.059a7.055,7.055,0,0,1,.636,2.533l.044.092c-.474,0-.949.006-1.433.036a1.514,1.514,0,0,0-.15-.8,1,1,0,0,0,.082-.5h-.126a1.52,1.52,0,0,0-.26.538.8.8,0,0,0-.074.693l.059.059-.547-.01c.132-.082-.11-.244.019-.376l.249-.05c.08-.181.276-.313.272-.527a.464.464,0,0,0,.124-.479c-.117-.269.2-.543-.044-.8l-.118-.177-.165-.106.132-.245-.224-.015c-.02-.117.2-.244.009-.351-.132-.024-.205.142-.338.083l-.048-.2-.293-.361-.118-.047c.021-.29-.331-.451-.351-.738-.108-.1-.021-.279-.16-.363l-.274-.083a3.166,3.166,0,0,0-.431-.5l-.106.044c.023.137.185.215.174.367l-.059.021a.694.694,0,0,0,.226.351,5.719,5.719,0,0,0-2.63-1.055,1.519,1.519,0,0,0-.564-.021c.046-.426.015-.909.026-1.364l-.047-.094a1.614,1.614,0,0,0,.586.083m-.82,5.634.081.044-.306.014v.177c.175.068.214.356.45.245l.254.151c.141.053.161.3.352.25l.072.326-.131.226-.019.118c.181.018.17.223.254.337a.326.326,0,0,0,.132.367,1.379,1.379,0,0,1-.167.455c-.19.092-.5-.142-.572.2-.109.118-.015.378-.224.388a1.552,1.552,0,0,1-1.082-.294c.2-.1.542.038.611-.26l.049-.186.177-.328-.026-.2c-.2-.205-.472-.1-.727-.094-.151.088-.005.256-.108.363-.2.023-.2.217-.337.328l-.132-.222h.023l.05.085c.185.029.126-.181.185-.274.029-.117.3-.279.085-.361l-.035-.142-.191.132-.079.236h-.037l-.069-.118-.32.059a2.846,2.846,0,0,1-.491.068l.156-.153c-.024-.146.073-.232.137-.341l.156-.01.137.059.047-.083c.147.088.065.509.353.328a2.878,2.878,0,0,1,.085-.563c-.065-.156.1-.22.151-.327.15.014.136-.156.2-.235a.935.935,0,0,0,.62-.367l-.117-.4Zm-.226,9.069-.138-.094a7.68,7.68,0,0,1-4.731-2.029c.219-.023.3.269.542.195.264-.029.47-.238.749-.195a.414.414,0,0,0,.391-.131c.042-.147-.114-.222-.141-.338a5.659,5.659,0,0,0,3.152,1.184l.118-.05v1.291Zm-5.125-7.05-.073-.118a.561.561,0,0,0,.47.044c-.241.078-.154.372-.245.552l.1.2-.187.278a3.877,3.877,0,0,0-.068-.958m-1.482,1.686c-.132.015-.1.162-.151.235a6.762,6.762,0,0,0-.187-1.02l-.106-.9-.059-.085a11.07,11.07,0,0,0,1.359.036l.109-.05a.922.922,0,0,0,.108.719c-.055-.059-.132-.231-.26-.224-.247.014-.269.341-.518.353a.976.976,0,0,0-.279.643Zm1-2.262-.128-.049-1.338.023a7.808,7.808,0,0,1,1.4-4.057l.528-.669.01-.095a9.681,9.681,0,0,0,1.032,1.032,5.886,5.886,0,0,0-1.56,3.672Zm5.549-5.7a2.627,2.627,0,0,0-.772.059,5.881,5.881,0,0,0-2.935,1.486l-.033-.092a8.007,8.007,0,0,0-.987-.914c.312-.187.591-.459.894-.67a7.523,7.523,0,0,1,3.824-1.277,9.747,9.747,0,0,0,.01,1.409m-2.191,7.378.118.059.008-.245.086.337.044.191a3.323,3.323,0,0,0-.411.479c-.09-.22-.283-.4-.372-.622-.142-.254-.215-.542-.352-.8.118.147.431-.018.431.26l.073.009.094-.023.049.132Zm1.451,3.813.234.109a6.135,6.135,0,0,1-2.5-1.116c-.127-.072-.211-.24-.363-.249a7.165,7.165,0,0,0,.973-1,1.892,1.892,0,0,0,.613.517c.369.173.754.485,1.187.4a.96.96,0,0,0-.367.241c-.06.132-.038.327-.214.386.009.279.258.514.433.714m-3.117-1.725-.05-.3c-.278-.25-.19-.682-.233-1-.2-.156-.04-.411-.176-.587,0-.283-.441-.382-.3-.693l-.059-.279c.087-.1.278.01.337-.141l.037-.26c.105-.058.25.074.3-.068.1-.244-.36-.542.037-.67.13-.014.312-.044.364.118a1.143,1.143,0,0,1,.01.577c.128.049.01.162.01.245l-.245.082-.2-.165.014.327-.048.2-.118-.035-.009.186L557,22.7l.049-.059a4.026,4.026,0,0,1,.069-.436l.142.074a4.833,4.833,0,0,0,.752,1.677l.186.187a12.846,12.846,0,0,0-1.256,1.279v.01l-.081-.069c-.037-.185.272-.132.213-.341m.679-5.785a1.006,1.006,0,0,0-.327.342c-.118.073-.272.069-.368.2l-.01.162c-.113.108-.346-.029-.4.176-.022.181-.234.283-.22.483l-.085.353.085.278a1.248,1.248,0,0,0-.613.026,4.149,4.149,0,0,0,.118-.729,5.766,5.766,0,0,1,1.316-2.709,11.974,11.974,0,0,0,1.079,1.006c-.277.012-.282.422-.576.411m3.016,5.271c-.068.113-.015.279-.05.41a3.726,3.726,0,0,1-1.76-.811,7.431,7.431,0,0,0,.9-.973c.029.158.215.231.342.3.261.117.576.3.873.172l-.067.063.036.25-.069.1c.049.088-.014.244.127.273l-.058.128ZM559.2,23.046l.2-.319.165.085c-.15.01-.233.162-.351.245Zm1.365-3.98-.023-.186c-.227.1-.142.353-.294.513-.026.128-.191.063-.271.132l-.258-.033-.262-.118-.105.094-.079-.059.079-.151c-.09-.158-.279-.132-.4-.25h-.109a3.345,3.345,0,0,1,2.088-.983,3.106,3.106,0,0,0,.073,1.068c-.122-.153-.294.037-.445-.026m.386-1.583a2.244,2.244,0,0,0-.738.082,4.5,4.5,0,0,0-1.491.773l-.073.108a13.082,13.082,0,0,0-1.041-.973,5.7,5.7,0,0,1,3.261-1.384l.082-.049a6.626,6.626,0,0,0,0,1.443m-5.3-3.462a9.519,9.519,0,0,1,5.262-1.864l-.04.137.014,1.173.045.118a7.763,7.763,0,0,0-5,2.1l-.023.068a8.549,8.549,0,0,0-1.081-1.042h-.044c.3-.176.567-.488.864-.693m-3.636,6.335a9.622,9.622,0,0,1,2.5-5.339l.035.132c.332.328.664.676.982.973a4.081,4.081,0,0,0-.654.749,7.953,7.953,0,0,0-1.468,4.19l.036.191a9.915,9.915,0,0,0-1.511,0c.059-.3.024-.6.078-.9m1.128,5.717a9.973,9.973,0,0,1-1.2-4.293l1.359.01.133-.05-.016.274-.01-.014.026.073a7.61,7.61,0,0,0,.234,1.487l.069.106-.222-.3-.317.118c.054.142-.09.1-.153.137l-.1-.094-.252.118-.1.167c-.029.22-.1.508.058.69a.583.583,0,0,0,.2.41l.108-.044c.132.1.2.337.4.294l.059-.132c.1.1.151.311.341.294l.154.142c.2-.055.13.235.283.317.117.073.181.249.351.167l.059-.073.059.19a.678.678,0,0,0,.411.314,2.968,2.968,0,0,0,.453.469l-.117.049-.973,1.006a16.062,16.062,0,0,1-1.3-1.828m6.888,4.634a9.894,9.894,0,0,1-5.211-2.438l1.008-1.014.014-.059a7.7,7.7,0,0,0,4.988,2.152l.151-.038-.049.074v1.323l.073.118a8.357,8.357,0,0,0-.974-.118m1.186-5.538-.285-.036-.045-.082c.142,0,.211-.165.363-.142l.223-.254c-.038-.127.119-.044.153-.118l.167-.049c.1.141.3.082.4.245l.059-.068v-.059c.156-.014.233.21.4.059v-.142l-.05-.045c.113-.054.182.173.319.092.113-.092.191-.209.341-.209l.033.044c.026.294-.224.47-.445.6-.141.059-.4.038-.39.269-.161.146-.313-.088-.514-.024l-.131-.21c-.206.088-.452-.108-.6.128m.36,2.479c.177.073.481-.074.577.127-.053.112-.141.218-.106.351.072.181.181.42.41.436l.215.127a7.509,7.509,0,0,0-1.174.167,10,10,0,0,0,0-1.207l-.073-.108Zm.015,3.128-.094.059a11.787,11.787,0,0,0,0-1.534,2.341,2.341,0,0,0,.761-.012l.75-.132c.37.074.635.676,1.045.309.143-.17.393-.156.481-.391.24-.087.3-.332.47-.488.159-.46.679-.528,1-.847a2.621,2.621,0,0,0,.672-.645l.022.117,1.033.983a9.516,9.516,0,0,1-6.136,2.582m8.977-8.963a9.415,9.415,0,0,1-2.44,5.971l-.039.073A10.006,10.006,0,0,0,567,26.786a3.276,3.276,0,0,0,.576-.631,7.876,7.876,0,0,0,1.551-4.343l-.049-.132.082.059,1.393-.009.074-.035Z" transform="translate(-541.886 -4.572)" fill="#fff" fill-rule="evenodd"/>
    <path id="Path_56" data-name="Path 56" d="M562.479,13.592l.033.141c.206.073.229.373.495.3l-.027-.294-.218-.177Z" transform="translate(-538.773 -4.026)" fill="#fff" fill-rule="evenodd"/>
    <path id="Path_57" data-name="Path 57" d="M559.433,13.028c.26.332.709.146,1.031.082a.618.618,0,0,0,.636-.165V12.91a.972.972,0,0,0-.761-.292l-.7.3-.21.026Z" transform="translate(-539.634 -4.294)" fill="#fff" fill-rule="evenodd"/>
    <path id="Path_58" data-name="Path 58" d="M547.048,68.11v.049l-.009.069-.021.078-.028.073-.046.053-.058.021h-1.569l-.254,1.263h1.35l.058.026.018.074-.005.047-.012.072-.017.076-.029.067-.042.05-.056.021h-1.348l-.294,1.439h1.6l.051.024.021.078,0,.053-.01.072-.019.076-.031.072-.044.051-.059.019h-1.933l-.067-.012-.056-.036-.031-.07.005-.1.719-3.588.095-.17.146-.047h1.907Zm3.748,3.844-.021.04-.047.029-.085.021-.126.006-.124-.006-.073-.021-.037-.029,0-.04.346-1.73.026-.169.013-.163a.58.58,0,0,0-.078-.318l-.265-.118-.322.1-.315.26a1.73,1.73,0,0,0-.265.395,1.954,1.954,0,0,0-.167.5L549,71.954l-.019.04-.051.029-.082.021-.126.006-.123-.006-.074-.021-.033-.029-.006-.04.345-1.73.029-.183.008-.167-.077-.3-.265-.114-.323.1-.315.26a1.851,1.851,0,0,0-.263.395,1.949,1.949,0,0,0-.168.5l-.249,1.251-.022.04-.046.029-.083.021-.124.006-.127-.006-.074-.021-.033-.029,0-.04.564-2.8.018-.041.042-.031.076-.017.106-.006.106.006.067.017.029.031,0,.041-.105.535.154-.224.25-.217.311-.165.347-.067.322.054.218.138.127.213.05.268.17-.228.251-.214.31-.164.341-.067a.912.912,0,0,1,.35.06l.228.162.123.241.037.3-.012.214-.035.218Zm3.387-1.927a2.731,2.731,0,0,1-.035.408,2.884,2.884,0,0,1-.108.455,2.629,2.629,0,0,1-.194.446,1.613,1.613,0,0,1-.281.383,1.3,1.3,0,0,1-.379.269,1.136,1.136,0,0,1-.491.1l-.255-.028-.21-.077-.177-.118-.149-.147-.265,1.343-.021.044-.046.031-.08.019-.131.006-.119-.006-.076-.019-.037-.031,0-.044.786-3.911.062-.072.187-.023.106.006.065.015.032.029,0,.044-.106.532.147-.219.25-.219.322-.165.359-.067a.873.873,0,0,1,.4.082l.26.217.141.319a1.645,1.645,0,0,1,.045.4m-.537.035-.024-.245-.074-.192-.133-.126-.205-.044-.341.094-.323.26a1.9,1.9,0,0,0-.267.4,2,2,0,0,0-.169.5l-.1.511a1.074,1.074,0,0,0,.313.326.694.694,0,0,0,.381.108l.3-.078.238-.208.179-.295.128-.342.074-.353Zm3.43.019a2.57,2.57,0,0,1-.042.469,2.389,2.389,0,0,1-.132.463,2.159,2.159,0,0,1-.226.418,1.657,1.657,0,0,1-.32.341,1.487,1.487,0,0,1-.943.318,1.622,1.622,0,0,1-.513-.072.907.907,0,0,1-.351-.208.869.869,0,0,1-.2-.336,1.445,1.445,0,0,1-.064-.45,2.811,2.811,0,0,1,.041-.47,2.23,2.23,0,0,1,.133-.46,2.2,2.2,0,0,1,.224-.419,1.512,1.512,0,0,1,.322-.342,1.459,1.459,0,0,1,.418-.232,1.518,1.518,0,0,1,.526-.087,1.582,1.582,0,0,1,.51.074.9.9,0,0,1,.351.21.811.811,0,0,1,.2.335,1.4,1.4,0,0,1,.064.449m-.54.031-.032-.279-.11-.209-.2-.133-.3-.047-.338.068-.273.179-.209.267-.145.324-.086.354-.028.358.035.278.11.213.2.133.295.046.34-.065.27-.183.209-.267.145-.327.086-.354Zm4.94-.982-.008.071-.018.06c-.077.226-.165.455-.258.686s-.2.46-.313.688-.233.455-.365.676-.271.435-.418.638l-.055.054-.076.028-.095.015-.118,0-.135-.006-.087-.021-.046-.033-.014-.053-.209-2.052-.941,2.043-.041.058-.065.037-.1.021-.147.006-.149-.006-.1-.021-.056-.033-.018-.053-.295-2.66-.006-.053v-.045l.012-.062.042-.037.079-.018.133-.006.129.006.076.015.035.031.012.049.218,2.312V71.5l.013-.028,1.061-2.312.027-.046.045-.032.073-.017.118-.006.121.006.077.015.04.029.015.044.231,2.3v.024l.015-.024c.095-.15.188-.314.286-.5s.188-.372.277-.57.174-.406.254-.615.151-.414.218-.615l.027-.049.05-.031.086-.015.133-.006.122.006.074.01.032.024Zm2.462.6a.748.748,0,0,1-.1.385.828.828,0,0,1-.31.294,1.844,1.844,0,0,1-.542.186,4.1,4.1,0,0,1-.788.065h-.331l-.029.2-.006.179a.675.675,0,0,0,.153.477.663.663,0,0,0,.5.164,1.913,1.913,0,0,0,.358-.029l.274-.063.192-.065.1-.029.041.022.015.055-.008.077-.019.088-.032.085-.044.068-.133.074-.224.065-.287.049-.31.018a1.725,1.725,0,0,1-.486-.063.849.849,0,0,1-.346-.191.766.766,0,0,1-.206-.322,1.371,1.371,0,0,1-.069-.454,2.789,2.789,0,0,1,.039-.433,2.569,2.569,0,0,1,.123-.459,2.3,2.3,0,0,1,.218-.436,1.708,1.708,0,0,1,.318-.368,1.543,1.543,0,0,1,.428-.254,1.45,1.45,0,0,1,.546-.1,1.315,1.315,0,0,1,.444.067l.3.168.168.228Zm-.526.046-.124-.258a.572.572,0,0,0-.354-.1.874.874,0,0,0-.359.068l-.274.188-.206.276-.136.331h.315a2.975,2.975,0,0,0,.546-.04,1.233,1.233,0,0,0,.351-.112l.187-.161Zm2.652-.615,0,.047-.013.082-.018.1-.031.092-.04.069-.045.028-.055-.01-.064-.026-.082-.027-.11-.012-.244.094-.272.253a1.985,1.985,0,0,0-.408.861l-.246,1.247-.022.04-.046.029-.082.021-.126.006-.127-.006-.074-.021-.033-.029,0-.04.556-2.8.019-.041.047-.031.074-.017.108-.006.109.006.064.017.029.031,0,.041-.1.509.17-.245.21-.206.242-.142.246-.054.109.009.1.019.081.026.055.031Zm2.332.569a.736.736,0,0,1-.1.385.809.809,0,0,1-.31.294,1.815,1.815,0,0,1-.54.186,4.141,4.141,0,0,1-.791.065h-.328l-.029.2-.008.179a.675.675,0,0,0,.154.477.657.657,0,0,0,.5.164,1.884,1.884,0,0,0,.355-.029l.276-.063.19-.065.1-.029.042.022.014.055-.005.077-.02.088-.032.085-.045.068-.132.074-.226.065-.287.049-.31.018a1.7,1.7,0,0,1-.483-.063.823.823,0,0,1-.347-.191.779.779,0,0,1-.206-.322,1.308,1.308,0,0,1-.069-.454,2.64,2.64,0,0,1,.038-.433,2.67,2.67,0,0,1,.123-.459,2.3,2.3,0,0,1,.217-.436,1.691,1.691,0,0,1,.32-.368,1.537,1.537,0,0,1,.427-.254,1.446,1.446,0,0,1,.547-.1,1.314,1.314,0,0,1,.444.067l.3.168.172.228Zm-.524.046-.126-.258a.57.57,0,0,0-.354-.1.864.864,0,0,0-.358.068l-.277.188-.205.276-.137.331h.317a2.987,2.987,0,0,0,.546-.04,1.23,1.23,0,0,0,.351-.112l.187-.161Zm2.834,2.18-.067.073-.186.023-.105-.006-.067-.017L570.25,72v-.044l.1-.523-.146.218-.251.215-.32.163-.363.063-.318-.049-.227-.128-.149-.19-.091-.22-.042-.228-.013-.212a2.69,2.69,0,0,1,.036-.4,2.555,2.555,0,0,1,.109-.447,2.693,2.693,0,0,1,.19-.442,1.6,1.6,0,0,1,.282-.383,1.374,1.374,0,0,1,.381-.269,1.122,1.122,0,0,1,.491-.1l.25.029.215.082.178.123.146.149.317-1.586.017-.041.049-.031.079-.019.128-.008.123.008.076.019.037.031v.041Zm-.1-2.06a1.2,1.2,0,0,0-.315-.326.673.673,0,0,0-.381-.113l-.3.076-.237.205-.183.291-.126.341-.074.347-.024.314a.841.841,0,0,0,.1.461.361.361,0,0,0,.329.16l.342-.094.322-.258a1.782,1.782,0,0,0,.265-.392,2.054,2.054,0,0,0,.171-.5Zm2.616,2.06-.02.04-.047.029-.082.021-.126.006-.127-.006-.074-.021-.033-.029,0-.04.828-4.154.019-.044.048-.032.083-.018.129-.006.122.006.076.018.032.032,0,.044Zm1.884-3.742-.042.146-.069.095-.109.053-.159.014-.149-.014-.089-.053-.031-.095.013-.146.046-.145.071-.1.109-.053.156-.014.149.014.087.053.032.1Zm-.8,3.742-.024.04-.046.029-.082.021-.125.006-.126-.006-.076-.021-.033-.029,0-.04.558-2.8.019-.041.046-.029.082-.019.13-.008.122.008.076.019.033.029,0,.041Zm3.257-2.824-.01.064-.021.067c-.078.226-.165.455-.26.686s-.2.46-.32.688-.245.455-.385.676a7,7,0,0,1-.46.638l-.047.054-.068.028-.09.015-.118,0-.156-.006-.09-.021-.047-.033-.017-.053-.414-2.652,0-.06,0-.049.013-.063.04-.033.077-.017.128-.006.132.006.076.015.035.031.013.049.336,2.307V71.5l.017-.018q.183-.277.335-.537c.1-.172.2-.351.285-.536s.169-.378.246-.581.159-.428.238-.672l.027-.049.049-.031.087-.015.135-.006.121.006.074.01.037.024Z" transform="translate(-543.951 11.23)" fill="#030504"/>
    <path id="Path_59" data-name="Path 59" d="M547.082,68.143l-.151,0v.038l-.009.055-.013.06-.017.04,0,0-.018.005.049.145v-.151h-1.692l-.279,1.383-.039.181h1.5l.027.013.063-.137-.147.036.013.047,0,.021-.01.06-.013.058-.015.035h0l-.019.008.051.141v-.151h-1.472l-.356,1.742h1.752l.023.01.064-.137-.147.038.015.055v.021l-.009.059-.014.059-.015.037h0l-.018.005.046.145v-.151h-1.92l-.023-.005-.028-.018-.085.127.138-.064-.017-.035,0-.051.713-3.556.054-.1.068-.023h1.8l.027.038.124-.087-.151,0,.151,0,.124-.086-.07-.1-.046-.065h-2.009l-.169.055-.056.018-.124.222-.013.021-.725,3.622-.006.112v.037l.047.1.018.041.092.06.027.018.1.015.01,0h1.97l.083-.027.038-.012.072-.083.015-.018.04-.095.005-.01.022-.091v0l.013-.074v-.01l0-.062v-.023l-.027-.1-.018-.069-.115-.055-.031-.014H544.9l.231-1.136h1.252l.082-.029.036-.014.069-.078.015-.018.038-.088.005-.013.021-.088V70l.013-.078v0l.006-.05,0-.028-.027-.1-.018-.072-.122-.055-.031-.014h-1.2l.194-.956h1.47l.083-.029.037-.013.073-.085.017-.019.038-.1,0-.01.023-.086V68.29l.01-.077V68.2l0-.058V68.1l-.029-.041Zm3.748,3.844-.138-.065-.019.041.137.064-.079-.128-.027.017-.046.01-.1.005-.1-.005-.028-.008-.012-.009-.095.118.151-.009V72l.344-1.714.026-.174V70.1l.013-.167v-.012a.722.722,0,0,0-.1-.4l-.026-.038-.3-.137-.053-.023-.374.112-.031.008-.338.283-.009.006-.006.008a1.865,1.865,0,0,0-.288.429,2.024,2.024,0,0,0-.181.533l-.246,1.229-.012.024.137.067-.08-.129-.029.018-.046.01-.105.005-.1-.005-.023-.006-.006,0-.1.112.15-.024,0-.013.34-1.7.029-.187,0-.009.008-.176v-.022l-.083-.327-.019-.07-.332-.144-.051-.023-.376.112-.03.008-.338.283-.009.006-.006.009a1.962,1.962,0,0,0-.287.427,2.156,2.156,0,0,0-.181.535l-.244,1.228-.012.022.133.071-.082-.127-.023.015-.045.01-.105.005-.1-.005-.027-.006-.008-.006-.1.114.15-.009V72l.556-2.765.011-.026-.138-.062.088.123.018-.013.031-.006.087-.005.083,0,.012,0h0l.108-.106-.15.012v.019l-.1.515.273.115.144-.208.222-.194.277-.146.3-.056.264.044.161.1.095.156.044.242.064.341.369-.491.226-.195.276-.144.319-.063-.029-.149V69.2l.291.047.059-.14-.087.124.2.14.095.183.031.256-.012.195-.032.205-.35,1.746.15.031-.138-.065.138.065.147.029.351-1.751.036-.22v-.009l.014-.222V69.8l-.038-.314,0-.027L551.2,69.2l-.018-.033-.255-.182-.013-.01-.015-.005a1.075,1.075,0,0,0-.41-.073h-.014l-.355.069-.022,0-.332.174-.014.008-.265.227-.012.01-.182.241.123.091.149-.028-.05-.268-.005-.027-.142-.236-.018-.031-.247-.158-.026-.017-.352-.058-.027,0-.372.071-.023,0-.331.176-.015.008-.264.229-.015.013-.165.24.126.086.149.029.105-.535,0-.021,0-.06,0-.056-.069-.069-.029-.031-.106-.027-.015-.005-.122-.006h-.008l-.115.005h-.011l-.089.021-.032.006-.067.05-.032.023-.036.079-.006.014-.57,2.838,0,.06.005.063.082.072.027.023.108.028.014,0,.142.006.008,0,.135-.009h.014l.095-.023.024-.005.068-.044.035-.021.04-.076.012-.022.252-1.272a1.785,1.785,0,0,1,.154-.458,1.712,1.712,0,0,1,.242-.361l-.114-.1.1.117.291-.241.24-.072.146.063.055.21-.008.136-.027.173-.35,1.754.01.068.009.053.073.064.028.026.109.028.014,0,.14.006.008,0,.133-.009h.013l.1-.023.022-.005.07-.041.037-.022.041-.082.009-.018.254-1.27a1.829,1.829,0,0,1,.154-.458,1.648,1.648,0,0,1,.242-.361l-.113-.1.1.117.291-.241.24-.071.214.1.062-.14-.127.083.053.235h.153l-.153-.012-.012.158-.023.163-.35,1.742.005.062,0,.068.089.072.026.019.105.027.015,0,.137.006.009,0,.135-.009h.014l.095-.023.024-.005.069-.042.039-.023.038-.083.008-.015,0-.018Zm3.387-1.927h-.151a2.6,2.6,0,0,1-.033.383,2.626,2.626,0,0,1-.1.432,2.428,2.428,0,0,1-.182.42,1.416,1.416,0,0,1-.255.35,1.148,1.148,0,0,1-.337.238.988.988,0,0,1-.426.087v.151l.018-.15-.236-.027-.179-.064-.15-.1-.138-.138-.2-.2-.315,1.6-.011.027.137.062-.082-.127-.026.015-.04.01-.109,0-.1,0-.026-.006-.012-.009-.1.117.15-.014V73.1l.776-3.851.034-.04-.115-.1.019.151.174-.021.079,0,.012,0,0,0,.1-.11-.151.009v.024l-.1.511.273.114.137-.2.22-.194.285-.146.337-.062-.027-.151V69.2a.72.72,0,0,1,.329.065l.068-.136-.1.117.232.194.13.287.137-.062-.147.037a1.433,1.433,0,0,1,.041.359h.3a1.818,1.818,0,0,0-.05-.431l0-.014-.149-.333-.014-.032-.286-.238L553.855,69l-.015-.008a1.037,1.037,0,0,0-.467-.1h-.014l-.372.069-.023,0-.342.176-.015.008-.264.232-.015.013-.158.235.126.086.149.029.106-.532,0-.021,0-.063,0-.06L552.471,69l-.03-.028-.1-.023-.014,0-.119-.006h-.014l-.2.024-.058.006-.1.115-.027.031-.8,3.971.005.067.005.062.086.072.027.022.108.027.015,0,.136.006h.006l.136-.005.015,0,.095-.022.026-.005.069-.047.037-.023.037-.085.008-.015.268-1.36-.149-.029-.106.108.149.147.009.01.19.126.015.01.228.083.017.006.273.029h.017a1.274,1.274,0,0,0,.555-.117,1.428,1.428,0,0,0,.424-.3,1.854,1.854,0,0,0,.308-.418,2.821,2.821,0,0,0,.2-.472,2.976,2.976,0,0,0,.114-.481,2.777,2.777,0,0,0,.037-.428Zm-.537.035.15-.015-.023-.244,0-.023-.082-.212-.013-.032-.158-.147-.032-.029-.245-.053-.036-.006-.377.1-.031.008-.347.281-.011.009-.009.01a2.116,2.116,0,0,0-.286.428,2.074,2.074,0,0,0-.185.538l-.1.511-.013.062.035.053a1.236,1.236,0,0,0,.359.369.857.857,0,0,0,.461.132h.019l.319-.085.035-.009.265-.231.017-.017.192-.314.008-.013.133-.356,0-.01.078-.361v-.01l.026-.324V70.08l-.15.015-.151-.01-.023.3-.07.331-.119.318-.16.263-.194.17-.265.068.038.147v-.151l-.3-.085a.942.942,0,0,1-.271-.282l-.125.085.149.029.1-.513a1.732,1.732,0,0,1,.156-.459,1.715,1.715,0,0,1,.245-.365l-.114-.1.095.118.3-.24.274-.076.128.027.077.073.055.14.022.224.151-.014-.151-.01Zm3.43.019h-.151a2.378,2.378,0,0,1-.041.441,2.163,2.163,0,0,1-.123.435,1.946,1.946,0,0,1-.209.387l-.292.31a1.361,1.361,0,0,1-.847.285,1.426,1.426,0,0,1-.464-.065l-.294-.17-.164-.276a1.346,1.346,0,0,1-.056-.4,2.527,2.527,0,0,1,.04-.445,2.12,2.12,0,0,1,.123-.429,2.012,2.012,0,0,1,.21-.39l.288-.31a1.316,1.316,0,0,1,.378-.208,1.341,1.341,0,0,1,.473-.077,1.427,1.427,0,0,1,.461.065l.294.174.167.276a1.246,1.246,0,0,1,.056.4h.3a1.617,1.617,0,0,0-.072-.5.989.989,0,0,0-.244-.4,1.038,1.038,0,0,0-.406-.245,1.783,1.783,0,0,0-.56-.082,1.652,1.652,0,0,0-1.04.351,1.713,1.713,0,0,0-.35.376,2.4,2.4,0,0,0-.382.938,2.867,2.867,0,0,0-.044.5,1.585,1.585,0,0,0,.072.5,1,1,0,0,0,.237.394,1.028,1.028,0,0,0,.411.246,1.733,1.733,0,0,0,.56.079,1.669,1.669,0,0,0,.576-.095,1.64,1.64,0,0,0,.46-.254,1.773,1.773,0,0,0,.352-.374,2.261,2.261,0,0,0,.241-.449,2.448,2.448,0,0,0,.141-.495,2.592,2.592,0,0,0,.046-.494Zm-.54.031.151-.017-.033-.281,0-.028-.123-.233-.018-.036-.228-.154-.028-.018-.332-.053-.027,0-.364.073-.029.005-.3.2-.021.013-.223.286-.011.015-.153.341-.006.013-.088.368,0,.012-.029.368v.015l.037.295,0,.028.124.236.017.033.229.154.028.021.328.051.027,0,.367-.07.029-.006.3-.2.02-.013.223-.288.012-.014.154-.344.005-.013.088-.368,0-.01.029-.367v-.029l-.151.017-.15-.013-.028.344-.079.329-.133.3-.181.233-.226.151-.285.056-.233-.038-.14-.094-.08-.153-.029-.238.027-.328.078-.328.132-.295.182-.233.228-.15.282-.056.239.037.137.094.08.15.029.253.15-.018-.15-.013Zm4.94-.982-.151-.015-.005.056-.014.046.145.044-.144-.05c-.077.223-.163.449-.255.679s-.195.452-.308.678-.229.447-.359.665-.265.426-.411.627l.123.088-.1-.109-.035.032-.032.013-.069.01-.1,0-.118-.005-.044-.01-.021-.015-.088.123.147-.037-.011-.042-.209-2.041-.288-.047-.934,2.029-.014.019-.014.009-.065.013-.13.005-.132-.005-.065-.013-.032-.021-.078.131.144-.05-.014-.038L557.53,69.3l-.005-.049v-.022l.008-.044-.149-.029.1.112.012-.01.028-.005.114-.005.11.005.022,0,0,0,.1-.112-.147.037.009.037.217,2.293v.022l.291.062.01-.027,1.057-2.3.009-.013.018-.013-.089-.123.033.149.06-.014.1-.005.1.005.032.005.013.01.09-.122-.144.049.01.027.227,2.279v.017l.279.081.015-.024c.1-.154.195-.32.292-.505s.191-.379.282-.581.176-.411.258-.624.153-.418.22-.622l-.145-.046.133.072.006-.013.017-.01-.079-.128.026.149.078-.013.114-.005.108.005.031,0,.006.005.085-.126-.149.031.008.032.149-.031-.151-.015.151.015.149-.031-.008-.032-.012-.06-.083-.058-.028-.018-.108-.019h-.01l-.129-.005h-.005l-.141.005h-.01l-.1.017-.03.005-.074.047-.035.022-.045.082-.008.012,0,.014c-.064.2-.136.4-.215.609s-.163.409-.251.606-.178.385-.272.564-.187.337-.279.483l-.015.026.128.081h.151v-.032l-.233-2.33-.021-.059-.015-.045-.078-.058-.028-.021-.109-.021-.01,0-.133-.006h-.006l-.126.005h-.014l-.087.021-.03.006-.068.05-.026.018-.044.073,0,.006-1.064,2.321-.013.029.137.062h.151V71.5l-.219-2.332-.014-.06-.012-.044L557.947,69l-.031-.028-.118-.023-.011,0-.14-.006h-.008l-.139.005h-.014l-.092.021-.041.009-.072.065-.035.033-.023.108,0,.018,0,.063v.005l.005.059.3,2.679.024.071.019.05.1.062.022.014.128.024h.01l.16.006.008,0,.154-.008h.012l.113-.023.023,0,.087-.049.029-.017.06-.086.009-.012.713-1.551.155,1.5V72l.015.065.014.053.091.067.026.018.117.026.012,0,.15.006,0,0,.126-.005h.01l.1-.017.015,0,.09-.033.027-.012.077-.073.012-.01.009-.013c.15-.209.294-.424.424-.65s.259-.451.373-.685.219-.467.315-.7.183-.463.262-.693v0l.019-.064,0-.014.009-.085,0-.022,0-.023Zm2.462.6h-.151l-.08.308-.255.238a1.7,1.7,0,0,1-.5.169,3.975,3.975,0,0,1-.759.062h-.46l-.05.329v.008l-.006.188v.005a.827.827,0,0,0,.194.581.8.8,0,0,0,.61.212,2.127,2.127,0,0,0,.386-.032h0l.276-.064.008,0,.2-.065-.047-.145.041.146.1-.029-.042-.146-.068.136.041.021.068-.135-.146.037.008.031,0,.041-.015.068-.022.06-.014.022-.086.046-.2.059-.27.045-.3.019.008.151v-.151a1.559,1.559,0,0,1-.442-.056l-.286-.156-.168-.263a1.207,1.207,0,0,1-.06-.4,2.492,2.492,0,0,1,.153-.84,2.232,2.232,0,0,1,.2-.406,1.544,1.544,0,0,1,.29-.335,1.375,1.375,0,0,1,.386-.227,1.284,1.284,0,0,1,.49-.087,1.137,1.137,0,0,1,.392.058l.051-.144-.074.132.272.153.13.176.046.218.149-.031h0l.147-.032-.054-.25-.006-.033-.188-.254-.018-.027-.327-.183-.012-.006-.012,0a1.5,1.5,0,0,0-.5-.076,1.619,1.619,0,0,0-.6.108,1.731,1.731,0,0,0-.469.279,1.84,1.84,0,0,0-.349.4,2.5,2.5,0,0,0-.232.464,2.583,2.583,0,0,0-.13.485,2.81,2.81,0,0,0-.041.46,1.5,1.5,0,0,0,.077.5.927.927,0,0,0,.247.383,1.017,1.017,0,0,0,.406.226,1.859,1.859,0,0,0,.528.068h.008l.311-.018h.006l.3-.049.009,0,.233-.068.015-.005.149-.081.033-.018.064-.1.009-.014.038-.1,0-.01.022-.1,0-.009.006-.086,0-.026-.021-.083-.018-.067-.1-.05-.053-.027-.16.045-.005,0-.187.062-.267.062.035.147-.03-.149-.328.027a.419.419,0,0,1-.5-.49h-.151l.151.006.006-.172.009-.062h.2a4.047,4.047,0,0,0,.818-.069,1.91,1.91,0,0,0,.588-.2.958.958,0,0,0,.365-.349.9.9,0,0,0,.12-.46v-.017l0-.015Zm-.526.046.136-.067-.124-.256-.015-.032-.027-.022a.712.712,0,0,0-.447-.128,1,1,0,0,0-.42.082l-.013.006-.286.195-.021.014-.22.295L562,69.91l-.145.349-.087.21h.544a3.216,3.216,0,0,0,.574-.044,1.416,1.416,0,0,0,.395-.126l.015-.008.2-.174.035-.029.067-.24.015-.055-.026-.053-.136.067-.146-.041-.044.151-.151.133.1.114-.072-.133a1.092,1.092,0,0,1-.308.1,2.975,2.975,0,0,1-.518.037h-.09l.044-.1.178-.24.255-.173-.086-.127.064.14.295-.056a.4.4,0,0,1,.259.065l.095-.12-.136.067.124.256.136-.065-.146-.041Zm2.652-.615-.151-.014,0,.045-.012.076.15.023-.149-.027-.017.085-.024.068-.013.026-.011.008.081.127.031-.147-.041-.009-.051-.022h-.005l-.088-.028-.015-.005-.126-.013-.036,0-.277.105-.028.01-.292.273-.009.006-.005.008a2.164,2.164,0,0,0-.264.411,2.137,2.137,0,0,0-.176.517l-.24,1.224-.012.019.132.074-.082-.127-.024.015-.044.01-.1.005-.1-.005-.024-.006-.005,0-.1.112.151-.009V72l.549-2.764.012-.023-.137-.065.083.126.024-.015.035-.006.087-.005.085,0,.05.014.039-.147-.11.1.028.031.112-.1-.151.015,0,.018-.1.487.273.117.163-.235.186-.183.205-.119.2-.044.078.006.085.015.056.017.041.024.076-.132-.145.046.019.06.145-.046-.151-.014.151.014.143-.047-.018-.059-.019-.056-.105-.06-.015-.009-.1-.031-.009,0-.111-.019h-.008l-.115-.009h-.022l-.269.056-.023.005-.261.154-.017.009-.224.22-.01.01-.178.258.124.086.147.031.1-.51.005-.023-.008-.063,0-.051-.064-.067-.029-.032-.109-.028-.015-.005-.122-.006h-.009l-.114.005h-.014l-.087.021-.028.005-.069.046-.034.024-.038.078-.008.017-.565,2.841.005.06,0,.062.078.071.028.026.113.028.014,0,.14.006.009,0,.135-.009h.013l.094-.023.026-.005.067-.044.033-.019.042-.074.012-.022.25-1.272a1.763,1.763,0,0,1,.15-.44,1.845,1.845,0,0,1,.226-.354l-.117-.1.1.11.25-.233.182-.068.058.005.062.019.059.024.013,0,.069.015.059.013.1-.06.035-.021.058-.105.006-.012.035-.1.005-.012.019-.106h0l.013-.086v-.005l0-.053,0-.031-.009-.029Zm2.332.569h-.151l-.079.308-.256.238a1.681,1.681,0,0,1-.494.169,4.012,4.012,0,0,1-.761.062h-.459l-.049.329,0,.008-.006.188v.005a.826.826,0,0,0,.194.581.805.805,0,0,0,.611.212,2.12,2.12,0,0,0,.384-.032l.281-.064.006,0,.2-.064-.05-.145.042.146.1-.029-.041-.146-.065.136.042.022.065-.136-.147.035.009.033,0,.041-.015.068-.023.059-.015.023-.085.046-.2.059-.265.045-.3.019.009.151v-.151a1.547,1.547,0,0,1-.44-.056l-.287-.156-.168-.263a1.166,1.166,0,0,1-.059-.4,2.371,2.371,0,0,1,.036-.409,2.327,2.327,0,0,1,.115-.431,2.184,2.184,0,0,1,.2-.406,1.542,1.542,0,0,1,.29-.335,1.425,1.425,0,0,1,.385-.227,1.289,1.289,0,0,1,.492-.087,1.124,1.124,0,0,1,.391.058l.053-.144-.076.132.269.153.132.176.046.218.149-.031h0l.147-.032-.052-.25-.008-.035-.19-.254-.019-.026-.324-.183-.012-.006-.013,0a1.485,1.485,0,0,0-.494-.076,1.607,1.607,0,0,0-.6.108,1.731,1.731,0,0,0-.469.279,1.848,1.848,0,0,0-.35.4,2.433,2.433,0,0,0-.229.464,2.549,2.549,0,0,0-.131.486,2.668,2.668,0,0,0-.041.459,1.488,1.488,0,0,0,.077.505.946.946,0,0,0,.247.382,1.012,1.012,0,0,0,.408.226,1.833,1.833,0,0,0,.525.068h.005l.315-.018h.008l.295-.049.008,0,.235-.068.017-.005.146-.081.032-.018.067-.1.008-.014.04-.1,0-.01.022-.1,0-.01.005-.087,0-.023-.021-.081-.017-.069-.106-.051-.052-.026-.158.045h-.006l-.185.064-.269.062.035.147-.028-.149-.327.027a.521.521,0,0,1-.39-.115.531.531,0,0,1-.112-.374h-.153l.153.006.005-.172.01-.062h.2a4.092,4.092,0,0,0,.82-.069,1.884,1.884,0,0,0,.585-.2.948.948,0,0,0,.368-.349.887.887,0,0,0,.122-.46v-.015l-.005-.017Zm-.524.046.136-.067-.125-.256-.015-.032-.028-.022a.7.7,0,0,0-.446-.128,1,1,0,0,0-.42.082l-.012.006-.288.195-.021.014-.22.3-.01.014-.146.349-.089.21h.546a3.2,3.2,0,0,0,.574-.044,1.378,1.378,0,0,0,.393-.126l.015-.008.2-.174.035-.029.067-.24.017-.055-.026-.053-.136.067-.146-.041-.044.151-.153.133.1.114-.072-.133a1.08,1.08,0,0,1-.306.1,2.992,2.992,0,0,1-.519.037h-.09l.044-.1.177-.24.258-.173-.086-.127.062.14.3-.056a.406.406,0,0,1,.26.065l.094-.12-.136.067.123.256.138-.065-.146-.041Zm2.834,2.18-.114-.1-.027.031-.117.014-.077,0-.017-.006-.006-.005-.1.115.151-.005V72l.1-.505-.274-.114-.136.2-.22.19-.285.144-.315.054-.267-.04-.176-.1-.118-.149-.077-.187-.038-.2-.01-.2-.153.008h.153a2.451,2.451,0,0,1,.033-.382,2.367,2.367,0,0,1,.1-.422,2.482,2.482,0,0,1,.179-.418,1.54,1.54,0,0,1,.255-.349,1.227,1.227,0,0,1,.338-.238,1,1,0,0,1,.427-.088v-.153l-.018.153.232.026.179.068.151.105.136.14.2.2.369-1.852.013-.026-.141-.06.085.127.024-.018.042-.009.105-.006.1.006.027.006.012.01.1-.117-.151,0v.024l-.824,4.126.149.029-.114-.1.114.1.149.029.829-4.16V67.8l0-.068-.088-.074-.027-.023-.108-.027-.014,0-.138-.008h-.009l-.136.008h-.013l-.095.023-.027.005-.068.046-.038.024-.035.083-.008.015-.319,1.6.149.029.108-.105-.146-.15-.012-.01-.188-.132-.015-.01-.231-.087-.018-.006-.27-.032h-.017a1.284,1.284,0,0,0-.556.118,1.564,1.564,0,0,0-.423.3,1.869,1.869,0,0,0-.308.42,2.871,2.871,0,0,0-.2.465,2.613,2.613,0,0,0-.113.473,2.786,2.786,0,0,0-.038.427V71.1l.013.215v.009l.045.238,0,.015.1.235.006.019.163.206.019.023.253.144.023.013.346.054.024,0,.387-.067.022-.005.341-.17.015-.009.265-.227.015-.013.159-.236-.126-.085-.15-.029-.1.523,0,.017,0,.062V72.1l.083.073.027.023.1.026.014,0,.119.006.014,0,.2-.024.058-.008.1-.118.026-.029.009-.04Zm-.1-2.06.126-.086a1.357,1.357,0,0,0-.358-.367.834.834,0,0,0-.464-.137h-.019l-.317.079-.033.01-.265.228-.017.014-.2.311-.008.012-.131.356,0,.01-.076.359,0,.009-.024.324v.012a.99.99,0,0,0,.127.545.521.521,0,0,0,.456.229h.02l.362-.1.031-.009.347-.278.008-.006.009-.01a1.863,1.863,0,0,0,.287-.426,2.144,2.144,0,0,0,.183-.535l.108-.517.013-.063-.036-.054-.126.086-.149-.031-.106.517a1.846,1.846,0,0,1-.158.459,1.569,1.569,0,0,1-.241.359l.111.1L570,71.216l-.3.238-.313.085.04.146v-.151l-.2-.09a.7.7,0,0,1-.08-.381H569l.151.012.024-.3.068-.327.117-.315.163-.259.192-.167.264-.067-.037-.147v.153l.3.087a1.048,1.048,0,0,1,.274.285l.124-.086-.149-.031Zm2.616,2.06-.133-.072,0,.005-.013.009.081.127-.033-.147-.07.017-.1.005-.1-.005-.026-.006-.009-.006-.1.114.151-.009V72l.82-4.116.012-.027-.137-.064.087.126.021-.017.042-.008.109-.005.1.005.022,0v0l.106-.108-.151.01v.022l-.823,4.136.149.029-.133-.072.133.072.15.029.831-4.174,0-.064-.005-.058-.074-.072-.029-.029-.117-.028-.013,0-.137-.006h-.006l-.136.005H573.7l-.1.021-.03.006-.072.05-.033.022-.037.079-.009.019-.836,4.19.005.062,0,.063.082.072.027.023.109.028.015,0,.14.006.009,0,.135-.009h.013l.095-.023.026-.005.067-.044.035-.021.041-.076.01-.022.005-.021Zm1.884-3.742-.146-.042-.034.12-.031.042-.051.024-.115.009-.1-.009-.01-.006,0-.01.008-.1.035-.105.033-.045.049-.026.117-.01.1.01.01.005,0,.013-.012.112.15.017-.146-.042.146.042.15.015.017-.145,0-.032-.041-.127-.018-.054-.137-.082-.029-.018-.182-.017h-.013l-.171.015-.029,0-.133.064-.035.018-.092.127-.014.021-.054.165-.005.017-.014.164,0,.031.042.126.018.053.136.082.028.017.183.017h.014l.172-.015.028,0,.133-.063.033-.018.092-.124.017-.021.05-.173,0-.014v-.013Zm-.8,3.742-.132-.076-.006.008-.014.01.082.127-.035-.147-.068.017-.1.005-.1-.005-.026-.006-.005,0-.1.112.151-.009V72l.549-2.761.011-.022-.136-.067.081.128.026-.015.042-.012.108-.005.1.005.026.006.006.006.1-.114-.15.015v.018l-.55,2.778.149.029-.132-.076.132.076.149.029.559-2.823-.006-.063-.006-.059L574.954,69l-.027-.024-.112-.028-.015,0-.135-.009h-.009l-.137.006-.014,0-.095.022-.026.005-.069.046-.036.022-.039.079-.006.018-.565,2.835.005.062,0,.062.078.071.027.026.113.028.014,0,.141.006.008,0,.135-.009h.014l.094-.023.024-.005.069-.044.032-.019.042-.074.01-.022.006-.023Zm3.257-2.824-.151-.022-.006.05-.018.055c-.076.222-.16.446-.256.676s-.2.451-.314.678-.241.446-.378.664a7.23,7.23,0,0,1-.45.623l.118.095-.113-.1-.024.027-.022.009-.06.01-.1,0-.137-.005-.047-.01-.02-.015-.09.123.145-.047-.014-.041-.411-2.633,0-.053v-.027l.009-.046-.149-.029.1.117.011-.01.028-.005.108-.005.114.005.023,0,.006.005.1-.114-.146.037.01.04.333,2.289v.026l.267.1.017-.021.005-.006.006-.009c.123-.185.236-.368.338-.541s.2-.361.29-.547.173-.387.251-.593.16-.432.242-.679l-.145-.046.133.072.006-.014.018-.01-.082-.127.026.149.078-.013.117-.005.106.005.037.005.012.008.078-.129-.144.047.012.033.144-.049-.151-.022.151.022.142-.047-.009-.033-.019-.053-.083-.051-.026-.015-.1-.018h-.009l-.128-.005h-.006l-.141.005h-.01l-.1.018-.031.005-.074.047-.033.022-.045.082-.005.012-.005.014c-.08.241-.16.463-.237.664s-.156.39-.241.572-.177.355-.277.523-.21.349-.331.529l.126.085-.115-.1-.017.019.115.1h.151v-.047l-.338-2.327-.014-.056-.01-.045L575.65,69l-.029-.027-.117-.023-.011,0-.144-.006h-.006l-.135.005H575.2l-.091.021-.036.008-.068.058-.041.035-.023.114,0,.018v.069l.005.062v.008l.417,2.669.022.065.015.047.086.063.027.018.122.026.011,0,.171.006,0,0,.123-.005h.012l.1-.017.018,0,.083-.037.031-.012.069-.078,0,0,0,0a7.079,7.079,0,0,0,.471-.652c.141-.226.272-.454.391-.687s.228-.468.326-.7.185-.467.263-.7l.023-.067,0-.013.012-.076.005-.037-.013-.033Z" transform="translate(-543.985 11.197)" fill="#030504"/>
    <path id="Path_60" data-name="Path 60" d="M579.789,69.437a.759.759,0,0,1-.1.386.821.821,0,0,1-.312.292,1.765,1.765,0,0,1-.541.187,4.147,4.147,0,0,1-.79.064h-.329l-.029.2-.006.178a.675.675,0,0,0,.153.477.661.661,0,0,0,.5.164,1.924,1.924,0,0,0,.358-.029l.274-.064.191-.063.1-.029.04.019.015.058-.006.076-.019.088-.033.086-.045.067-.132.073-.224.067-.286.047-.31.018a1.71,1.71,0,0,1-.486-.062.863.863,0,0,1-.347-.191.78.78,0,0,1-.206-.322,1.338,1.338,0,0,1-.068-.452,2.819,2.819,0,0,1,.037-.436,2.6,2.6,0,0,1,.124-.458,2.151,2.151,0,0,1,.217-.435,1.691,1.691,0,0,1,.319-.368,1.5,1.5,0,0,1,.428-.255,1.436,1.436,0,0,1,.546-.1,1.316,1.316,0,0,1,.443.065l.3.169.17.227Zm-.524.047-.126-.258a.575.575,0,0,0-.354-.1.864.864,0,0,0-.358.071l-.276.188-.206.274L577.81,70h.317a3.08,3.08,0,0,0,.546-.041,1.31,1.31,0,0,0,.35-.11l.187-.163Zm2.629-.465-.009.081-.027.1-.04.086-.051.033-.09-.029-.126-.065-.178-.07-.247-.031-.242.041-.178.1-.109.153-.036.178.081.208.208.147.269.129.268.154.205.22a.614.614,0,0,1,.082.326.982.982,0,0,1-.086.406l-.246.324a1.152,1.152,0,0,1-.386.21,1.581,1.581,0,0,1-.508.076l-.276-.021-.233-.056-.18-.076-.114-.079-.036-.051-.01-.063,0-.06.014-.072.019-.072.027-.062.031-.045.036-.017.09.04.14.092.212.09.319.042.294-.042.2-.112.119-.164.039-.195-.081-.214-.2-.15-.267-.131-.265-.154-.206-.218a.594.594,0,0,1-.081-.327.883.883,0,0,1,.081-.382l.227-.305a1.051,1.051,0,0,1,.356-.2,1.428,1.428,0,0,1,.458-.072l.227.019.205.046.161.062.1.069Zm.7,2.247-.009.1-.024.122-.037.115-.06.09-.106.056-.174.018-.142-.012-.087-.042-.044-.07-.013-.1.009-.11.024-.118.041-.112.058-.087.1-.055.181-.022.145.015.086.045.042.072Zm-34.708,3.822a1.34,1.34,0,0,1-.06.409,1.138,1.138,0,0,1-.185.354l-.308.288a1.625,1.625,0,0,1-.43.2l.267.249a1.672,1.672,0,0,1,.159.5l.164.89.019.11.008.091-.017.047-.049.033-.1.019-.148.006-.131-.006L547,78.26l-.036-.037-.018-.064-.158-.946-.07-.3-.127-.233-.206-.151-.305-.053h-.359l-.345,1.715-.023.04-.047.029-.087.019-.131.008-.123-.006-.079-.017-.04-.031,0-.042.745-3.729.1-.17.164-.047h.873a2.064,2.064,0,0,1,.5.056,1.063,1.063,0,0,1,.363.163l.22.265a.856.856,0,0,1,.072.358m-.578.085-.037-.2-.117-.155-.209-.1-.305-.035h-.556l-.274,1.355h.473a1.337,1.337,0,0,0,.47-.074.9.9,0,0,0,.318-.2l.179-.279Zm3.116.793a.745.745,0,0,1-.1.385.805.805,0,0,1-.312.294,1.809,1.809,0,0,1-.541.187,4.24,4.24,0,0,1-.788.064h-.329l-.029.2-.008.181a.671.671,0,0,0,.153.476.663.663,0,0,0,.5.164,1.936,1.936,0,0,0,.359-.029l.273-.063.191-.064.1-.031.041.022.015.056-.008.076-.019.088-.032.086-.045.067-.132.074-.224.065-.287.049-.31.018a1.674,1.674,0,0,1-.486-.063.855.855,0,0,1-.346-.19.8.8,0,0,1-.206-.322,1.355,1.355,0,0,1-.069-.455,2.8,2.8,0,0,1,.038-.433,2.559,2.559,0,0,1,.123-.459,2.386,2.386,0,0,1,.218-.436,1.742,1.742,0,0,1,.318-.367,1.568,1.568,0,0,1,.429-.255,1.46,1.46,0,0,1,.546-.1,1.359,1.359,0,0,1,.443.065l.3.168.169.229Zm-.526.046-.124-.256a.564.564,0,0,0-.354-.1.864.864,0,0,0-.358.069l-.276.187-.206.276-.136.333h.315a2.95,2.95,0,0,0,.546-.042,1.192,1.192,0,0,0,.351-.112l.187-.161Zm2.63-.467-.01.083-.026.1-.04.086-.052.033-.089-.029-.127-.068-.178-.068-.246-.031-.244.038-.178.105-.108.154-.037.177.082.208.208.147.268.129.268.155.205.22a.6.6,0,0,1,.083.326.987.987,0,0,1-.086.406l-.247.323a1.13,1.13,0,0,1-.386.211,1.6,1.6,0,0,1-.506.076l-.276-.022-.234-.056-.178-.076-.115-.079-.033-.05-.013-.064,0-.059.014-.072.019-.072.027-.062.031-.045.037-.019.09.042.138.09.213.091.318.042.294-.042.2-.112.119-.163.04-.195-.082-.214-.2-.15-.268-.132-.264-.153-.208-.218a.61.61,0,0,1-.081-.328.893.893,0,0,1,.081-.381l.228-.305a1.056,1.056,0,0,1,.355-.2,1.365,1.365,0,0,1,.458-.073l.229.019.2.046.162.062.1.07Zm1.292-1.095-.042.146-.069.1-.109.051-.159.014-.147-.014-.089-.051-.032-.1.014-.146.047-.145.069-.1.108-.053.156-.014.149.014.087.053.032.1Zm-.8,3.742-.023.041-.046.029-.082.019-.127.006-.127-.006-.073-.019-.035-.029,0-.041.559-2.8.018-.041.046-.031.082-.019.129-.005.123.005.076.019.032.031.006.041Zm1.078,0-.023.041-.047.029-.08.019-.127.006-.126-.006-.077-.019-.032-.029,0-.041.828-4.154.021-.044.047-.032.082-.018.128-.006.123.006.076.018.032.032,0,.044Zm1.884-3.742-.042.146-.07.1-.108.051-.16.014-.149-.014-.087-.051-.031-.1.013-.146.046-.145.07-.1.106-.053.159-.014.147.014.089.053.032.1Zm-.806,3.742-.023.041-.046.029-.081.019-.128.006-.124-.006-.074-.019-.036-.029v-.041l.558-2.8.018-.041.046-.031.083-.019.129-.005.122.005.076.019.033.031.005.041Zm3.239-2.227a.733.733,0,0,1-.1.385.809.809,0,0,1-.31.294,1.823,1.823,0,0,1-.541.187,4.244,4.244,0,0,1-.79.064h-.329l-.031.2-.006.181a.665.665,0,0,0,.154.476.657.657,0,0,0,.5.164,1.9,1.9,0,0,0,.358-.029l.274-.063.192-.064.1-.031.042.022.014.056-.008.076-.018.088-.033.086-.044.067-.133.074-.226.065-.285.049-.311.018a1.666,1.666,0,0,1-.485-.063.847.847,0,0,1-.346-.19.785.785,0,0,1-.208-.322,1.385,1.385,0,0,1-.069-.455,2.649,2.649,0,0,1,.04-.433,2.451,2.451,0,0,1,.123-.459,2.307,2.307,0,0,1,.218-.436,1.733,1.733,0,0,1,.317-.367,1.618,1.618,0,0,1,.428-.255,1.477,1.477,0,0,1,.547-.1,1.34,1.34,0,0,1,.442.065l.3.168.169.229Zm-.526.046-.123-.256a.565.565,0,0,0-.355-.1.872.872,0,0,0-.358.069l-.276.187-.205.276-.138.333h.318a2.936,2.936,0,0,0,.545-.042,1.168,1.168,0,0,0,.351-.112l.187-.161Zm3.243,0-.013.215-.033.217-.351,1.748-.021.041-.046.029-.083.019-.128.006-.123-.006-.073-.019-.035-.029-.006-.041.347-1.729.028-.187.009-.158-.082-.308-.269-.115-.338.095-.319.261a1.733,1.733,0,0,0-.264.394,1.9,1.9,0,0,0-.17.5l-.249,1.251-.022.041-.046.029-.083.019-.124.006-.127-.006-.074-.019-.033-.029,0-.041.563-2.8.018-.041.042-.031.076-.017.106,0,.108,0,.065.017.03.031,0,.041-.106.535.153-.223.251-.219.323-.164.364-.065a.849.849,0,0,1,.35.064l.227.167.123.244Zm2.1-.588,0,.06-.013.068-.023.068-.035.062-.037.041-.051.017h-.714l-.314,1.56-.022.146-.01.135.068.231.215.073.147-.013.106-.029.078-.031.059-.014.04.018.013.064-.006.088-.02.095-.031.083-.041.059-.076.044-.114.038-.137.027-.146.009-.3-.037-.213-.117-.129-.2-.042-.288.005-.081.009-.1.015-.1.017-.095.317-1.573h-.392l-.051-.022-.017-.078.008-.1.028-.106.047-.085.071-.033h.392l.135-.667.019-.04.047-.032.082-.022.127-.005.123.005.074.022.033.032,0,.04-.131.667h.714l.062.033Z" transform="translate(-543.743 11.519)" fill="#030504"/>
    <path id="Path_61" data-name="Path 61" d="M579.823,69.471h-.151l-.078.309-.258.238a1.609,1.609,0,0,1-.493.169,3.9,3.9,0,0,1-.76.062h-.46l-.049.328v.01l-.008.186v.006a.819.819,0,0,0,.193.579.8.8,0,0,0,.611.214,2.031,2.031,0,0,0,.386-.033h0l.277-.064h.006l.2-.064.1-.028-.04-.146-.068.135.041.021.067-.136-.145.04.008.031,0,.038-.015.069-.023.059-.015.023-.085.047-.2.058-.271.046-.3.018.009.15v-.151a1.558,1.558,0,0,1-.442-.055l-.287-.156-.167-.261a1.167,1.167,0,0,1-.06-.4,2.515,2.515,0,0,1,.036-.41,2.485,2.485,0,0,1,.115-.431,2.1,2.1,0,0,1,.2-.405,1.486,1.486,0,0,1,.29-.336,1.377,1.377,0,0,1,.386-.228,1.291,1.291,0,0,1,.49-.086,1.205,1.205,0,0,1,.392.056l.051-.142-.074.132.269.153.131.174.046.219.149-.032h0l.147-.031-.053-.251-.008-.032-.188-.254-.021-.026-.324-.185-.011-.006-.01,0a1.443,1.443,0,0,0-.5-.074,1.59,1.59,0,0,0-.6.108,1.655,1.655,0,0,0-.469.279,1.85,1.85,0,0,0-.347.4,2.388,2.388,0,0,0-.232.464,2.779,2.779,0,0,0-.172.947,1.46,1.46,0,0,0,.078.505.926.926,0,0,0,.246.381,1,1,0,0,0,.408.226,1.893,1.893,0,0,0,.528.068h.006l.311-.019h.009l.295-.049h.009l.232-.069.018-.005.145-.082.033-.017.065-.1.009-.014.038-.1.005-.012.022-.1V71.41l.008-.085,0-.027-.022-.083-.018-.065-.1-.053-.051-.026-.161.046h-.005l-.186.062-.267.062.035.149-.029-.15-.328.028a.515.515,0,0,1-.39-.117.527.527,0,0,1-.112-.373h-.151l.151.006.005-.172.01-.063h.2a4.292,4.292,0,0,0,.819-.067,1.922,1.922,0,0,0,.587-.2.981.981,0,0,0,.367-.349.9.9,0,0,0,.12-.461v-.015l-.005-.015Zm-.524.047.136-.067-.124-.258-.015-.031-.027-.022a.714.714,0,0,0-.449-.129.993.993,0,0,0-.419.085l-.013,0-.286.195-.022.014-.22.3-.01.015-.145.35-.087.209h.544a3.214,3.214,0,0,0,.574-.044,1.4,1.4,0,0,0,.394-.126l.015-.009.2-.173.033-.031.068-.238.015-.056-.026-.051-.136.067-.146-.042-.044.154-.151.132.1.115-.071-.133a1.146,1.146,0,0,1-.308.094,2.821,2.821,0,0,1-.518.04h-.09l.042-.106.18-.238.255-.174-.086-.124.063.137.295-.055a.428.428,0,0,1,.26.064l.094-.119-.136.067.126.258.136-.067-.146-.042Zm2.629-.465-.15-.019-.009.07-.021.079-.015.032-.015.012.083.126.047-.144-.077-.024-.115-.062-.008-.005-.186-.073-.019-.005-.265-.033-.022,0-.263.044-.028.005-.2.119-.026.017-.128.179-.018.026-.044.209-.01.045.1.249.017.042.242.172.01.009.277.132.241.14.191.205.112-.1-.128.082.059.244-.072.345.137.062-.12-.091-.247.323.122.092-.1-.115a1.037,1.037,0,0,1-.337.182,1.386,1.386,0,0,1-.458.068v.151l.012-.15-.263-.021-.21-.051-.154-.064-.08-.056,0-.014v-.032l.012-.056.015-.055.017-.037.022-.036-.124-.083.063.137.037-.017-.064-.137-.063.137.078.036.131.085.012.008.224.095.021.009.339.045.019,0,.314-.045.027,0,.229-.126.029-.015.14-.192.019-.027.045-.227.009-.042-.1-.254-.015-.042-.238-.177-.012-.008-.273-.136-.244-.138-.188-.2-.112.1.128-.081-.058-.246.067-.318-.137-.064.122.091.228-.3-.123-.092.1.114.305-.172a1.279,1.279,0,0,1,.408-.063v-.151l-.013.151.218.018.183.041.135.053.047.032.017.049.143-.05-.15-.019.15.019.144-.053-.035-.095-.018-.047-.144-.1-.014-.01-.178-.067-.01-.005-.215-.049h-.008l-.241-.021H581.2a1.544,1.544,0,0,0-.508.079,1.2,1.2,0,0,0-.405.231l-.013.01-.236.317-.01.013-.006.014a1.012,1.012,0,0,0-.1.446.74.74,0,0,0,.105.409l.008.012.217.228.015.017.285.164,0,0,.259.128.155.115.051.132-.024.119-.079.108-.151.083-.245.035-.277-.036-.181-.078-.128-.082-.009-.008-.1-.045-.065-.029-.1.046-.039.019-.055.079-.006.012-.032.073-.006.012-.021.082,0,.006-.014.077v.01l-.005.071V71.5l.013.081.008.032.054.079.015.022.138.095.013.009.192.082.01.005.247.059.012,0,.286.023h.013a1.75,1.75,0,0,0,.555-.083,1.317,1.317,0,0,0,.436-.24l.013-.01.258-.337.009-.014.009-.015a1.157,1.157,0,0,0,.1-.469.744.744,0,0,0-.108-.405l-.006-.013-.215-.231-.015-.017-.287-.167-.005,0-.261-.127-.16-.114-.05-.123.022-.1.072-.1.126-.074.192-.032.206.027.154.059.118.063.01.006.1.033.07.022.113-.074.036-.023.058-.124.008-.012.03-.114V69.16l.01-.091.005-.036L582.071,69Zm.7,2.247-.153-.013-.006.094-.019.105-.03.086-.028.04-.047.026-.13.013-.1-.008-.023-.01,0-.006-.006-.047.006-.086.019-.1.032-.085.027-.042.042-.022.133-.017.1.01.023.012,0,.008.006.058.151-.018-.153-.013.153.013.15-.019-.012-.088,0-.033-.059-.1-.022-.036-.122-.065-.027-.014-.174-.018h-.017l-.2.022-.031,0-.127.071-.032.019-.078.117-.009.015-.047.126,0,.01-.027.131,0,.009-.009.122v.015l.015.109,0,.032.061.1.023.038.128.062.024.013.17.014h.014l.188-.019.029,0,.131-.071.036-.018.081-.122.011-.017.045-.133,0-.01.026-.132v-.009l.01-.11v-.031Zm-34.708,3.822h-.151a1.252,1.252,0,0,1-.054.364l-.16.308.12.091-.1-.11-.309.287.1.112-.087-.126a1.457,1.457,0,0,1-.388.185l-.247.079.458.424.1-.112-.132.073a1.543,1.543,0,0,1,.141.455l.165.89.015.1.006.056-.006.017.144.049-.085-.126-.023.017-.055.012-.128,0-.106,0-.021-.008-.009-.008-.109.105.148-.038-.015-.059-.159-.937v-.005l-.072-.3,0-.019-.137-.251-.015-.029-.235-.172-.029-.022-.34-.06-.014,0h-.493l-.367,1.815-.01.022.132.072-.078-.129-.026.017-.051.01-.112.006-.1,0-.035-.009-.013-.009-.091.12.151-.014,0-.022.737-3.68.056-.1.086-.024h.851a1.877,1.877,0,0,1,.466.051.886.886,0,0,1,.309.137l.09-.122-.117.1.219.265.118-.1-.138.063.059.295h.3a1,1,0,0,0-.086-.42l-.008-.018-.233-.281-.012-.014-.015-.01a1.159,1.159,0,0,0-.414-.188,2.108,2.108,0,0,0-.541-.062h-.893l-.186.055-.059.017-.131.22-.013.022-.755,3.775.008.067.005.065.092.07.027.019.113.026.013,0,.136.006h.006l.141-.01h.012l.1-.02.026-.006.07-.044.035-.021.041-.076.011-.021.326-1.616h.22l.256.046.151.11.1.185.065.273.158.941v.009l.018.068.009.038.067.068.027.029.114.033.019,0,.149.008h.005l.156-.008h.012l.106-.022.029-.006.074-.049.041-.028.035-.1.009-.032-.01-.123v0l-.019-.117-.165-.893a1.785,1.785,0,0,0-.174-.546l-.01-.021-.287-.265-.1.11.046.145a1.8,1.8,0,0,0,.469-.223l.009-.006.317-.295.01-.009.006-.01a1.313,1.313,0,0,0,.209-.4,1.533,1.533,0,0,0,.067-.455Zm-.578.085.149-.028-.037-.2-.006-.035-.139-.183-.022-.029-.241-.117-.024-.009-.329-.038h-.7l-.3,1.475-.037.182h.659a1.481,1.481,0,0,0,.524-.083,1.047,1.047,0,0,0,.37-.232l.01-.012.19-.292.018-.024.062-.351.005-.027-.005-.028-.149.028-.15-.027-.051.291-.164.253.128.083L547,75.7l-.265.163a1.159,1.159,0,0,1-.415.065h-.287l.211-1.054h.426l.27.032.151.073.073.1.031.162.15-.028-.15-.027Zm3.116.793h-.151l-.079.308-.255.238a1.615,1.615,0,0,1-.5.169,3.985,3.985,0,0,1-.759.063h-.46l-.05.328v.009l-.006.187h0v.005a.831.831,0,0,0,.194.579.8.8,0,0,0,.61.212,2.107,2.107,0,0,0,.385-.031h.005l.276-.064h.009l.195-.067.1-.028-.042-.146-.067.137.04.019.068-.135-.146.037.009.031-.005.041-.015.068-.022.059-.015.023-.085.047-.2.059-.268.045-.3.018.009.151v-.151a1.5,1.5,0,0,1-.441-.056L548.2,78l-.167-.261a1.185,1.185,0,0,1-.062-.405,2.554,2.554,0,0,1,.037-.409,2.453,2.453,0,0,1,.115-.431,2.195,2.195,0,0,1,.2-.406,1.532,1.532,0,0,1,.288-.333,1.4,1.4,0,0,1,.386-.229,1.334,1.334,0,0,1,.491-.086,1.16,1.16,0,0,1,.391.058l.053-.144-.074.132.269.153.131.176.046.218.149-.031h0l.147-.032-.054-.25-.006-.032-.19-.256-.018-.024-.326-.185L550,75.215l-.012,0a1.452,1.452,0,0,0-.493-.076,1.611,1.611,0,0,0-.6.109,1.631,1.631,0,0,0-.469.281,1.789,1.789,0,0,0-.347.4,2.442,2.442,0,0,0-.232.463,2.8,2.8,0,0,0-.172.946,1.5,1.5,0,0,0,.077.506.951.951,0,0,0,.247.382,1.013,1.013,0,0,0,.406.224,1.859,1.859,0,0,0,.528.068h.008l.311-.019h.008l.295-.049h.009l.233-.069.017,0,.146-.082.032-.018.067-.1.008-.014.04-.1,0-.01.023-.1v-.01l.006-.083,0-.027-.02-.083-.018-.065-.1-.053-.054-.026-.16.047h0l-.189.063-.267.062.036.147-.028-.149L549,77.8a.419.419,0,0,1-.5-.488h-.151l.151.005.006-.172.009-.062h.2a4.386,4.386,0,0,0,.818-.067,1.944,1.944,0,0,0,.587-.205.943.943,0,0,0,.367-.349.885.885,0,0,0,.121-.46v-.017l0-.015Zm-.526.046.137-.065-.126-.258-.015-.032-.027-.022a.718.718,0,0,0-.447-.129,1,1,0,0,0-.42.083l-.011.006-.287.195-.021.014-.22.295-.011.015-.145.351-.087.209h.544a3.087,3.087,0,0,0,.574-.045,1.312,1.312,0,0,0,.395-.127l.015-.006.2-.173.035-.031.067-.24.015-.055-.024-.051-.137.065-.146-.041-.042.154-.153.132.1.113-.072-.133a1.041,1.041,0,0,1-.306.1,2.985,2.985,0,0,1-.519.038h-.09l.044-.105.178-.24.255-.173-.085-.126.063.138.295-.058a.408.408,0,0,1,.26.067l.094-.119-.136.065.124.256.136-.065-.146-.041Zm2.63-.467-.151-.018-.008.073-.022.077-.015.033-.013.009.081.128.047-.145-.077-.026-.115-.06-.006,0-.187-.073-.018-.006-.265-.033-.022,0-.263.042-.028.005-.2.12-.027.015-.128.179-.018.027-.044.209-.01.044.1.25.017.04.244.174.01.008.274.132.244.141.191.2.11-.1-.128.081.059.245-.07.345.137.062-.12-.094-.247.324.12.092-.1-.115a.991.991,0,0,1-.337.182,1.385,1.385,0,0,1-.458.069v.151l.01-.15-.261-.023-.212-.05-.153-.064-.078-.055h0l0-.015v-.029l.01-.058.015-.054.017-.038.023-.036-.126-.082.064.137.036-.018-.063-.138-.063.14.079.035.129.086.012.006.224.1.018.008.34.046.021,0,.314-.046.028,0,.227-.124.029-.017.141-.19.019-.028.045-.229.008-.041-.1-.255-.015-.04-.238-.177-.012-.009-.274-.135-.242-.141-.19-.2-.112.1.128-.082-.058-.246.068-.318-.139-.063.123.09.227-.305-.122-.09.1.114.3-.172a1.215,1.215,0,0,1,.408-.064v-.151l-.013.151.218.018.183.042.136.051.047.032.017.049.143-.051-.151-.018.151.018.142-.05-.035-.1-.017-.046-.144-.1-.015-.01-.178-.069-.01,0-.214-.049-.01,0-.238-.021h-.013a1.536,1.536,0,0,0-.506.082,1.141,1.141,0,0,0-.406.229l-.013.01-.236.318-.009.012-.008.014a1.032,1.032,0,0,0-.095.446.737.737,0,0,0,.105.409l.008.013.215.228.015.015.285.165h0l.259.128.156.117.05.129-.023.12-.081.109-.15.081-.246.037-.276-.038-.182-.077-.127-.082-.009-.006-.1-.046-.064-.029-.1.047-.04.017-.052.082-.008.01-.032.074-.005.01-.022.082,0,.005-.014.079v.009l0,.071v.018l.015.082.005.031.052.076.015.024.138.095.013.009.192.082.011.005.247.059.01,0,.287.023h.013a1.714,1.714,0,0,0,.555-.083,1.318,1.318,0,0,0,.437-.241l.012-.009.256-.337.012-.014.006-.015a1.135,1.135,0,0,0,.1-.468.74.74,0,0,0-.106-.406l-.008-.012-.214-.232-.015-.017-.288-.165,0,0-.263-.127-.16-.115-.049-.122.021-.1.072-.1.126-.074.194-.031.206.026.153.059.118.063.012.005.1.035.068.022.114-.072.037-.023.058-.126.006-.013.03-.114v-.01l.011-.092,0-.036-.012-.032Zm1.292-1.095-.146-.042-.035.119-.031.044-.05.024-.117.012-.1-.01-.011-.006,0-.01.009-.1.035-.106.033-.046.047-.024.117-.009.1.009.01.006,0,.012-.013.113.151.015-.146-.042.146.042.151.015.015-.145,0-.032-.041-.126-.018-.055-.136-.082-.03-.018-.183-.017H553.6l-.171.015-.028,0-.132.065-.035.017-.092.127-.014.021-.053.167-.006.015-.015.163,0,.032.042.126.017.053.137.081.028.018.181.018h.017l.173-.017.027,0,.133-.063.033-.017.092-.126.017-.021.049-.173,0-.013,0-.014Zm-.8,3.742-.135-.072,0,.005-.013.01.082.127-.035-.147-.069.017-.105,0-.1,0-.024-.008-.006-.005-.1.114.151-.01v-.021l.551-2.764.01-.026-.137-.06.083.127.023-.017.044-.01.108,0,.1,0,.023.006,0,0,.1-.11-.15.02v.015L552.9,78.2l.149.029-.135-.072.135.072.147.029.561-2.824-.009-.065-.006-.054-.072-.067-.029-.027-.113-.029-.015,0-.136-.008h-.009l-.137.008h-.014l-.095.022-.027.006-.069.046-.037.023-.036.082-.006.015-.564,2.833,0,.062,0,.062.082.073.027.023.109.029.015,0,.141.008h.009l.132-.008h.014l.095-.021.027-.008.069-.044.032-.022.041-.076.01-.021,0-.021Zm1.078,0L554,78.151l0,.009-.015.01.081.127-.035-.147-.067.017-.105,0-.1,0-.023-.008-.005,0-.1.113.153-.01,0-.021.82-4.117.013-.026-.137-.065.084.126.023-.015.042-.009.108-.005.1.005.019,0,.005.005.105-.11-.15.014v.023L553.98,78.2l.149.029L554,78.151l.132.076.149.029.831-4.175-.005-.067-.005-.056-.074-.071L555,73.861l-.114-.029-.015,0-.137-.008h-.008l-.135.006h-.013l-.1.021-.028.005-.071.049-.036.023-.037.082-.009.017-.834,4.192,0,.06,0,.06.078.072.027.026.113.029.015,0,.142.008h.006l.133-.008H554l.095-.021.024-.008.069-.044.031-.021.042-.073.013-.022,0-.023Zm1.884-3.742-.146-.042-.036.119-.031.044-.05.024-.117.012-.1-.01-.01-.006,0-.012.009-.1.033-.105.033-.046.049-.024.118-.009.1.009.012.006,0,.012-.013.113.153.015-.146-.042.146.042.15.015.015-.145,0-.032-.041-.126-.018-.055-.137-.082-.029-.018-.181-.017h-.013l-.173.015-.03,0-.132.065-.033.017-.094.127-.014.021-.053.167-.006.017-.014.163,0,.031.042.126.018.051.133.082.029.018.185.018h.014l.174-.017.027,0,.133-.063.033-.017.091-.126.017-.021.051-.173,0-.013V74.5Zm-.806,3.742-.135-.072,0,.005-.014.01.082.127-.035-.147-.068.017-.105,0-.1,0-.023-.008-.008-.005-.1.114.152-.006v-.023l.549-2.765.011-.026-.138-.06.083.127.023-.017.044-.01.109,0,.1,0,.024.008.008.005.1-.113-.15.015v.018l-.551,2.776.149.029-.135-.072.135.072.149.029.56-2.82-.005-.064-.008-.059-.077-.069-.028-.024-.11-.029-.015,0-.137-.008h-.006l-.137.008h-.013l-.1.021-.028.008-.069.046-.036.023-.036.082-.008.014-.563,2.833v.059l0,.064.085.074.027.023.108.029.015,0,.142.008h.006l.135-.008h.014l.1-.021.024-.008.069-.044.032-.022.041-.076.01-.021.005-.021ZM558.446,76h-.153l-.078.308-.254.238a1.628,1.628,0,0,1-.5.169,3.97,3.97,0,0,1-.76.063h-.459l-.051.328v.009l-.006.187h0v.005a.82.82,0,0,0,.195.579.8.8,0,0,0,.609.212,2.121,2.121,0,0,0,.386-.031h0l.277-.064h.008l.2-.065.1-.029-.044-.146-.068.137.041.019.069-.135-.147.037.008.031,0,.041-.014.068-.022.06-.017.022-.083.047-.2.059-.265.045-.305.018.009.151v-.151a1.511,1.511,0,0,1-.441-.056L556.188,78l-.168-.261a1.269,1.269,0,0,1-.06-.405,2.547,2.547,0,0,1,.037-.409,2.38,2.38,0,0,1,.117-.431,2.115,2.115,0,0,1,.2-.406,1.506,1.506,0,0,1,.29-.333,1.431,1.431,0,0,1,.385-.229,1.322,1.322,0,0,1,.491-.086,1.179,1.179,0,0,1,.392.058l.05-.144-.074.132.272.153.131.176.046.218.147-.031h0l.149-.031-.052-.251-.006-.032-.19-.256-.019-.024L558,75.221l-.01-.005-.012-.005a1.465,1.465,0,0,0-.495-.076,1.621,1.621,0,0,0-.6.109,1.7,1.7,0,0,0-.468.279,1.8,1.8,0,0,0-.349.4,2.451,2.451,0,0,0-.233.463,2.923,2.923,0,0,0-.131.486,3.124,3.124,0,0,0-.04.46,1.511,1.511,0,0,0,.077.505.939.939,0,0,0,.247.381.975.975,0,0,0,.406.227,1.865,1.865,0,0,0,.528.068h.006l.315-.019h.005l.295-.049h.01l.233-.069.015,0,.148-.082.033-.018.064-.1.009-.014.04-.1,0-.01.021-.1v-.01l.009-.083,0-.027-.022-.083-.019-.065-.1-.053-.054-.026-.16.047h0l-.187.062-.267.062.033.147-.028-.149-.329.027a.519.519,0,0,1-.388-.117.529.529,0,0,1-.113-.372h-.151l.151.005.008-.172.008-.062h.2a4.356,4.356,0,0,0,.818-.067,1.951,1.951,0,0,0,.588-.205.953.953,0,0,0,.367-.349A.9.9,0,0,0,558.6,76v-.015l0-.015Zm-.526.046.137-.065-.123-.258-.015-.032-.029-.023a.732.732,0,0,0-.447-.128,1.006,1.006,0,0,0-.42.083l-.013.006-.286.195-.019.014-.223.295-.01.015-.145.351-.086.209h.543a3.1,3.1,0,0,0,.574-.045,1.362,1.362,0,0,0,.395-.127l.014-.006.2-.173.036-.031.064-.241.015-.055-.024-.05-.137.065-.146-.04-.041.153-.153.131.1.114-.072-.133a1.04,1.04,0,0,1-.306.1,2.979,2.979,0,0,1-.518.038h-.091l.044-.105.179-.24.254-.173-.085-.126.063.138.295-.058a.418.418,0,0,1,.261.067l.094-.119-.137.065.124.256.136-.065-.146-.04Zm3.243,0-.151-.009-.012.206-.033.206-.346,1.725-.013.024.137.068-.083-.128-.024.015-.044.012-.105,0-.1,0-.023-.008-.008-.005-.1.114.15-.021v-.017l.341-1.706.029-.19v-.008l.009-.165,0-.024-.089-.331-.02-.071-.336-.146-.05-.022-.39.11-.029.009-.345.281-.008.006-.009.01a1.9,1.9,0,0,0-.287.428,2.032,2.032,0,0,0-.183.533l-.244,1.228-.012.022.133.072-.083-.128-.023.015-.044.012-.105,0-.1,0-.024-.008-.006-.005-.1.114.15-.01v-.021l.556-2.766.01-.026-.137-.062.089.123.017-.012.032-.009.087,0,.085,0,.009,0h0l.108-.106-.15.012v.019l-.1.515.273.115.143-.208.222-.192.285-.146.345-.062-.028-.15v.151l.285.05.065-.137-.092.122.2.146.095.187.036.259.15-.019-.151-.009.151.009.15-.021-.037-.286-.005-.024-.135-.265-.017-.031-.255-.19-.013-.01-.014-.005a1,1,0,0,0-.413-.079h-.013l-.379.069-.021,0-.342.174-.017.009-.264.229-.015.013-.165.24.126.086.149.029.106-.535.005-.019-.005-.062,0-.055-.069-.07-.029-.031-.106-.027-.015,0-.122-.006h-.008l-.113.005h-.014l-.088.019-.031.006-.068.05-.033.023-.035.078-.006.015-.57,2.837.005.062,0,.062.081.073.027.023.11.029.015,0,.14.008h.008l.135-.008h.013l.1-.021.026-.008.069-.044.032-.022.041-.076.01-.021.251-1.272a1.793,1.793,0,0,1,.158-.456,1.58,1.58,0,0,1,.242-.361l-.113-.1.095.117.3-.241.256-.073.151.067.058.212-.009.128-.027.176-.349,1.751.008.065.009.056.076.068.028.023.108.029.015,0,.14.008h.006l.135-.008h.014l.1-.021.027-.008.068-.044.035-.022.038-.079.01-.018.355-1.771.034-.219v-.008l.013-.222v-.029Zm2.1-.588-.151-.006,0,.05-.008.044-.017.047-.019.035-.026.029.113.1-.044-.144-.03.008h-.818l-.338,1.687-.022.15v.005l-.01.141v.026l.074.258.023.076.288.1.031.009.181-.017h.012l.119-.032.008,0,.076-.028.05-.012-.035-.149-.062.138.04.018.061-.138-.149.031.008.042,0,.056-.015.076-.019.055-.012.015-.033.018-.091.031-.118.023-.122.008-.258-.032-.155-.085-.09-.138-.036-.24,0-.065.008-.085.017-.095.017-.091-.151-.027.15.029.35-1.755h-.546l-.024-.009-.056.14.149-.032-.013-.058,0-.063.022-.076.014-.026.028-.014-.067-.136V75.5h.517l.155-.769.01-.024-.136-.064.086.124.024-.017.04-.01.1-.005.1.005.021.005.006.006.1-.109-.15.015v.018l-.128.643-.036.181h.861l.028.015.072-.133-.149.028.015.078.149-.029-.151-.006.151.006.149-.029-.015-.077-.014-.071-.123-.067-.033-.019h-.57l.1-.485,0-.022-.006-.063-.005-.056-.074-.071-.028-.028-.112-.029-.015,0-.14-.008h-.008l-.135.006h-.014l-.1.024-.027.005-.071.049-.033.023-.037.077-.008.017-.114.563h-.3l-.1.049-.042.021-.072.126-.009.017-.034.126,0,.013-.01.115v.022l.023.1.017.079.128.05.026.01h.235l-.279,1.392v0l-.017.095-.017.1v0l-.012.1v0l0,.085v.015l.044.3.005.032.146.228.022.032.249.135.024.014.331.041h.014l.159-.012h.01l.146-.028h.011l.123-.044.015,0,.087-.051.029-.018.06-.083.011-.018.036-.1.005-.01.022-.106,0-.01.008-.1V77.9l-.018-.086-.015-.076-.11-.047-.046-.022-.108.026-.01,0-.082.031-.087.024-.1.01-.11-.038-.037-.129.006-.1.022-.14.287-1.433h.613l.073-.022.04-.013.067-.074.013-.012.041-.077.005-.01.029-.081,0-.012.014-.078,0-.01,0-.07v-.019l0-.018Z" transform="translate(-543.776 11.486)" fill="#030504"/>
    <path id="Path_62" data-name="Path 62" d="M562.845,74.822l-.013.215-.033.217L562.448,77l-.021.041-.047.029-.082.019-.127.006-.123-.006-.074-.019-.035-.029L561.934,77l.344-1.729.031-.187.008-.158-.081-.308-.27-.117-.337.1-.32.261a1.863,1.863,0,0,0-.265.394,1.951,1.951,0,0,0-.168.5L560.624,77l-.021.041-.046.029-.082.019-.128.006-.126-.006-.073-.019-.036-.029V77l.565-2.8.015-.041.044-.031.074-.017.106,0,.108,0,.065.017.031.031,0,.041-.105.535.153-.223.251-.219.322-.164.365-.067a.836.836,0,0,1,.347.065l.227.167.124.244Zm2.48,2.18-.069.073-.186.023-.1-.006-.067-.017-.033-.029V77l.1-.529-.146.218-.251.218-.322.164-.36.065a.873.873,0,0,1-.411-.087l-.26-.229-.133-.323-.035-.369a3.185,3.185,0,0,1,.032-.4,2.913,2.913,0,0,1,.106-.45,2.952,2.952,0,0,1,.189-.447,1.854,1.854,0,0,1,.282-.391,1.3,1.3,0,0,1,.383-.276,1.119,1.119,0,0,1,.495-.106.933.933,0,0,1,.473.114,1.2,1.2,0,0,1,.354.308l.059-.283.072-.072.183-.021.1,0,.067.017.032.031V74.2Zm-.1-2.068a1.127,1.127,0,0,0-.315-.322.7.7,0,0,0-.381-.109l-.3.081-.24.209-.179.3-.124.345-.072.347-.023.308.015.218.067.195.132.144.218.054.342-.095.323-.263a1.878,1.878,0,0,0,.264-.395,1.907,1.907,0,0,0,.169-.5Zm2.666-.7,0,.06-.013.068-.023.068-.035.062-.037.041-.05.015h-.715l-.315,1.561-.021.146-.01.135.068.231.215.073.147-.013.106-.029.078-.031.06-.014.039.018.015.064-.009.088-.021.095-.029.083-.041.059-.074.044-.117.038-.137.027-.146.009-.3-.037-.213-.117-.13-.2-.042-.288.005-.081.01-.1.015-.1.018-.095.314-1.574h-.388l-.054-.021-.018-.078.009-.1.027-.106.047-.085.072-.033h.391l.135-.667.019-.04.047-.032.085-.022.124-.005.123.005.074.022.033.032.006.04-.133.667h.714l.062.033Zm1.068-.973-.041.146-.072.1-.108.051-.16.014-.147-.014-.087-.051-.032-.1.014-.146.046-.145.07-.1.106-.053.156-.014.15.014.086.053.033.1ZM568.158,77l-.022.041-.047.029-.082.019-.127.006-.124-.006-.074-.019-.036-.029,0-.041.559-2.8.018-.041.046-.031.082-.019.131-.005.122.005.076.019.032.031.006.041Zm3.4-1.873a2.564,2.564,0,0,1-.042.469,2.455,2.455,0,0,1-.132.463,2.069,2.069,0,0,1-.227.418,1.63,1.63,0,0,1-.32.342,1.547,1.547,0,0,1-.419.231,1.5,1.5,0,0,1-.524.086,1.619,1.619,0,0,1-.511-.072.861.861,0,0,1-.35-.208.844.844,0,0,1-.2-.336,1.525,1.525,0,0,1-.064-.45,2.7,2.7,0,0,1,.042-.47,2.212,2.212,0,0,1,.132-.46,2.293,2.293,0,0,1,.224-.418,1.608,1.608,0,0,1,.322-.344,1.45,1.45,0,0,1,.419-.232,1.535,1.535,0,0,1,.524-.087,1.552,1.552,0,0,1,.511.076.881.881,0,0,1,.351.21.839.839,0,0,1,.2.335,1.438,1.438,0,0,1,.064.447m-.54.031-.033-.279-.109-.209-.2-.133-.3-.046-.34.065-.273.181-.206.268-.147.323-.083.356-.029.355.033.279.112.212.2.133.295.046.341-.065.27-.183.208-.267.147-.327.085-.354Zm3.322-.338-.011.215-.035.217L573.943,77l-.021.041-.046.029-.083.019-.127.006-.123-.006-.074-.019-.035-.029L573.428,77l.347-1.729.029-.187.009-.158-.083-.308-.268-.117-.338.1-.32.261a1.729,1.729,0,0,0-.264.394,1.862,1.862,0,0,0-.169.5L572.122,77l-.023.041-.046.029-.082.019-.125.006-.126-.006-.076-.019-.033-.029,0-.041.563-2.8.018-.041.042-.031.076-.017.108,0,.106,0,.065.017.029.031,0,.041-.106.535.154-.223.251-.219.322-.164.364-.067a.838.838,0,0,1,.349.065l.227.167.124.244Zm2.279-.467-.009.083-.026.1-.041.086-.053.033-.087-.029-.126-.068-.18-.068-.247-.031-.244.038-.177.105-.108.154-.036.178.08.206.208.147.269.129.267.155.205.22a.6.6,0,0,1,.083.326.966.966,0,0,1-.086.406l-.247.323a1.135,1.135,0,0,1-.384.211,1.615,1.615,0,0,1-.506.076l-.277-.022-.233-.056-.178-.076-.117-.079-.033-.05-.013-.064.005-.06.011-.07.022-.072.026-.062.031-.045.036-.019.09.042.141.09.211.091.318.042.292-.042.2-.112.119-.163.04-.195L575.789,76l-.2-.15-.267-.132-.265-.153-.205-.218a.589.589,0,0,1-.083-.328.877.877,0,0,1,.082-.381l.227-.305a1.081,1.081,0,0,1,.355-.2,1.4,1.4,0,0,1,.458-.073l.231.021.2.046.163.062.1.07Zm.7,2.248-.006.1-.023.122-.041.114-.06.091-.1.056-.174.017-.142-.012-.087-.042-.042-.069-.014-.1.009-.109.023-.12.042-.11.058-.087.1-.056.182-.019.145.015.085.045.041.07Z" transform="translate(-539.44 12.711)" fill="#030504"/>
    <path id="Path_63" data-name="Path 63" d="M562.878,74.855l-.151-.01-.013.208-.032.209-.346,1.723-.012.024.136.068-.082-.128-.024.015-.045.012-.1,0-.1,0-.023-.008-.008-.005-.1.114.15-.021,0-.017.34-1.707.031-.187,0-.01.008-.165v-.024l-.087-.328-.018-.072-.338-.146-.049-.022-.39.11-.031.009-.344.281-.01.006-.008.01a1.97,1.97,0,0,0-.287.427,2.03,2.03,0,0,0-.182.536l-.245,1.227-.011.022.135.072-.083-.128-.026.017-.04.01-.108,0-.1,0-.023-.008-.008-.005-.1.114.153-.006v-.023l.556-2.77.012-.027-.14-.058.087.126.019-.014.032-.009.086,0,.085,0,.009,0h0l.109-.106L561,74.2v.019l-.1.515.273.115.142-.208.223-.192.285-.146.344-.062-.027-.151v.153l.285.05.063-.137-.09.122.2.146.1.188.033.258.151-.019-.151-.01.151.01.15-.021-.039-.286,0-.024-.137-.265-.015-.031-.256-.19-.012-.01-.014-.005a.994.994,0,0,0-.411-.079h-.014l-.378.069-.022,0-.342.174-.017.009-.265.229-.014.013-.164.24.126.086.149.029.105-.535,0-.019,0-.062,0-.055-.069-.071-.03-.031L561.1,74l-.015,0-.124-.006h-.006l-.114.005h-.013l-.088.019-.028.006-.068.049-.037.024-.033.082,0,.013-.57,2.834v.059l0,.064.083.074.027.023.109.029.015,0,.142.006h.006l.135-.008h.014l.095-.022.027-.008.067-.044.033-.022.041-.076.01-.021.254-1.272a1.7,1.7,0,0,1,.156-.456,1.643,1.643,0,0,1,.241-.361l-.113-.1.1.118.3-.242.255-.073.154.068.056.212-.008.127-.028.176-.347,1.751.008.065.008.056.077.068.027.023.109.029.015,0,.14.006h.006l.133-.008h.014l.1-.022.026-.008.069-.044.034-.022.04-.079.009-.018.356-1.771.032-.22v-.006l.014-.22V74.85l0-.015Zm2.48,2.18-.112-.1-.031.033-.118.014-.074,0-.018-.006L565,76.964l-.1.115h.151V77.05l.1-.514-.274-.114-.136.2-.222.192-.285.146-.34.062.028.149V77.02a.738.738,0,0,1-.343-.071l-.068.135.1-.112-.233-.209-.112-.27-.033-.346-.15.015h.151a2.95,2.95,0,0,1,.031-.377,3.036,3.036,0,0,1,.1-.426,2.547,2.547,0,0,1,.178-.42,1.674,1.674,0,0,1,.258-.356,1.14,1.14,0,0,1,.34-.246.963.963,0,0,1,.428-.09.811.811,0,0,1,.4.092l.31.27.2.254.115-.555,0,0,.119-.014.077,0,.01,0,0,0,.108-.108-.153.012,0,.019-.556,2.783.149.029-.112-.1.112.1.149.029.563-2.821,0-.062,0-.056-.072-.072-.029-.028L565.856,74l-.015,0-.12-.006h-.011l-.2.024-.051.005-.109.11-.032.031-.067.328.147.031.119-.095a1.38,1.38,0,0,0-.4-.346,1.092,1.092,0,0,0-.547-.132,1.3,1.3,0,0,0-.56.119,1.486,1.486,0,0,0-.427.309,2.009,2.009,0,0,0-.305.423,2.82,2.82,0,0,0-.2.474,3.027,3.027,0,0,0-.11.473,2.85,2.85,0,0,0-.035.42v.006l.036.377v.022l.142.345.014.032.285.254.014.013.017.008a1.02,1.02,0,0,0,.482.1h.013l.375-.067.023,0,.34-.176.017-.009.264-.231.015-.012.159-.233L565,76.506l-.149-.029-.1.529,0,.014v.131l.089.074.024.021.1.027.014,0,.118.008h.014l.2-.024.056-.006.105-.115.029-.031.009-.042Zm-.1-2.068.126-.086a1.28,1.28,0,0,0-.359-.364.857.857,0,0,0-.463-.132h-.019l-.324.085-.033.008-.267.235-.018.015-.191.317-.008.014-.131.356,0,.01-.074.359v.01l-.024.317v.012l.018.229v.018l.072.214.01.029.154.168.029.033.263.065.038.009.382-.105.031-.009.346-.282.009-.006.009-.01a2.021,2.021,0,0,0,.287-.427,2.151,2.151,0,0,0,.182-.538L565.41,75l.014-.064-.036-.053-.126.086-.149-.031-.106.511a1.819,1.819,0,0,1-.158.464,1.659,1.659,0,0,1-.242.363l.114.1-.1-.117-.3.242-.274.076-.135-.035-.08-.085-.049-.147-.014-.187.021-.286.068-.328.117-.319.159-.264.195-.172.269-.07-.038-.146v.153l.3.085a1.023,1.023,0,0,1,.271.278l.124-.085-.149-.031Zm2.666-.7-.151-.006v.05l-.009.045-.017.046-.018.035-.027.029.113.1-.045-.144-.028.008h-.817l-.34,1.687-.022.15v.005l-.01.141v.026l.074.258.023.076.288.1.031.009.18-.017h.013l.119-.032.009,0,.074-.028.051-.012-.035-.149-.063.137.036.019.065-.138-.148.035.008.04,0,.054-.017.077-.019.056-.01.014-.032.018-.094.031-.118.023-.122.008-.258-.032-.155-.085-.09-.138-.036-.24,0-.064.01-.085.014-.1-.15-.022.15.027.017-.094.349-1.754h-.545l-.024-.009-.056.14.147-.035-.013-.055.005-.063.021-.076.014-.026.028-.013-.065-.137v.151h.515l.155-.769.01-.024-.136-.064.086.124.024-.017.044-.01.1-.005.1.005.021.005.006.006.1-.109-.15.019,0,.015-.13.641-.037.182h.863l.028.015.072-.133-.149.028.015.078.149-.029-.151-.006.151.006.149-.029-.015-.077-.014-.071-.123-.067L567.892,74h-.569l.1-.485.005-.024-.01-.067-.006-.051-.072-.069-.028-.028-.112-.029-.017,0-.138-.008h-.006l-.133.006h-.014l-.1.022-.028.008-.071.049-.033.023-.036.077-.009.017L566.5,74h-.3l-.1.049-.044.021-.072.124-.009.019-.033.126,0,.012-.012.114,0,.024.026.105.019.076.126.05.027.01h.232l-.277,1.392-.019.095v.005l-.015.1h0l-.011.1v.005l0,.086v.015l.044.3.005.032.146.228.022.032.249.135.024.014.331.041h.014l.159-.012h.009l.147-.028h.012l.124-.044.014,0,.089-.053.031-.017.059-.087.01-.015.038-.1,0-.012.022-.105v-.009l.01-.1,0-.024-.021-.087-.017-.072-.1-.049-.049-.022-.11.026h-.01l-.082.032-.087.024-.1.01-.11-.038-.037-.129.006-.1.022-.14.287-1.433h.615l.072-.022.038-.013.067-.072.013-.014.042-.077.005-.01.028-.081,0-.012.014-.078,0-.01,0-.07v-.019l0-.018ZM569,73.294l-.146-.041-.035.118-.032.042-.05.026-.117.012-.1-.01-.01-.006,0-.012.009-.1.033-.106.033-.046.049-.024.115-.009.1.009.01.006,0,.012-.013.113.153.015-.146-.041.146.041.15.015.015-.145,0-.032-.041-.126-.018-.055-.136-.082-.029-.018-.183-.017h-.014l-.17.015-.028,0-.132.065-.033.017-.094.127-.013.021-.054.167-.005.015-.017.163,0,.032.044.127.018.051.133.081.029.018.182.018h.015l.174-.017.026,0,.133-.063.033-.017.094-.124.017-.022.05-.174,0-.012V73.31Zm-.805,3.742-.135-.072,0,.005-.014.01.082.127-.035-.147-.069.017-.105,0-.1,0-.023-.008-.008-.005-.1.114.153-.01v-.021l.55-2.764.012-.026-.138-.06.083.127.023-.017.044-.01.109,0,.1,0,.022.006,0,0,.1-.11-.15.021,0,.015-.551,2.774.149.029-.135-.072.135.072.149.029.56-2.824-.008-.065-.008-.054-.072-.067-.029-.027L568.672,74l-.015,0-.137-.008h-.008l-.138.008h-.014l-.095.022-.027.006-.068.046-.039.023-.034.082-.008.015-.564,2.833,0,.062,0,.064.082.07.028.023.108.029.015,0,.142.006h.006l.133-.008h.014l.1-.022.027-.008.068-.044.032-.022.041-.076.01-.021.005-.021Zm3.4-1.873h-.153a2.623,2.623,0,0,1-.038.442,2.286,2.286,0,0,1-.124.435,2.125,2.125,0,0,1-.209.387l-.292.31a1.436,1.436,0,0,1-.375.206,1.356,1.356,0,0,1-.473.077,1.443,1.443,0,0,1-.464-.065l-.29-.169-.167-.277a1.348,1.348,0,0,1-.058-.4,2.538,2.538,0,0,1,.04-.445,2.123,2.123,0,0,1,.123-.427,2.073,2.073,0,0,1,.211-.392l.288-.31a1.322,1.322,0,0,1,.377-.206,1.351,1.351,0,0,1,.473-.078,1.41,1.41,0,0,1,.461.065l.295.174.165.276a1.207,1.207,0,0,1,.056.4h.3a1.588,1.588,0,0,0-.072-.5.983.983,0,0,0-.24-.394,1.056,1.056,0,0,0-.41-.247,1.742,1.742,0,0,0-.56-.082,1.641,1.641,0,0,0-.577.1,1.592,1.592,0,0,0-.46.254,1.7,1.7,0,0,0-.352.377,2.5,2.5,0,0,0-.241.447,2.42,2.42,0,0,0-.141.488,3.045,3.045,0,0,0-.044.5,1.622,1.622,0,0,0,.072.5.975.975,0,0,0,.65.64,1.725,1.725,0,0,0,.559.079,1.636,1.636,0,0,0,1.037-.349,1.849,1.849,0,0,0,.353-.374,2.255,2.255,0,0,0,.241-.449,2.538,2.538,0,0,0,.141-.493,2.722,2.722,0,0,0,.045-.495Zm-.54.031.15-.018-.032-.278,0-.028-.12-.235-.019-.035-.231-.155-.027-.018-.332-.053-.026,0-.364.072-.03.008-.3.2-.023.014-.222.286-.012.014-.153.341-.005.013-.088.368,0,.013-.031.367v.015l.037.295,0,.028.123.236.017.033.231.155.027.019.328.051.027.005.368-.072.029-.006.3-.2.019-.014.223-.287.012-.013.155-.345.005-.013.089-.368,0-.012.028-.367v-.029l-.15.018-.151-.012-.027.342-.078.329-.133.3-.183.233-.224.151-.284.055-.235-.037-.14-.094-.079-.151-.028-.24.026-.327.079-.329.133-.295.179-.233.228-.15.283-.055.237.037.138.092.078.15.029.253.151-.018-.151-.012Zm3.322-.338-.151-.009-.011.209-.033.2-.345,1.725-.013.024.136.068-.083-.128-.023.015-.044.012-.106,0-.1,0-.024-.008-.006-.005-.1.114.15-.021V77.04l.341-1.706.031-.188v-.01L574,74.97v-.024l-.088-.329-.019-.07-.336-.146-.051-.022-.39.11-.029.009-.344.281-.009.006-.009.01a1.95,1.95,0,0,0-.287.428,1.985,1.985,0,0,0-.182.533l-.245,1.228-.012.022.133.072-.081-.128-.026.015-.044.012-.105,0-.1,0-.024-.008-.006-.005-.1.114.15-.01v-.021l.556-2.766.013-.026-.14-.062.088.123.018-.012.032-.009.087,0,.083,0,.01,0h0l.108-.106-.15.012v.019l-.1.515.274.115.141-.208.224-.192.285-.146.342-.062-.027-.151v.153l.285.05.064-.137-.091.122.2.146.1.187.035.259.15-.019-.151-.009.151.009.151-.021-.039-.286,0-.024-.135-.265-.018-.031-.255-.19-.013-.01-.014-.005a.99.99,0,0,0-.411-.079h-.014l-.377.069-.023,0-.341.174-.015.009-.267.229-.015.013-.163.24.124.086.149.029.106-.535,0-.019,0-.062-.005-.055-.068-.071-.029-.031L572.591,74l-.015,0-.122-.006h-.006l-.114.005h-.014l-.088.019-.031.006-.068.05-.032.023-.035.079-.008.014-.569,2.837,0,.062,0,.064.082.07.026.023.11.029.015,0,.141.006h.006l.135-.008h.014l.1-.022.024-.008.069-.044.032-.022.041-.076.011-.021.253-1.272a1.742,1.742,0,0,1,.155-.456,1.593,1.593,0,0,1,.244-.361l-.114-.1.1.117.3-.241.255-.073.153.068.056.212-.006.127-.028.174-.35,1.752.009.065.008.056.076.068.028.023.109.029.015,0,.138.006h.008l.135-.008h.015l.094-.021.027-.008.069-.044.033-.022.04-.079.009-.018.355-1.771.036-.219v-.008l.013-.222v-.029Zm2.279-.467-.151-.015-.008.07-.019.076-.015.035-.015.009.081.128.047-.145-.076-.026-.113-.06-.01-.005-.188-.072-.017-.005-.265-.035-.021,0-.264.042-.028.005-.2.119-.028.017-.126.179-.019.027-.044.209-.009.044.1.249.015.041.245.174.011.008.274.132.244.141.19.2.11-.1-.127.081.059.245-.072.342.137.064-.12-.094-.246.324.119.092-.1-.115a1,1,0,0,1-.336.182,1.39,1.39,0,0,1-.458.069v.151l.012-.15L574.956,77l-.209-.05-.153-.064-.081-.055h0l0-.013v-.032l.009-.058.015-.054.018-.041.022-.033-.124-.082.063.137.036-.018-.063-.138-.063.14.08.035.131.086.012.006.224.1.018.008.338.046.022,0,.313-.046.028,0,.227-.124.03-.017.141-.19.019-.028.045-.229.009-.041-.1-.255-.015-.04-.238-.177-.012-.009-.273-.135-.244-.141-.188-.2-.11.1.127-.083-.059-.245.068-.318-.137-.063.122.09.227-.305-.122-.09.1.114.305-.172a1.212,1.212,0,0,1,.406-.064V74.1l-.013.153.219.018.182.042.137.051.046.032.017.049.143-.051-.151-.015.151.015.144-.05-.036-.1-.017-.046-.142-.1-.015-.01-.18-.069-.008,0-.214-.049-.011,0-.24-.021h-.013a1.536,1.536,0,0,0-.506.082,1.143,1.143,0,0,0-.406.229l-.012.01-.236.318-.01.012-.008.014a1.033,1.033,0,0,0-.095.446.725.725,0,0,0,.108.41l.008.012.213.228.015.015.286.165h0l.258.128.156.117.05.129-.023.12-.081.109-.15.081-.245.037-.276-.038-.181-.077-.13-.082-.009-.006-.1-.046-.064-.029-.1.047-.037.017-.055.082-.009.012-.031.076,0,.008-.023.081,0,.006-.013.082v.006l-.005.068v.019l.017.083.005.031.053.076.015.024.14.1.013.009.192.081.011.005.246.059.012,0,.287.023h.013a1.738,1.738,0,0,0,.556-.083A1.3,1.3,0,0,0,576.2,77l.012-.009.256-.337.01-.014.006-.014a1.113,1.113,0,0,0,.1-.469.751.751,0,0,0-.105-.406l-.009-.012-.214-.232-.015-.017-.285-.165-.006,0-.264-.127-.16-.114-.047-.123.022-.1.071-.1.124-.074.194-.031.206.027.154.058.118.063.012.005.1.035.069.023.113-.073.037-.023.058-.126.005-.013.031-.112,0-.013.009-.095,0-.035-.01-.031Zm.7,2.248-.151-.01-.005.092-.021.1-.029.086-.029.042-.045.024-.131.014-.1-.009-.022-.01,0-.006-.008-.047.008-.086.019-.1.032-.082.027-.042.042-.024.135-.015.1.012.021.012.005.006.006.058.15-.018-.151-.01.151.01.15-.018-.01-.09-.005-.033-.059-.1-.021-.036-.119-.064-.027-.015-.176-.018-.017,0-.2.023-.031,0-.127.071-.032.018-.077.118-.01.014-.047.127-.005.012-.026.129,0,.009-.009.12v.017l.017.113,0,.031.058.1.024.038.127.062.027.013.17.014h.014l.187-.019.03,0,.132-.071.035-.018.081-.123.012-.015.046-.133,0-.01.026-.132v-.009l.009-.112v-.014l0-.014Z" transform="translate(-539.473 12.677)" fill="#030504"/>
  </g>
</svg>
