<svg xmlns="http://www.w3.org/2000/svg" viewBox="0 0 36.45 32.52"><defs><style>.cls-1{fill:#fdc217;}</style></defs><title>warrning_sign</title><g id="Layer_2" data-name="Layer 2"><g id="Layer_1-2" data-name="Layer 1"><path class="cls-1" d="M20.57,18.43a2.35,2.35,0,1,1-4.69,0V7.67A1.12,1.12,0,0,1,17,6.55h2.47a1.12,1.12,0,0,1,1.11,1.12Zm-2.35,10a2.33,2.33,0,1,1,2.33-2.33,2.33,2.33,0,0,1-2.33,2.33M36,27.15,21.32,1.79a3.58,3.58,0,0,0-6.2,0L.49,27.15a3.58,3.58,0,0,0,3.1,5.37H32.86A3.58,3.58,0,0,0,36,27.15"/></g></g></svg>